<svg width="38" height="39" viewBox="0 0 38 39" fill="none" xmlns="http://www.w3.org/2000/svg">
<path d="M35.377 2.81552C36.8145 4.19559 37.5579 5.67232 37.587 7.20573C37.6139 8.75949 36.9032 10.2951 35.4715 11.7704C34.0878 13.1991 13.2414 33.8144 12.354 34.6909C12.2159 34.8268 12.0466 34.9271 11.862 34.983C10.458 35.4016 1.92681 38.1596 1.84106 38.1872C1.7226 38.2265 1.60123 38.2446 1.4806 38.2446C1.17464 38.2446 0.875225 38.1247 0.65139 37.9016C0.338893 37.5891 0.223342 37.1284 0.352701 36.7047C0.378137 36.6218 2.90282 28.3567 3.40717 26.494C3.46168 26.2935 3.56778 26.1103 3.71386 25.9635C3.71386 25.9635 26.0653 3.60403 26.7209 2.95506C27.186 2.49358 28.888 0.986324 31.2208 0.986324C32.7121 0.986324 34.1103 1.60187 35.377 2.81552ZM26.3502 6.67376C21.8474 11.1752 11.1251 21.9018 7.01905 26.0086C7.97398 26.3981 9.21161 27.0907 10.4274 28.316C11.4238 29.3196 12.043 30.3944 12.426 31.2869C16.5749 27.183 27.0988 16.7703 31.6714 12.2217C31.5987 11.8438 31.2085 10.181 29.7666 8.72606C28.34 7.2864 26.9425 6.81766 26.3502 6.67376ZM5.43985 27.9715C4.90134 29.7723 3.77635 33.1865 3.10994 35.3791C5.35846 34.6546 8.89766 33.4329 10.5139 32.9133C10.293 32.2069 9.801 31.0478 8.75886 29.9976C7.4064 28.6335 6.07865 28.1408 5.43985 27.9715ZM33.784 10.1083C34.7564 9.10542 35.2411 8.14322 35.2259 7.25079C35.2091 6.3758 34.7128 5.46375 33.7499 4.54007C32.9366 3.76101 32.0864 3.36566 31.2201 3.36566C29.715 3.36566 28.5072 4.51972 28.3742 4.65126C28.3502 4.67451 28.2892 4.73628 28.2099 4.81477C29.1373 5.21593 30.2942 5.89397 31.4352 7.0444C32.5515 8.16938 33.1961 9.38594 33.5638 10.3322C33.6576 10.2369 33.736 10.1577 33.784 10.1083Z" fill="#0A1C6E"/>
</svg>
