<svg width="39" height="39" viewBox="0 0 39 39" fill="none" xmlns="http://www.w3.org/2000/svg">
<path d="M35.8431 16.093C36.9514 16.2929 38.1505 17.2616 38.1505 18.5458V20.8713C38.1505 22.1555 36.9333 22.9425 35.825 23.1969L32.8032 23.9512C32.5772 24.6424 32.2959 25.3059 31.9711 25.9447L33.5866 28.638C34.1898 29.6009 34.4943 31.018 33.5866 31.9264L31.9413 33.5703C31.0343 34.4795 29.5009 34.3159 28.5758 33.6742L25.9523 32.0027C25.2815 32.3501 24.5809 32.6481 23.8506 32.8843L23.1798 35.9126C22.9799 37.0209 22.0112 38.22 20.727 38.22H18.4015C17.1173 38.22 16.3303 37.0027 16.0759 35.8944L15.3317 32.9184C14.5389 32.6677 13.778 32.3436 13.0534 31.9613L10.3645 33.675C9.43865 34.3159 7.90596 34.4802 6.99827 33.571L5.35294 31.9272C4.44597 31.0187 4.75047 29.6016 5.35294 28.6387L7.0535 25.8044C6.75845 25.2078 6.49755 24.5929 6.28897 23.952L3.26721 23.1969C2.15893 22.9425 0.94165 22.1555 0.94165 20.8713V18.5458C0.94165 17.2616 2.14076 16.2929 3.24904 16.0938L6.23302 15.431C6.45104 14.7377 6.73374 14.0734 7.05205 13.4317L5.35294 10.6004C4.74975 9.63744 4.44524 8.22031 5.35294 7.31189L6.99827 5.66728C7.90523 4.75959 9.43865 4.92238 10.3638 5.56482L13.0469 7.27337C13.7678 6.89329 14.5243 6.57207 15.3121 6.32062L16.0578 3.33664C16.3121 2.22837 17.0992 1.01109 18.3833 1.01109H20.7089C21.993 1.01109 22.9618 2.2102 23.1616 3.31775L23.8317 6.33806C24.5693 6.57643 25.2793 6.87875 25.9581 7.23049L28.5758 5.56336C29.5009 4.92165 31.0336 4.75814 31.9413 5.66656L33.5866 7.31043C34.4943 8.21885 34.1898 9.63599 33.5866 10.5996L31.9718 13.2893C32.3214 13.9746 32.6259 14.6868 32.8584 15.431L35.8431 16.093ZM35.8264 20.7071L35.8446 18.6432C35.8017 18.5618 35.5997 18.4121 35.3395 18.3641L31.0416 17.4099L30.6397 16.1257C30.4602 15.5487 30.2182 14.9673 29.9014 14.3474L29.3142 13.1985L31.6157 9.36564C31.7422 9.16216 31.8061 8.96303 31.8265 8.84167L30.3003 7.3584C30.1499 7.3584 29.982 7.41799 29.825 7.52482L26.0765 9.91287L24.8869 9.29442C24.3062 8.99356 23.7103 8.74356 23.1165 8.5517L21.8498 8.14255L20.8731 3.73053C20.8426 3.56266 20.6929 3.35989 20.7089 3.33591H18.5476C18.4749 3.43693 18.376 3.63169 18.315 3.89986L17.254 8.14327L16.0185 8.53644C15.3797 8.73919 14.7453 9.00664 14.1319 9.32931L12.9372 9.96011L9.03822 7.47468C8.95755 7.41944 8.79113 7.35913 8.64287 7.31189L7.11382 8.84021C7.13417 8.96231 7.20175 9.17015 7.3471 9.40416L9.701 13.3256L9.13487 14.4652C8.83909 15.0618 8.61526 15.6061 8.45174 16.1286L8.0484 17.4106L3.66182 18.3815C3.50267 18.4106 3.31154 18.5472 3.27229 18.5472C3.27011 18.5472 3.26866 18.5465 3.26721 18.5458V20.7078C3.36822 20.7798 3.56226 20.8793 3.83115 20.9404L8.1 22.0079L8.49971 23.231C8.66249 23.7303 8.87179 24.2347 9.1356 24.7717L9.70173 25.9105L7.32312 29.8734C7.19594 30.0762 7.13271 30.2753 7.11237 30.3959L8.63778 31.8799C8.78895 31.8799 8.95682 31.8203 9.11307 31.7142L12.9415 29.2739L14.1377 29.9054C14.7569 30.2324 15.3935 30.5006 16.0323 30.7012L17.2714 31.0943L18.3412 35.3755C18.3957 35.611 18.4923 35.797 18.5635 35.8959H20.6565C20.7416 35.829 20.8651 35.6422 20.9095 35.4104L21.8673 31.082L23.1347 30.6721C23.7212 30.4831 24.3091 30.236 24.8825 29.9388L26.0729 29.3233L29.9006 31.7644C29.9813 31.8196 30.1492 31.8799 30.2974 31.9264L31.8265 30.3988C31.8061 30.2767 31.7385 30.0682 31.5932 29.8356L29.3149 26.0377L29.8992 24.8902C30.179 24.3386 30.413 23.7797 30.5939 23.2296L30.9936 22.0072L35.3054 20.9309C35.5416 20.8757 35.7276 20.7783 35.8264 20.7071ZM19.5621 12.6272C23.4232 12.6272 26.5649 15.7624 26.5649 19.6155C26.5649 23.468 23.4232 26.6031 19.5621 26.6031C15.7002 26.6031 12.5585 23.468 12.5585 19.6155C12.5585 15.7624 15.7002 12.6272 19.5621 12.6272ZM19.5461 24.2666C22.1107 24.2666 24.1972 22.1802 24.1972 19.6155C24.1972 17.0501 22.1115 14.9644 19.5461 14.9644C16.9814 14.9644 14.895 17.0501 14.895 19.6155C14.895 22.1802 16.9814 24.2666 19.5461 24.2666Z" fill="#0A1C6E"/>
</svg>
