<svg width="39" height="39" viewBox="0 0 39 39" fill="none" xmlns="http://www.w3.org/2000/svg">
<path d="M29.7941 35.9044V21.095L32.1196 18.8755V35.9044C32.1196 37.1893 31.0782 38.23 29.7941 38.23H3.05016C1.76602 38.23 0.724609 37.1893 0.724609 35.9044V6.83498C0.724609 5.55084 1.76602 4.50943 3.05016 4.50943H21.6779L21.7382 4.57048L19.3872 6.83498H3.05016V35.9044H29.7941ZM36.1486 2.51672C37.3397 3.65842 37.9589 4.88297 37.98 6.15476C38.0025 7.44254 37.4132 8.71432 36.2278 9.93742C35.0811 11.122 20.9133 25.0702 20.1793 25.7941C20.0638 25.9067 19.925 25.9896 19.7716 26.0353C18.6081 26.382 11.5392 28.6683 11.4679 28.6923C11.3691 28.7228 11.2688 28.7374 11.1685 28.7374C10.9149 28.7374 10.6671 28.6385 10.4818 28.4525C10.223 28.1974 10.1264 27.8144 10.2347 27.4634C10.2558 27.3958 12.348 20.5441 12.7652 19.002C12.811 18.8348 12.8989 18.6837 13.0203 18.5609C13.0203 18.5609 28.4336 3.16933 28.9779 2.63227C29.3616 2.25 30.7722 1.00074 32.7061 1.00074C33.9415 1.00074 35.0992 1.51092 36.1486 2.51672ZM34.5578 8.31898C35.2969 7.5559 35.6661 6.8408 35.6544 6.19473C35.6443 5.56683 35.2686 4.8946 34.5396 4.19548C33.9299 3.61045 33.3289 3.3263 32.7061 3.3263C31.6073 3.3263 30.7163 4.1824 30.6189 4.27978C30.1167 4.77542 16.9112 17.9606 14.9141 19.9548C14.5798 21.1335 13.8306 23.6248 13.2063 25.6865C15.1452 25.0615 17.7113 24.2367 18.7825 23.9053L19.4977 23.2004C28.8435 13.9933 33.9103 8.98612 34.5578 8.31898Z" fill="#0A1C6E"/>
</svg>
