<svg width="14" height="15" viewBox="0 0 14 15" fill="none" xmlns="http://www.w3.org/2000/svg">
<path d="M7 10.5996C6.88151 10.5996 6.77897 10.5586 6.69238 10.4766C6.60579 10.3945 6.5625 10.2897 6.5625 10.1621V7.97461H4.375C4.25651 7.97461 4.15397 7.93359 4.06738 7.85156C3.98079 7.76953 3.9375 7.66471 3.9375 7.53711C3.9375 7.41862 3.98079 7.31608 4.06738 7.22949C4.15397 7.1429 4.25651 7.09961 4.375 7.09961H6.5625V4.91211C6.5625 4.79362 6.60579 4.69108 6.69238 4.60449C6.77897 4.5179 6.88151 4.47461 7 4.47461C7.11849 4.47461 7.22103 4.5179 7.30762 4.60449C7.39421 4.69108 7.4375 4.79362 7.4375 4.91211V7.09961H9.625C9.74349 7.09961 9.84603 7.1429 9.93262 7.22949C10.0192 7.31608 10.0625 7.41862 10.0625 7.53711C10.0625 7.66471 10.0192 7.76953 9.93262 7.85156C9.84603 7.93359 9.74349 7.97461 9.625 7.97461H7.4375V10.1621C7.4375 10.2897 7.39421 10.3945 7.30762 10.4766C7.22103 10.5586 7.11849 10.5996 7 10.5996ZM7 14.5371C6.03385 14.5371 5.12695 14.3548 4.2793 13.9902C3.43164 13.6257 2.69108 13.1266 2.05762 12.4932C1.42415 11.8597 0.920573 11.1146 0.546875 10.2578C0.182292 9.41016 0 8.50326 0 7.53711C0 6.57096 0.182292 5.66406 0.546875 4.81641C0.920573 3.96875 1.42415 3.22819 2.05762 2.59473C2.69108 1.96126 3.43164 1.46224 4.2793 1.09766C5.12695 0.723958 6.03385 0.537109 7 0.537109C7.96615 0.537109 8.87305 0.723958 9.7207 1.09766C10.5684 1.46224 11.3089 1.96126 11.9424 2.59473C12.5758 3.22819 13.0794 3.96875 13.4531 4.81641C13.8177 5.66406 14 6.57096 14 7.53711C14 8.50326 13.8177 9.41016 13.4531 10.2578C13.0794 11.1146 12.5758 11.8597 11.9424 12.4932C11.3089 13.1266 10.5684 13.6257 9.7207 13.9902C8.87305 14.3548 7.96615 14.5371 7 14.5371ZM7 1.41211C6.15234 1.41211 5.35938 1.57617 4.62109 1.9043C3.8737 2.22331 3.22428 2.66081 2.67285 3.2168C2.12142 3.77279 1.68164 4.41992 1.35352 5.1582C1.03451 5.9056 0.875 6.69857 0.875 7.53711C0.875 8.38477 1.03451 9.18229 1.35352 9.92969C1.68164 10.668 2.12142 11.3151 2.67285 11.8711C3.22428 12.4271 3.8737 12.8646 4.62109 13.1836C5.35938 13.5026 6.15234 13.6621 7 13.6621C7.84766 13.6621 8.64062 13.5026 9.37891 13.1836C10.1263 12.8646 10.7757 12.4271 11.3271 11.8711C11.8786 11.3151 12.3184 10.668 12.6465 9.92969C12.9655 9.18229 13.125 8.38477 13.125 7.53711C13.125 6.69857 12.9655 5.9056 12.6465 5.1582C12.3184 4.41992 11.8786 3.77279 11.3271 3.2168C10.7757 2.66081 10.1263 2.22331 9.37891 1.9043C8.64062 1.57617 7.84766 1.41211 7 1.41211Z" fill="white"/>
</svg>
