<svg width="14" height="15" viewBox="0 0 14 15" fill="none" xmlns="http://www.w3.org/2000/svg">
<path d="M0.4375 14.5371C0.410156 14.5371 0.385091 14.5348 0.362305 14.5303C0.339518 14.5257 0.314453 14.5189 0.287109 14.5098C0.287109 14.5098 0.284831 14.5098 0.280273 14.5098C0.275716 14.5098 0.273438 14.5098 0.273438 14.5098C0.21875 14.4824 0.170898 14.4482 0.129883 14.4072C0.0888672 14.3662 0.0546875 14.3184 0.0273438 14.2637C0.0273438 14.2637 0.0273438 14.2591 0.0273438 14.25C0.0182292 14.2318 0.0113932 14.209 0.00683594 14.1816C0.00227865 14.1543 0 14.127 0 14.0996V10.1621C0 10.0436 0.0432943 9.94108 0.129883 9.85449C0.216471 9.7679 0.31901 9.72461 0.4375 9.72461C0.55599 9.72461 0.658529 9.7679 0.745117 9.85449C0.831706 9.94108 0.875 10.0436 0.875 10.1621V13.0469L5.37305 8.54883C5.41862 8.50326 5.46875 8.46908 5.52344 8.44629C5.57812 8.4235 5.63281 8.41211 5.6875 8.41211C5.74219 8.41211 5.79688 8.4235 5.85156 8.44629C5.90625 8.46908 5.95638 8.50326 6.00195 8.54883C6.03841 8.58529 6.06803 8.63086 6.09082 8.68555C6.11361 8.74023 6.125 8.79492 6.125 8.84961C6.125 8.91341 6.11361 8.97038 6.09082 9.02051C6.06803 9.07064 6.03841 9.11849 6.00195 9.16406L1.49023 13.6621H4.375C4.49349 13.6621 4.59603 13.7054 4.68262 13.792C4.76921 13.8786 4.8125 13.9811 4.8125 14.0996C4.8125 14.2181 4.76921 14.3206 4.68262 14.4072C4.59603 14.4938 4.49349 14.5371 4.375 14.5371H0.4375ZM8.3125 6.66211C8.25781 6.66211 8.20312 6.65072 8.14844 6.62793C8.09375 6.60514 8.04362 6.57552 7.99805 6.53906C7.96159 6.49349 7.93197 6.44564 7.90918 6.39551C7.88639 6.34538 7.875 6.28841 7.875 6.22461C7.875 6.16992 7.88639 6.11523 7.90918 6.06055C7.93197 6.00586 7.96159 5.96029 7.99805 5.92383L12.5098 1.41211H9.625C9.50651 1.41211 9.40397 1.36882 9.31738 1.28223C9.23079 1.19564 9.1875 1.0931 9.1875 0.974609C9.1875 0.85612 9.23079 0.753581 9.31738 0.666992C9.40397 0.580403 9.50651 0.537109 9.625 0.537109H13.5625C13.5898 0.537109 13.6149 0.539388 13.6377 0.543945C13.6605 0.548503 13.6855 0.555339 13.7129 0.564453C13.7129 0.564453 13.7152 0.566731 13.7197 0.571289C13.7243 0.575847 13.7311 0.578125 13.7402 0.578125C13.7858 0.596354 13.8291 0.625977 13.8701 0.666992C13.9111 0.708008 13.9453 0.755859 13.9727 0.810547C13.9727 0.810547 13.9727 0.812825 13.9727 0.817383C13.9727 0.82194 13.9727 0.824219 13.9727 0.824219C13.9818 0.851562 13.9886 0.876628 13.9932 0.899414C13.9977 0.9222 14 0.947266 14 0.974609V4.91211C14 5.0306 13.9567 5.13314 13.8701 5.21973C13.7835 5.30632 13.681 5.34961 13.5625 5.34961C13.444 5.34961 13.3415 5.30632 13.2549 5.21973C13.1683 5.13314 13.125 5.0306 13.125 4.91211V2.04102L8.62695 6.53906C8.58138 6.57552 8.53125 6.60514 8.47656 6.62793C8.42188 6.65072 8.36719 6.66211 8.3125 6.66211Z" fill="white"/>
</svg>
