<svg width="14" height="15" viewBox="0 0 14 15" fill="none" xmlns="http://www.w3.org/2000/svg">
<path d="M7.00007 13.7168C6.93627 13.7168 6.87702 13.7054 6.82233 13.6826C6.76765 13.6598 6.72207 13.6302 6.68562 13.5938L1.09382 7.75586C0.811266 7.47331 0.578844 7.1543 0.396553 6.79883C0.223376 6.45247 0.107165 6.09017 0.0479199 5.71191C-0.0113249 5.33366 -0.0136035 4.94857 0.041084 4.55664C0.0957715 4.17383 0.214261 3.80013 0.396553 3.43555C0.715563 2.79753 1.17585 2.29395 1.77741 1.9248C2.37897 1.55566 3.03522 1.37109 3.74616 1.37109C4.03783 1.37109 4.32494 1.403 4.60749 1.4668C4.89004 1.5306 5.16348 1.6263 5.4278 1.75391C5.60098 1.84505 5.7696 1.94987 5.93366 2.06836C6.09772 2.18685 6.25267 2.31901 6.39851 2.46484L7.00007 3.06641L7.60163 2.46484C7.9571 2.10938 8.3627 1.83822 8.81843 1.65137C9.27416 1.46452 9.75267 1.37109 10.254 1.37109C10.7553 1.37109 11.2338 1.46452 11.6895 1.65137C12.1453 1.83822 12.5509 2.10938 12.9063 2.46484C13.043 2.60156 13.1706 2.75195 13.2891 2.91602C13.4076 3.08008 13.5124 3.25325 13.6036 3.43555C13.7859 3.80013 13.9044 4.17383 13.9591 4.55664C14.0137 4.94857 14.0115 5.33366 13.9522 5.71191C13.893 6.09017 13.7722 6.45247 13.5899 6.79883C13.4167 7.1543 13.1889 7.47331 12.9063 7.75586L7.31452 13.5938C7.27806 13.6302 7.23021 13.6598 7.17097 13.6826C7.11172 13.7054 7.05476 13.7168 7.00007 13.7168ZM3.74616 2.23242C3.59121 2.23242 3.43855 2.24609 3.28815 2.27344C3.13776 2.30078 2.98965 2.33724 2.84382 2.38281C2.47924 2.51042 2.15339 2.69727 1.86628 2.94336C1.57917 3.18945 1.34903 3.48568 1.17585 3.83203C0.902412 4.37891 0.813545 4.95768 0.909248 5.56836C1.00495 6.17904 1.27155 6.70312 1.70905 7.14062L7.00007 12.6504L12.2774 7.1543C12.7149 6.70768 12.9838 6.17904 13.0841 5.56836C13.1843 4.95768 13.0977 4.37891 12.8243 3.83203C12.7514 3.6862 12.6693 3.55176 12.5782 3.42871C12.487 3.30566 12.3868 3.18945 12.2774 3.08008C12.0131 2.80664 11.7055 2.59928 11.3546 2.45801C11.0036 2.31673 10.6368 2.24609 10.254 2.24609C9.87116 2.24609 9.5043 2.31673 9.15339 2.45801C8.80248 2.59928 8.4903 2.80664 8.21687 3.08008L7.31452 3.99609C7.26895 4.03255 7.21882 4.06217 7.16413 4.08496C7.10944 4.10775 7.05476 4.11914 7.00007 4.11914C6.94538 4.11914 6.89069 4.10775 6.83601 4.08496C6.78132 4.06217 6.73119 4.03255 6.68562 3.99609L5.7696 3.08008C5.66022 2.9707 5.54401 2.87044 5.42097 2.7793C5.29792 2.68815 5.16804 2.61068 5.03132 2.54688C4.8308 2.44661 4.62344 2.36914 4.40925 2.31445C4.19506 2.25977 3.97403 2.23242 3.74616 2.23242Z" fill="white"/>
</svg>
