<svg width="17" height="17" viewBox="0 0 17 17" fill="none" xmlns="http://www.w3.org/2000/svg">
<path d="M8.80005 16.6099C9.88222 16.6099 10.898 16.4028 11.845 15.9878H11.844C12.7879 15.5847 13.6141 15.0302 14.3206 14.3237C14.9387 13.7056 15.4443 12.9957 15.8381 12.1958L16.0002 11.8481L16.0012 11.8462C16.4051 10.8896 16.6067 9.87466 16.6067 8.80322C16.6067 7.72165 16.4044 6.70691 16.0002 5.76025V5.7583C15.5868 4.81477 15.0269 3.98902 14.3206 3.28271C13.6142 2.57641 12.7885 2.01651 11.845 1.60303H11.843C10.8964 1.19887 9.88162 0.996582 8.80005 0.996582C7.71848 0.996582 6.70373 1.19887 5.75708 1.60303H5.75513C4.81159 2.01651 3.98585 2.57641 3.27954 3.28271C2.57323 3.98902 2.01334 4.81477 1.59985 5.7583V5.76025C1.19569 6.70691 0.993408 7.72165 0.993408 8.80322C0.993408 9.87466 1.19498 10.8896 1.59888 11.8462L1.59985 11.8481C2.01334 12.7917 2.57323 13.6174 3.27954 14.3237C3.98582 15.03 4.81157 15.5847 5.75513 15.9878C6.70213 16.4028 7.71788 16.6099 8.80005 16.6099ZM8.80005 15.6528C7.86137 15.6528 6.97479 15.476 6.13989 15.1196C5.31329 14.7624 4.59061 14.2715 3.96899 13.6499C3.34761 13.0285 2.85125 12.3063 2.48364 11.48L2.48462 11.479C2.12832 10.6443 1.95044 9.75262 1.95044 8.80322C1.95044 7.85382 2.12832 6.96219 2.48462 6.12744C2.84188 5.29049 3.33131 4.56474 3.95239 3.94873C4.57415 3.33207 5.29821 2.84515 6.12524 2.48779H6.12427C6.95902 2.1315 7.85065 1.95361 8.80005 1.95361C9.74919 1.95361 10.6403 2.13169 11.4749 2.48779C12.3019 2.84515 13.0259 3.33207 13.6477 3.94873C14.2688 4.56474 14.7582 5.29049 15.1155 6.12744C15.4718 6.96219 15.6497 7.85382 15.6497 8.80322C15.6497 9.74172 15.4717 10.6276 15.1155 11.4624L14.9749 11.7681C14.6334 12.4688 14.1906 13.0904 13.6467 13.6343C13.0252 14.2558 12.3023 14.751 11.4758 15.1187L11.1594 15.2437C10.4167 15.5164 9.63064 15.6528 8.80005 15.6528ZM9.27856 9.28174V2.68408H8.32153V8.32471H4.80591V9.28174H9.27856Z" fill="white" stroke="white" stroke-width="0.3"/>
</svg>
