<svg width="17" height="17" viewBox="0 0 17 17" fill="none" xmlns="http://www.w3.org/2000/svg">
<path d="M11.7437 15.0063H3.74365C3.63949 15.0063 3.54834 14.9673 3.47021 14.8892C3.39209 14.811 3.35303 14.7147 3.35303 14.6001C3.35303 14.4855 3.39209 14.3892 3.47021 14.311C3.54834 14.2329 3.63949 14.1938 3.74365 14.1938H11.7437C11.8582 14.1938 11.9546 14.2329 12.0327 14.311C12.1108 14.3892 12.1499 14.4855 12.1499 14.6001C12.1499 14.7147 12.1108 14.811 12.0327 14.8892C11.9546 14.9673 11.8582 15.0063 11.7437 15.0063ZM13.353 3.00635C13.2384 3.00635 13.1421 3.04541 13.064 3.12354C12.9858 3.20166 12.9468 3.29281 12.9468 3.39697V15.397C12.9468 15.5116 12.9077 15.6079 12.8296 15.686C12.7515 15.7642 12.6603 15.8032 12.5562 15.8032H3.74365C3.42074 15.8032 3.14209 15.686 2.90771 15.4517C2.67334 15.2173 2.55615 14.9334 2.55615 14.6001C2.55615 14.2668 2.67334 13.9829 2.90771 13.7485C3.14209 13.5142 3.42074 13.397 3.74365 13.397H10.9468C11.2801 13.397 11.564 13.2798 11.7983 13.0454C12.0327 12.811 12.1499 12.5272 12.1499 12.1938V2.6001C12.1499 2.26676 12.0327 1.98291 11.7983 1.74854C11.564 1.51416 11.2801 1.39697 10.9468 1.39697H2.94678C2.61344 1.39697 2.32959 1.51416 2.09521 1.74854C1.86084 1.98291 1.74365 2.26676 1.74365 2.6001V14.6001C1.74365 15.1522 1.93896 15.6235 2.32959 16.0142C2.72021 16.4048 3.19157 16.6001 3.74365 16.6001H12.5562C12.8791 16.6001 13.1577 16.4829 13.3921 16.2485C13.6265 16.0142 13.7437 15.7303 13.7437 15.397V3.39697C13.7437 3.29281 13.7046 3.20166 13.6265 3.12354C13.5483 3.04541 13.4572 3.00635 13.353 3.00635ZM2.94678 2.19385H10.9468C11.0614 2.19385 11.1577 2.23291 11.2358 2.31104C11.314 2.38916 11.353 2.48551 11.353 2.6001V12.1938C11.353 12.3084 11.314 12.4048 11.2358 12.4829C11.1577 12.561 11.0614 12.6001 10.9468 12.6001H3.74365C3.5249 12.6001 3.31396 12.6366 3.11084 12.7095C2.90771 12.7824 2.72282 12.8813 2.55615 13.0063V2.6001C2.55615 2.48551 2.59521 2.38916 2.67334 2.31104C2.75146 2.23291 2.84261 2.19385 2.94678 2.19385Z" fill="white"/>
</svg>
