<svg width="25" height="29" viewBox="0 0 25 29" fill="none" xmlns="http://www.w3.org/2000/svg">
<path d="M19.1137 7.51751C19.1137 6.25964 18.8038 5.09889 18.1842 4.03525C17.5645 2.97161 16.7228 2.12995 15.6592 1.51026C14.5955 0.890579 13.4348 0.580736 12.1769 0.580736C10.919 0.580736 9.75829 0.890579 8.69465 1.51026C7.63101 2.12995 6.78935 2.97161 6.16967 4.03525C5.54998 5.09889 5.24014 6.25964 5.24014 7.51751H0.0236816V24.027C0.0236816 24.804 0.217911 25.5254 0.606371 26.1913C0.99483 26.8572 1.52203 27.3844 2.18796 27.7729C2.85389 28.1614 3.57531 28.3556 4.35223 28.3556H19.9739C20.7693 28.3556 21.4999 28.1614 22.1659 27.7729C22.8318 27.3844 23.359 26.8572 23.7475 26.1913C24.1359 25.5254 24.3301 24.804 24.3301 24.027V7.51751H19.1137ZM12.1769 3.18896C12.9538 3.18896 13.6753 3.38319 14.3412 3.77165C15.0071 4.16011 15.5343 4.68731 15.9228 5.35324C16.3112 6.01917 16.5055 6.74059 16.5055 7.51751H7.84837C7.84837 6.74059 8.0426 6.01917 8.43106 5.35324C8.81952 4.68731 9.34671 4.16011 10.0126 3.77165C10.6786 3.38319 11.4 3.18896 12.1769 3.18896ZM21.7219 24.027C21.7219 24.4895 21.5508 24.8918 21.2086 25.234C20.8664 25.5763 20.4548 25.7474 19.9739 25.7474H4.35223C3.88978 25.7474 3.48745 25.5763 3.14523 25.234C2.80302 24.8918 2.63191 24.4895 2.63191 24.027V10.1257H5.24014V12.29C5.24014 12.66 5.365 12.9698 5.61472 13.2195C5.86445 13.4693 6.16967 13.5941 6.53038 13.5941C6.89109 13.5941 7.20093 13.4693 7.45991 13.2195C7.71888 12.9698 7.84837 12.66 7.84837 12.29V10.1257H16.5055V12.29C16.5055 12.66 16.635 12.9698 16.8939 13.2195C17.1529 13.4693 17.4627 13.5941 17.8235 13.5941C18.1842 13.5941 18.4894 13.4693 18.7391 13.2195C18.9888 12.9698 19.1137 12.66 19.1137 12.29V10.1257H21.7219V24.027Z" fill="#222222"/>
</svg>
