<svg width="207" height="104" viewBox="0 0 207 104" fill="none" xmlns="http://www.w3.org/2000/svg">
<path d="M177.127 5.74841H30.4873V44.4502H177.127V5.74841Z" fill="#0A1C6E"/>
<path d="M37.7597 34V9.54733H49.3223C52.0238 9.54733 54.3992 10.048 56.4485 11.0494C58.4979 12.0508 60.0932 13.4598 61.2343 15.2762C62.3987 17.0927 62.9809 19.2585 62.9809 21.7737C62.9809 24.2655 62.3987 26.4313 61.2343 28.2711C60.0932 30.0876 58.4979 31.4965 56.4485 32.4979C54.3992 33.4993 52.0238 34 49.3223 34H37.7597ZM44.6763 28.4807H49.0429C50.4402 28.4807 51.6512 28.2245 52.6759 27.7122C53.7238 27.1765 54.5389 26.408 55.1211 25.4066C55.7033 24.3819 55.9944 23.171 55.9944 21.7737C55.9944 20.3531 55.7033 19.1421 55.1211 18.1407C54.5389 17.1393 53.7238 16.3824 52.6759 15.8701C51.6512 15.3345 50.4402 15.0666 49.0429 15.0666H44.6763V28.4807ZM66.3055 34V15.0666H72.9426V34H66.3055ZM69.6241 12.9707C68.4131 12.9707 67.435 12.633 66.6897 11.9577C65.9445 11.2823 65.5719 10.4439 65.5719 9.44253C65.5719 8.44113 65.9445 7.60276 66.6897 6.9274C67.435 6.25204 68.4131 5.91436 69.6241 5.91436C70.8351 5.91436 71.8132 6.24039 72.5584 6.89247C73.3036 7.52125 73.6762 8.33634 73.6762 9.33773C73.6762 10.3857 73.3036 11.259 72.5584 11.9577C71.8364 12.633 70.8583 12.9707 69.6241 12.9707ZM84.1377 34.3144C82.5308 34.3144 80.9588 34.1281 79.4218 33.7555C77.908 33.3829 76.6854 32.9171 75.7539 32.3582L77.745 27.817C78.63 28.3526 79.6663 28.7834 80.854 29.1095C82.0417 29.4122 83.2061 29.5636 84.3472 29.5636C85.4651 29.5636 86.2336 29.4471 86.6528 29.2143C87.0953 28.9814 87.3165 28.667 87.3165 28.2711C87.3165 27.8985 87.1069 27.6307 86.6877 27.4676C86.2918 27.2813 85.7562 27.1416 85.0808 27.0485C84.4288 26.9553 83.7068 26.8505 82.915 26.7341C82.1232 26.6176 81.3198 26.4662 80.5047 26.2799C79.7129 26.0703 78.9793 25.7676 78.3039 25.3717C77.6519 24.9525 77.1279 24.3936 76.732 23.6949C76.3361 22.9963 76.1381 22.1113 76.1381 21.0401C76.1381 19.8291 76.4875 18.7578 77.1861 17.8263C77.908 16.8715 78.956 16.1263 80.33 15.5906C81.704 15.0317 83.3808 14.7523 85.3603 14.7523C86.6877 14.7523 88.0268 14.892 89.3775 15.1714C90.7515 15.4276 91.9043 15.8235 92.8358 16.3591L90.8447 20.8654C89.9131 20.3298 88.9816 19.9688 88.0501 19.7825C87.1185 19.5729 86.2336 19.4681 85.3952 19.4681C84.2774 19.4681 83.4856 19.5962 83.0198 19.8524C82.5773 20.1086 82.3561 20.4229 82.3561 20.7956C82.3561 21.1682 82.5541 21.4593 82.95 21.6689C83.3459 21.8552 83.8698 22.0065 84.5219 22.123C85.1973 22.2161 85.9308 22.3209 86.7226 22.4374C87.5144 22.5305 88.3063 22.6819 89.0981 22.8915C89.9131 23.1011 90.6467 23.4155 91.2988 23.8347C91.9742 24.2306 92.5098 24.7778 92.9057 25.4765C93.3016 26.1519 93.4995 27.0252 93.4995 28.0964C93.4995 29.2608 93.1386 30.3088 92.4166 31.2403C91.718 32.1719 90.67 32.9171 89.2727 33.476C87.8987 34.0349 86.187 34.3144 84.1377 34.3144ZM96.3596 34V15.0666H102.682V20.586L101.739 19.014C102.298 17.5934 103.206 16.5338 104.464 15.8352C105.722 15.1132 107.247 14.7523 109.04 14.7523V20.7257C108.737 20.6791 108.47 20.6558 108.237 20.6558C108.027 20.6325 107.794 20.6209 107.538 20.6209C106.187 20.6209 105.093 20.9935 104.254 21.7387C103.416 22.4607 102.997 23.6484 102.997 25.3018V34H96.3596ZM119.812 34.3144C118.275 34.3144 116.889 34.0116 115.655 33.4061C114.444 32.8007 113.489 31.8575 112.79 30.5766C112.115 29.2725 111.777 27.6307 111.777 25.6512V15.0666H118.415V24.5683C118.415 26.0354 118.682 27.0834 119.218 27.7122C119.777 28.341 120.557 28.6553 121.558 28.6553C122.21 28.6553 122.804 28.504 123.34 28.2012C123.876 27.8985 124.306 27.4211 124.632 26.769C124.959 26.0936 125.122 25.232 125.122 24.184V15.0666H131.759V34H125.436V28.6553L126.659 30.1574C126.006 31.5547 125.063 32.6027 123.829 33.3014C122.595 33.9767 121.256 34.3144 119.812 34.3144ZM147.946 34.3144C146.339 34.3144 144.965 33.9651 143.824 33.2664C142.683 32.5445 141.809 31.4732 141.204 30.0526C140.622 28.6088 140.33 26.769 140.33 24.5333C140.33 22.2744 140.61 20.4346 141.169 19.014C141.728 17.5701 142.566 16.4989 143.684 15.8002C144.825 15.1016 146.246 14.7523 147.946 14.7523C149.669 14.7523 151.229 15.1598 152.627 15.9749C154.047 16.7667 155.165 17.8962 155.98 19.3633C156.819 20.8072 157.238 22.5305 157.238 24.5333C157.238 26.5361 156.819 28.2711 155.98 29.7382C155.165 31.2054 154.047 32.3349 152.627 33.1267C151.229 33.9185 149.669 34.3144 147.946 34.3144ZM136.034 40.7769V15.0666H142.357V18.2804L142.322 24.5333L142.671 30.8212V40.7769H136.034ZM146.548 29.0396C147.294 29.0396 147.957 28.8649 148.54 28.5156C149.145 28.1663 149.623 27.6539 149.972 26.9786C150.344 26.3032 150.531 25.4881 150.531 24.5333C150.531 23.5785 150.344 22.7634 149.972 22.0881C149.623 21.4127 149.145 20.9004 148.54 20.551C147.957 20.2017 147.294 20.027 146.548 20.027C145.803 20.027 145.128 20.2017 144.522 20.551C143.94 20.9004 143.463 21.4127 143.09 22.0881C142.741 22.7634 142.566 23.5785 142.566 24.5333C142.566 25.4881 142.741 26.3032 143.09 26.9786C143.463 27.6539 143.94 28.1663 144.522 28.5156C145.128 28.8649 145.803 29.0396 146.548 29.0396ZM168.776 34.3144C166.354 34.3144 164.468 33.7205 163.117 32.5328C161.767 31.3219 161.091 29.5054 161.091 27.0834V10.8398H167.728V27.0135C167.728 27.6889 167.915 28.2245 168.287 28.6204C168.66 28.993 169.137 29.1793 169.72 29.1793C170.511 29.1793 171.187 28.9814 171.746 28.5855L173.387 33.2315C172.829 33.6041 172.142 33.8719 171.326 34.0349C170.511 34.2212 169.661 34.3144 168.776 34.3144ZM158.332 20.7257V15.7653H172.06V20.7257H158.332Z" fill="white"/>
<path d="M206.895 65.2982H0.719482V104H206.895V65.2982Z" fill="#F6F2EF"/>
<path d="M10.041 93.5507V69.098H21.6036C24.305 69.098 26.6804 69.5987 28.7298 70.6001C30.7792 71.6015 32.3744 73.0104 33.5155 74.8269C34.6799 76.6434 35.2622 78.8092 35.2622 81.3243C35.2622 83.8162 34.6799 85.982 33.5155 87.8217C32.3744 89.6382 30.7792 91.0472 28.7298 92.0486C26.6804 93.05 24.305 93.5507 21.6036 93.5507H10.041ZM16.9576 88.0313H21.3241C22.7214 88.0313 23.9324 87.7752 24.9571 87.2628C26.0051 86.7272 26.8202 85.9587 27.4024 84.9573C27.9846 83.9326 28.2757 82.7216 28.2757 81.3243C28.2757 79.9037 27.9846 78.6927 27.4024 77.6914C26.8202 76.69 26.0051 75.9331 24.9571 75.4207C23.9324 74.8851 22.7214 74.6173 21.3241 74.6173H16.9576V88.0313ZM38.5867 93.5507V74.6173H45.2239V93.5507H38.5867ZM41.9053 72.5214C40.6943 72.5214 39.7162 72.1837 38.971 71.5083C38.2258 70.833 37.8532 69.9946 37.8532 68.9932C37.8532 67.9918 38.2258 67.1534 38.971 66.4781C39.7162 65.8027 40.6943 65.465 41.9053 65.465C43.1163 65.465 44.0944 65.7911 44.8396 66.4431C45.5849 67.0719 45.9575 67.887 45.9575 68.8884C45.9575 69.9364 45.5849 70.8097 44.8396 71.5083C44.1177 72.1837 43.1396 72.5214 41.9053 72.5214ZM56.4189 93.8651C54.812 93.8651 53.2401 93.6787 51.703 93.3061C50.1893 92.9335 48.9667 92.4678 48.0351 91.9088L50.0263 87.3676C50.9112 87.9033 51.9476 88.3341 53.1353 88.6601C54.323 88.9629 55.4874 89.1142 56.6285 89.1142C57.7463 89.1142 58.5148 88.9978 58.934 88.7649C59.3765 88.532 59.5977 88.2176 59.5977 87.8217C59.5977 87.4491 59.3882 87.1813 58.969 87.0183C58.5731 86.832 58.0374 86.6923 57.3621 86.5991C56.71 86.506 55.9881 86.4012 55.1963 86.2847C54.4045 86.1683 53.601 86.0169 52.7859 85.8306C51.9941 85.621 51.2606 85.3183 50.5852 84.9224C49.9331 84.5032 49.4091 83.9443 49.0132 83.2456C48.6173 82.547 48.4194 81.662 48.4194 80.5907C48.4194 79.3798 48.7687 78.3085 49.4674 77.377C50.1893 76.4221 51.2373 75.6769 52.6113 75.1413C53.9853 74.5824 55.662 74.3029 57.6415 74.3029C58.969 74.3029 60.308 74.4426 61.6588 74.7221C63.0328 74.9783 64.1855 75.3742 65.1171 75.9098L63.1259 80.4161C62.1944 79.8805 61.2629 79.5195 60.3313 79.3332C59.3998 79.1236 58.5148 79.0188 57.6765 79.0188C56.5586 79.0188 55.7668 79.1469 55.3011 79.403C54.8586 79.6592 54.6374 79.9736 54.6374 80.3462C54.6374 80.7188 54.8353 81.0099 55.2312 81.2195C55.6271 81.4058 56.1511 81.5572 56.8032 81.6736C57.4785 81.7668 58.2121 81.8716 59.0039 81.988C59.7957 82.0812 60.5875 82.2326 61.3793 82.4422C62.1944 82.6518 62.928 82.9661 63.58 83.3853C64.2554 83.7812 64.791 84.3285 65.1869 85.0272C65.5828 85.7025 65.7808 86.5758 65.7808 87.6471C65.7808 88.8115 65.4198 89.8595 64.6979 90.791C63.9992 91.7225 62.9513 92.4678 61.554 93.0267C60.18 93.5856 58.4683 93.8651 56.4189 93.8651ZM68.6409 93.5507V74.6173H74.9636V80.1366L74.0205 78.5647C74.5794 77.1441 75.4876 76.0845 76.7452 75.3858C78.0028 74.6639 79.5281 74.3029 81.3213 74.3029V80.2764C81.0186 80.2298 80.7508 80.2065 80.5179 80.2065C80.3083 80.1832 80.0754 80.1716 79.8192 80.1716C78.4685 80.1716 77.374 80.5442 76.5356 81.2894C75.6972 82.0113 75.278 83.199 75.278 84.8525V93.5507H68.6409ZM92.0931 93.8651C90.556 93.8651 89.1704 93.5623 87.9361 92.9568C86.7251 92.3513 85.7703 91.4081 85.0716 90.1273C84.3963 88.8231 84.0586 87.1813 84.0586 85.2018V74.6173H90.6958V84.1189C90.6958 85.5861 90.9636 86.634 91.4992 87.2628C92.0581 87.8916 92.8383 88.206 93.8397 88.206C94.4917 88.206 95.0856 88.0546 95.6212 87.7519C96.1569 87.4491 96.5877 86.9717 96.9137 86.3197C97.2398 85.6443 97.4028 84.7826 97.4028 83.7347V74.6173H104.04V93.5507H97.7172V88.206L98.9398 89.7081C98.2877 91.1054 97.3446 92.1534 96.1103 92.852C94.876 93.5274 93.5369 93.8651 92.0931 93.8651ZM120.227 93.8651C118.62 93.8651 117.246 93.5157 116.105 92.8171C114.964 92.0951 114.091 91.0239 113.485 89.6033C112.903 88.1594 112.612 86.3197 112.612 84.084C112.612 81.825 112.891 79.9852 113.45 78.5647C114.009 77.1208 114.847 76.0495 115.965 75.3509C117.106 74.6522 118.527 74.3029 120.227 74.3029C121.95 74.3029 123.511 74.7105 124.908 75.5255C126.329 76.3173 127.446 77.4468 128.261 78.914C129.1 80.3579 129.519 82.0812 129.519 84.084C129.519 86.0868 129.1 87.8217 128.261 89.2889C127.446 90.7561 126.329 91.8855 124.908 92.6773C123.511 93.4692 121.95 93.8651 120.227 93.8651ZM108.315 100.328V74.6173H114.638V77.8311L114.603 84.084L114.952 90.3718V100.328H108.315ZM118.83 88.5903C119.575 88.5903 120.239 88.4156 120.821 88.0663C121.426 87.717 121.904 87.2046 122.253 86.5292C122.626 85.8539 122.812 85.0388 122.812 84.084C122.812 83.1292 122.626 82.3141 122.253 81.6387C121.904 80.9634 121.426 80.451 120.821 80.1017C120.239 79.7524 119.575 79.5777 118.83 79.5777C118.084 79.5777 117.409 79.7524 116.804 80.1017C116.221 80.451 115.744 80.9634 115.371 81.6387C115.022 82.3141 114.847 83.1292 114.847 84.084C114.847 85.0388 115.022 85.8539 115.371 86.5292C115.744 87.2046 116.221 87.717 116.804 88.0663C117.409 88.4156 118.084 88.5903 118.83 88.5903ZM141.058 93.8651C138.636 93.8651 136.749 93.2712 135.399 92.0835C134.048 90.8725 133.372 89.056 133.372 86.634V70.3905H140.01V86.5642C140.01 87.2395 140.196 87.7752 140.569 88.1711C140.941 88.5437 141.419 88.73 142.001 88.73C142.793 88.73 143.468 88.532 144.027 88.1361L145.669 92.7821C145.11 93.1548 144.423 93.4226 143.608 93.5856C142.793 93.7719 141.943 93.8651 141.058 93.8651ZM130.613 80.2764V75.316H144.341V80.2764H130.613ZM157.603 93.8651C155.367 93.8651 153.411 93.4459 151.734 92.6075C150.081 91.7458 148.788 90.5814 147.857 89.1142C146.949 87.6238 146.495 85.9354 146.495 84.049C146.495 82.1627 146.937 80.4859 147.822 79.0188C148.73 77.5283 149.976 76.3756 151.56 75.5605C153.143 74.7221 154.925 74.3029 156.904 74.3029C158.767 74.3029 160.467 74.6872 162.005 75.4557C163.542 76.2009 164.764 77.3071 165.672 78.7743C166.581 80.2414 167.035 82.023 167.035 84.1189C167.035 84.3518 167.023 84.6196 167 84.9224C166.977 85.2251 166.953 85.5046 166.93 85.7607H151.944V82.2675H163.402L160.887 83.2456C160.91 82.3839 160.747 81.6387 160.398 81.0099C160.072 80.3811 159.606 79.8921 159 79.5428C158.418 79.1934 157.731 79.0188 156.939 79.0188C156.148 79.0188 155.449 79.1934 154.843 79.5428C154.261 79.8921 153.807 80.3928 153.481 81.0449C153.155 81.6736 152.992 82.4189 152.992 83.2805V84.2936C152.992 85.2251 153.178 86.0286 153.551 86.7039C153.947 87.3793 154.506 87.9033 155.228 88.2759C155.95 88.6252 156.811 88.7999 157.813 88.7999C158.744 88.7999 159.536 88.6718 160.188 88.4156C160.863 88.1361 161.527 87.7169 162.179 87.158L165.672 90.791C164.764 91.7924 163.646 92.5609 162.319 93.0965C160.991 93.6089 159.42 93.8651 157.603 93.8651ZM170.095 93.5507V74.6173H176.418V80.1366L175.474 78.5647C176.033 77.1441 176.942 76.0845 178.199 75.3858C179.457 74.6639 180.982 74.3029 182.775 74.3029V80.2764C182.473 80.2298 182.205 80.2065 181.972 80.2065C181.762 80.1832 181.529 80.1716 181.273 80.1716C179.923 80.1716 178.828 80.5442 177.99 81.2894C177.151 82.0113 176.732 83.199 176.732 84.8525V93.5507H170.095ZM192.464 93.8651C190.857 93.8651 189.285 93.6787 187.748 93.3061C186.235 92.9335 185.012 92.4678 184.08 91.9088L186.072 87.3676C186.957 87.9033 187.993 88.3341 189.181 88.6601C190.368 88.9629 191.533 89.1142 192.674 89.1142C193.792 89.1142 194.56 88.9978 194.979 88.7649C195.422 88.532 195.643 88.2176 195.643 87.8217C195.643 87.4491 195.433 87.1813 195.014 87.0183C194.618 86.832 194.083 86.6923 193.407 86.5991C192.755 86.506 192.033 86.4012 191.242 86.2847C190.45 86.1683 189.646 86.0169 188.831 85.8306C188.039 85.621 187.306 85.3183 186.63 84.9224C185.978 84.5032 185.454 83.9443 185.059 83.2456C184.663 82.547 184.465 81.662 184.465 80.5907C184.465 79.3798 184.814 78.3085 185.513 77.377C186.235 76.4221 187.283 75.6769 188.657 75.1413C190.031 74.5824 191.707 74.3029 193.687 74.3029C195.014 74.3029 196.353 74.4426 197.704 74.7221C199.078 74.9783 200.231 75.3742 201.162 75.9098L199.171 80.4161C198.24 79.8805 197.308 79.5195 196.377 79.3332C195.445 79.1236 194.56 79.0188 193.722 79.0188C192.604 79.0188 191.812 79.1469 191.346 79.403C190.904 79.6592 190.683 79.9736 190.683 80.3462C190.683 80.7188 190.881 81.0099 191.276 81.2195C191.672 81.4058 192.196 81.5572 192.848 81.6736C193.524 81.7668 194.257 81.8716 195.049 81.988C195.841 82.0812 196.633 82.2326 197.425 82.4422C198.24 82.6518 198.973 82.9661 199.625 83.3853C200.301 83.7812 200.836 84.3285 201.232 85.0272C201.628 85.7025 201.826 86.5758 201.826 87.6471C201.826 88.8115 201.465 89.8595 200.743 90.791C200.045 91.7225 198.997 92.4678 197.599 93.0267C196.225 93.5856 194.514 93.8651 192.464 93.8651Z" fill="#071C6D"/>
<path d="M120.284 30.8087L73.5354 43.9171L82.6885 76.5598L129.437 63.4514L120.284 30.8087Z" fill="#FC7E07"/>
<path d="M110.333 36.2203C110.494 36.2433 110.655 36.2892 110.815 36.3581C110.999 36.404 111.148 36.4614 111.263 36.5302C111.401 36.5991 111.47 36.6565 111.47 36.7024C111.47 36.7483 111.412 36.7713 111.297 36.7713H111.194C111.194 36.7942 111.229 36.8172 111.297 36.8402L111.366 36.909C111.366 36.932 111.343 36.9435 111.297 36.9435C111.251 36.9435 111.217 36.9549 111.194 36.9779L111.229 37.0123C111.229 37.0353 111.148 37.0468 110.987 37.0468H110.746C110.471 37.0468 110.322 37.0697 110.299 37.1156C110.299 37.1386 110.253 37.173 110.161 37.219H110.127C110.127 37.219 110.241 37.2419 110.471 37.2878C110.723 37.2878 110.861 37.3108 110.884 37.3567C110.884 37.3797 110.85 37.4026 110.781 37.4256C110.735 37.4485 110.689 37.46 110.643 37.46C110.597 37.46 110.528 37.483 110.436 37.5289C110.368 37.5518 110.31 37.5863 110.264 37.6322C110.172 37.7011 110.069 37.7355 109.954 37.7355H109.748C109.633 37.7355 109.541 37.747 109.472 37.7699L109.403 37.8388C109.403 37.8618 109.426 37.8732 109.472 37.8732C109.495 37.8732 109.564 37.8618 109.679 37.8388C109.771 37.8158 109.84 37.8044 109.886 37.8044C109.908 37.8044 109.92 37.8158 109.92 37.8388L109.817 37.9421C109.817 37.9651 109.851 37.9765 109.92 37.9765C109.943 37.9995 109.954 38.011 109.954 38.011L109.817 38.0454C109.702 38.0684 109.622 38.1028 109.576 38.1487C109.53 38.1717 109.507 38.2176 109.507 38.2865C109.507 38.4242 109.472 38.4931 109.403 38.4931C109.38 38.4931 109.358 38.5046 109.335 38.5275C109.312 38.5275 109.289 38.539 109.266 38.5619C109.266 38.5849 109.254 38.6079 109.231 38.6308C109.231 38.6997 109.185 38.7341 109.093 38.7341H108.887C108.864 38.7341 108.841 38.7341 108.818 38.7341C108.818 38.7341 108.818 38.7456 108.818 38.7686V38.803C108.818 38.826 108.795 38.8374 108.749 38.8374C108.68 38.8374 108.531 38.8719 108.301 38.9407C108.095 39.0096 107.877 39.09 107.647 39.1818C107.441 39.2507 107.303 39.3081 107.234 39.354C107.119 39.3999 107.05 39.4228 107.027 39.4228C106.981 39.4228 106.89 39.4573 106.752 39.5261C106.637 39.595 106.511 39.6754 106.373 39.7672C106.235 39.8361 106.144 39.8935 106.098 39.9394C106.052 39.9623 105.925 40.0197 105.719 40.1116C105.512 40.1804 105.26 40.2608 104.961 40.3526C104.686 40.4444 104.422 40.5248 104.169 40.5937C104.031 40.6166 103.894 40.651 103.756 40.697C103.618 40.7199 103.503 40.7544 103.412 40.8003C103.297 40.8462 103.113 40.9036 102.861 40.9724C102.631 41.0413 102.39 41.1102 102.137 41.1791C101.908 41.2709 101.667 41.3512 101.414 41.4201C101.139 41.5119 100.932 41.5808 100.794 41.6267C100.657 41.6726 100.485 41.73 100.278 41.7989C100.071 41.8678 99.8762 41.9252 99.6925 41.9711C99.5318 42.017 99.3711 42.0744 99.2104 42.1433C99.0497 42.1892 98.912 42.2236 98.7972 42.2466C98.7283 42.2695 98.671 42.2925 98.625 42.3154C98.5103 42.3614 98.4069 42.4073 98.3151 42.4532C98.2233 42.4761 98.1659 42.4876 98.1429 42.4876C98.12 42.4876 98.0855 42.4991 98.0396 42.5221C98.0167 42.5221 97.9937 42.5221 97.9708 42.5221C97.9708 42.5221 97.9708 42.5335 97.9708 42.5565C97.9019 42.5794 97.8101 42.6139 97.6953 42.6598C97.6494 42.6598 97.592 42.6713 97.5231 42.6942C97.4772 42.7172 97.4313 42.7287 97.3854 42.7287C97.3624 42.7516 97.3394 42.7631 97.3165 42.7631C97.2706 42.7861 97.2361 42.7975 97.2132 42.7975C97.0525 42.8664 96.9033 42.9238 96.7655 42.9697C96.6507 43.0156 96.5704 43.0386 96.5245 43.0386H96.4556C96.4097 43.0386 96.3293 43.0615 96.2145 43.1075C96.1227 43.1304 96.0079 43.1649 95.8702 43.2108C95.8013 43.2337 95.7324 43.2567 95.6636 43.2796C95.434 43.3485 95.1929 43.4174 94.9404 43.4863C94.7108 43.5551 94.5157 43.6125 94.355 43.6584L93.804 43.8306L93.7696 44.416C93.7466 44.5767 93.7237 44.7604 93.7007 44.967C93.6778 45.1966 93.6548 45.3917 93.6319 45.5524C93.6089 45.6901 93.5859 45.8508 93.563 46.0345C93.54 46.1952 93.5171 46.3215 93.4941 46.4133C93.4941 46.4822 93.4712 46.6084 93.4252 46.7921C93.4023 46.9528 93.3793 47.1135 93.3564 47.2742C93.2186 48.1466 93.1153 48.8353 93.0464 49.3403C93.0005 49.8224 92.9776 50.2701 92.9776 50.6833C92.9546 50.9588 92.9317 51.3032 92.9087 51.7164C92.9087 52.1067 92.9087 52.4625 92.9087 52.7839C92.8628 53.5644 92.8054 53.9662 92.7365 53.9891L92.6677 54.058C92.6677 54.081 92.6906 54.1039 92.7365 54.1269C92.8054 54.1498 92.8398 54.3565 92.8398 54.7467C92.8398 54.9304 92.8284 55.0567 92.8054 55.1255C92.8054 55.1944 92.7939 55.2288 92.771 55.2288H92.7365L92.6677 55.1944L92.7365 55.2633C92.7365 55.2862 92.7365 55.3207 92.7365 55.3666C92.7595 55.4125 92.771 55.4584 92.771 55.5043V55.6421C92.748 55.688 92.7365 55.7454 92.7365 55.8142C92.7365 55.8831 92.748 55.952 92.771 56.0209C92.7939 56.1127 92.8054 56.2504 92.8054 56.4341C92.8054 56.5718 92.7939 56.721 92.771 56.8817C92.771 57.0424 92.7595 57.1802 92.7365 57.295C92.7136 57.4098 92.6906 57.4672 92.6677 57.4672C92.6447 57.4672 92.6217 57.5475 92.5988 57.7082C92.5988 57.8689 92.5988 58.0755 92.5988 58.328C92.5758 58.6035 92.5529 58.879 92.5299 59.1545C92.5299 59.407 92.5299 59.5907 92.5299 59.7055C92.5299 59.8891 92.5184 60.1187 92.4955 60.3942C92.4725 60.6467 92.4496 60.8878 92.4266 61.1173C92.4036 61.3469 92.3807 61.4961 92.3577 61.565V61.6683H92.3922C92.461 61.6683 92.4955 61.9094 92.4955 62.3915C92.4496 62.8276 92.4151 63.0457 92.3922 63.0457L92.3577 63.0113V63.459C92.3807 63.6197 92.3922 63.7345 92.3922 63.8033C92.3922 63.8492 92.3807 63.8722 92.3577 63.8722L92.3233 63.8378C92.3233 63.8378 92.3118 63.9066 92.2889 64.0444C92.2659 64.2051 92.2544 64.3887 92.2544 64.5953C92.2544 64.9397 92.2429 65.1922 92.22 65.3529C92.197 65.5136 92.1511 65.6399 92.0822 65.7317C91.9904 65.8695 91.933 65.9383 91.9101 65.9383V65.8695C91.9101 65.8236 91.8986 65.7776 91.8756 65.7317C91.8527 65.7088 91.8297 65.6973 91.8068 65.6973C91.7608 65.6973 91.7264 65.7088 91.7035 65.7317C91.6805 65.7776 91.669 65.858 91.669 65.9728C91.669 65.9957 91.669 66.0187 91.669 66.0416C91.669 66.1564 91.6346 66.2023 91.5657 66.1794C91.5198 66.1794 91.4739 66.1679 91.428 66.145C91.405 66.122 91.3935 66.0761 91.3935 66.0072L91.3591 65.7662L91.118 66.0416L90.9114 66.2827L90.7737 65.9728C90.7278 65.835 90.6819 65.7662 90.6359 65.7662C90.613 65.7662 90.6015 65.7776 90.6015 65.8006C90.5786 65.8236 90.5441 65.835 90.4982 65.835C90.4752 65.835 90.4293 65.8236 90.3605 65.8006C90.2916 65.7776 90.2342 65.7432 90.1883 65.6973C90.1653 65.6743 90.1538 65.6514 90.1538 65.6284C90.1538 65.6055 90.1309 65.5825 90.085 65.5595C90.062 65.5366 90.0391 65.5251 90.0161 65.5251C89.9702 65.5251 89.9358 65.5136 89.9128 65.4907C89.8898 65.4677 89.8669 65.4448 89.8439 65.4218C89.821 65.3759 89.7865 65.3415 89.7406 65.3185C89.6947 65.2955 89.6603 65.2841 89.6373 65.2841C89.5914 65.2841 89.5455 65.2611 89.4996 65.2152C89.4537 65.1693 89.4307 65.1119 89.4307 65.043L89.3963 64.8364C89.3963 64.5839 89.4192 64.1706 89.4651 63.5967C89.534 63.0457 89.6144 62.5522 89.7062 62.116C89.798 61.6339 89.8784 60.6238 89.9472 59.0856C90.0391 57.5245 90.0965 55.952 90.1194 54.3679C90.1194 53.4726 90.1194 52.7724 90.1194 52.2674C90.1424 51.7393 90.1653 51.2802 90.1883 50.8899C90.2112 50.4997 90.2457 50.0405 90.2916 49.5125C90.2916 49.3977 90.3031 49.2715 90.326 49.1337C90.349 48.6975 90.3834 48.2269 90.4293 47.7218C90.4293 47.5382 90.4408 47.366 90.4638 47.2053C90.4867 46.9298 90.5097 46.6543 90.5326 46.3789C90.5556 46.1034 90.59 45.8853 90.6359 45.7246C90.6819 45.472 90.7163 45.231 90.7393 45.0014C90.7852 44.7489 90.8081 44.5538 90.8081 44.416C90.8081 44.3012 90.7966 44.2438 90.7737 44.2438C90.7507 44.2668 90.7163 44.2898 90.6704 44.3127C90.6015 44.3127 90.5441 44.3357 90.4982 44.3816C90.3145 44.4734 90.1079 44.5538 89.8784 44.6226C89.6717 44.6685 89.5225 44.6915 89.4307 44.6915H89.293C89.293 44.7145 89.3044 44.7374 89.3274 44.7604V44.8292H89.1208C89.0519 44.8292 89.0289 44.8637 89.0519 44.9326V45.0014C89.0519 45.0244 89.0404 45.0359 89.0175 45.0359H88.8453C88.7764 45.0359 88.7075 45.0588 88.6387 45.1047C88.5928 45.1506 88.5468 45.1736 88.5009 45.1736L88.4665 45.1392C88.4435 45.1162 88.4091 45.1047 88.3632 45.1047C88.2484 45.1047 88.1107 45.1506 87.95 45.2425C87.7663 45.3113 87.6286 45.3917 87.5367 45.4835C87.399 45.5983 87.2842 45.6557 87.1924 45.6557C87.1465 45.6557 87.0891 45.6787 87.0202 45.7246C86.9513 45.7475 86.871 45.782 86.7791 45.8279C86.6873 45.8738 86.5725 45.9197 86.4348 45.9656C86.297 46.0115 86.1708 46.0575 86.056 46.1034C85.9412 46.1493 85.8494 46.1952 85.7805 46.2411C85.7116 46.2641 85.6772 46.287 85.6772 46.31L85.7116 46.3444C85.7116 46.3674 85.7116 46.3789 85.7116 46.3789C85.7116 46.3789 85.7002 46.3789 85.6772 46.3789H85.5739C85.505 46.3789 85.4132 46.4133 85.2984 46.4822C85.1607 46.551 85.0688 46.6199 85.0229 46.6888C85 46.7117 84.977 46.7347 84.9541 46.7576C84.9311 46.7576 84.9081 46.7576 84.8852 46.7576H84.8507C84.7819 46.7576 84.69 46.7806 84.5753 46.8265C84.4605 46.8724 84.3572 46.9298 84.2653 46.9987C84.1735 47.0676 84.1276 47.1135 84.1276 47.1364V47.1709H84.0587C84.0128 47.1709 83.9439 47.1824 83.8521 47.2053C83.7373 47.2283 83.634 47.2512 83.5422 47.2742C83.3585 47.3431 83.1519 47.4004 82.9223 47.4464C82.6928 47.4693 82.5091 47.4808 82.3714 47.4808C82.2795 47.4808 82.2336 47.4693 82.2336 47.4464C82.2336 47.4234 82.2222 47.4004 82.1992 47.3775C82.1533 47.3545 82.1074 47.3316 82.0615 47.3086C82.0155 47.3086 81.9467 47.2742 81.8548 47.2053C81.763 47.1364 81.6712 47.0561 81.5794 46.9643C81.4875 46.8954 81.4187 46.838 81.3727 46.7921C81.3039 46.7462 81.258 46.7232 81.235 46.7232C81.1891 46.7232 81.1661 46.7117 81.1661 46.6888C81.1661 46.6429 81.1661 46.5969 81.1661 46.551C81.1432 46.5051 81.1317 46.4362 81.1317 46.3444C81.1087 46.2526 81.0973 46.1608 81.0973 46.0689C81.0743 45.9771 81.0628 45.8853 81.0628 45.7934C81.0628 45.7016 81.0743 45.6213 81.0973 45.5524C81.0973 45.4835 81.1087 45.4147 81.1317 45.3458C81.1546 45.2769 81.1891 45.231 81.235 45.208C81.258 45.1621 81.2924 45.1162 81.3383 45.0703C81.3613 45.0244 81.3842 44.9785 81.4072 44.9326C81.4072 44.8178 81.522 44.7719 81.7515 44.7948C81.9352 44.7719 82.1418 44.7145 82.3714 44.6226C82.6009 44.5078 82.7502 44.4045 82.819 44.3127C82.842 44.2898 82.8535 44.2668 82.8535 44.2438C82.8764 44.2209 82.8994 44.2094 82.9223 44.2094C82.9453 44.1864 82.9683 44.175 82.9912 44.175C83.0601 44.175 83.1519 44.1635 83.2667 44.1405C83.3585 44.1176 83.4504 44.0946 83.5422 44.0717C83.6111 44.0257 83.6455 43.9913 83.6455 43.9684C83.6455 43.9454 83.6685 43.9339 83.7144 43.9339C83.7373 43.911 83.7718 43.8995 83.8177 43.8995C83.8406 43.8995 83.8751 43.888 83.921 43.865C83.9669 43.8421 84.0013 43.8191 84.0243 43.7962C84.0472 43.7732 84.0817 43.7617 84.1276 43.7617C84.1506 43.7388 84.185 43.7273 84.2309 43.7273C84.2539 43.7273 84.2768 43.7273 84.2998 43.7273C84.3227 43.7043 84.3457 43.6929 84.3686 43.6929C84.3686 43.6929 84.3801 43.6929 84.4031 43.6929C84.4031 43.6699 84.4031 43.6584 84.4031 43.6584C84.4031 43.6125 84.4146 43.5896 84.4375 43.5896C84.4605 43.5666 84.4949 43.5551 84.5408 43.5551C84.5638 43.5551 84.6556 43.5322 84.8163 43.4863C84.9541 43.4174 85.1033 43.3485 85.264 43.2796C85.4247 43.1878 85.5854 43.1189 85.7461 43.073C85.9068 43.0271 86.0101 43.0042 86.056 43.0042H86.1937V42.9697C86.1937 42.9238 86.1937 42.9008 86.1937 42.9008C86.1937 42.8779 86.2167 42.8664 86.2626 42.8664H86.4004C86.5611 42.8664 86.6299 42.832 86.607 42.7631V42.5909C86.607 42.5909 86.6184 42.6139 86.6414 42.6598C86.6644 42.6828 86.6988 42.6942 86.7447 42.6942C86.8825 42.6942 87.1809 42.6139 87.64 42.4532C88.4665 42.1777 89.0978 41.9711 89.534 41.8333C89.9702 41.6726 90.326 41.5579 90.6015 41.489C90.7622 41.4431 90.9 41.3972 91.0147 41.3512C91.1295 41.3053 91.1869 41.2709 91.1869 41.2479V41.2135C91.1869 41.1905 91.1984 41.1791 91.2214 41.1791C91.2443 41.1561 91.2673 41.1331 91.2902 41.1102C91.2902 41.1102 91.3017 41.1102 91.3247 41.1102H91.4624C91.4624 41.1331 91.428 41.1561 91.3591 41.1791L91.2902 41.2479L91.3247 41.2824C91.3476 41.2824 91.3935 41.2709 91.4624 41.2479C91.5083 41.225 91.5657 41.2135 91.6346 41.2135C91.7035 41.1905 91.7608 41.1791 91.8068 41.1791H91.8756C91.8756 41.1561 91.8527 41.1331 91.8068 41.1102L91.7379 41.0413C91.7379 41.0413 91.7723 41.0528 91.8412 41.0758H91.8756C91.9675 41.0758 92.0822 41.0643 92.22 41.0413C92.3577 41.0184 92.4955 40.9954 92.6332 40.9724C92.7939 40.9265 92.9202 40.8921 93.012 40.8691C93.1268 40.8232 93.1842 40.7888 93.1842 40.7658C93.1612 40.7429 93.1498 40.7314 93.1498 40.7314C93.1498 40.6625 93.299 40.5937 93.5974 40.5248C93.6433 40.5248 93.7122 40.5133 93.804 40.4903C93.8959 40.4674 93.9877 40.4444 94.0795 40.4215C94.2632 40.3526 94.4009 40.3182 94.4927 40.3182C94.5846 40.3182 94.6305 40.3411 94.6305 40.387L94.5961 40.4215C94.5961 40.4444 94.6075 40.4559 94.6305 40.4559L94.7682 40.4215C94.8142 40.4215 94.8486 40.4215 94.8715 40.4215C94.8945 40.3985 94.906 40.387 94.906 40.387C94.906 40.3641 94.8945 40.3526 94.8715 40.3526C94.8027 40.3296 94.7682 40.2952 94.7682 40.2493L94.8027 40.2149C94.8256 40.1919 94.8486 40.1804 94.8715 40.1804C94.8945 40.1804 94.9289 40.1919 94.9748 40.2149C95.0208 40.2608 95.0896 40.2837 95.1815 40.2837C95.2963 40.2837 95.3996 40.2723 95.4914 40.2493C95.5832 40.2034 95.6291 40.1575 95.6291 40.1116C95.6291 39.9968 95.6865 39.9509 95.8013 39.9738C95.8472 39.9738 95.8702 39.9853 95.8702 40.0082L95.8013 40.0771C95.7554 40.1001 95.7324 40.123 95.7324 40.146H95.7669C95.8587 40.146 96.1571 40.0771 96.6622 39.9394C96.9836 39.8475 97.2247 39.7787 97.3854 39.7328C97.569 39.6868 97.6838 39.6524 97.7297 39.6295C97.7986 39.6065 97.833 39.5835 97.833 39.5606V39.5261C97.833 39.4802 97.9593 39.4458 98.2118 39.4228C98.3036 39.3999 98.3955 39.3769 98.4873 39.354C98.5791 39.331 98.625 39.3081 98.625 39.2851C98.648 39.2621 98.6824 39.2392 98.7283 39.2162C98.7972 39.1933 98.8661 39.1818 98.935 39.1818C99.0497 39.1818 99.2564 39.1474 99.5548 39.0785C99.8762 39.0096 100.404 38.8719 101.139 38.6653C101.3 38.6193 101.46 38.5734 101.621 38.5275C101.805 38.4816 101.942 38.4472 102.034 38.4242C102.103 38.3783 102.195 38.3439 102.31 38.3209C102.424 38.2979 102.528 38.275 102.62 38.252C102.711 38.2061 102.803 38.1717 102.895 38.1487C102.987 38.1258 103.056 38.1143 103.102 38.1143C103.125 38.1143 103.205 38.0913 103.343 38.0454C103.412 37.9995 103.492 37.9651 103.584 37.9421C103.676 37.8962 103.813 37.8388 103.997 37.7699C104.204 37.7011 104.422 37.6437 104.651 37.5977C105.96 37.2304 106.798 36.9779 107.165 36.8402C107.234 36.7942 107.303 36.7598 107.372 36.7369C107.464 36.7139 107.532 36.7024 107.578 36.7024C107.624 36.7024 107.762 36.6795 107.992 36.6335C108.244 36.5876 108.531 36.5302 108.852 36.4614C108.99 36.4384 109.128 36.4155 109.266 36.3925C109.495 36.3466 109.702 36.3121 109.886 36.2892C110.092 36.2433 110.241 36.2203 110.333 36.2203ZM87.6056 42.4187C87.5597 42.4187 87.5367 42.3958 87.5367 42.3499C87.5367 42.3269 87.5482 42.304 87.5712 42.281C87.5941 42.2351 87.6286 42.2007 87.6745 42.1777C87.7663 42.1547 87.8352 42.1433 87.8811 42.1433C87.904 42.1433 87.9155 42.1547 87.9155 42.1777C87.9155 42.2007 87.8926 42.2351 87.8467 42.281C87.8007 42.3269 87.7548 42.3614 87.7089 42.3843C87.663 42.4073 87.6286 42.4187 87.6056 42.4187ZM88.3288 42.1088C88.2828 42.1318 88.2599 42.1433 88.2599 42.1433C88.2369 42.1203 88.2599 42.0629 88.3288 41.9711L88.3976 41.9022L88.4321 41.9366C88.4321 41.9596 88.4206 41.994 88.3976 42.04C88.3747 42.0629 88.3517 42.0859 88.3288 42.1088ZM89.1552 41.8333C89.1093 41.8563 89.0749 41.8678 89.0519 41.8678C89.0289 41.8678 89.0175 41.8563 89.0175 41.8333C89.0175 41.8104 89.0519 41.7874 89.1208 41.7645C89.1437 41.7415 89.1667 41.73 89.1896 41.73C89.2126 41.73 89.2356 41.73 89.2585 41.73C89.2585 41.73 89.2585 41.7415 89.2585 41.7645C89.2585 41.7645 89.247 41.7759 89.2241 41.7989C89.2011 41.7989 89.1782 41.8104 89.1552 41.8333ZM90.877 41.3168H90.8426C90.7737 41.2938 90.7393 41.2709 90.7393 41.2479C90.7393 41.202 90.7966 41.1791 90.9114 41.1791C90.9344 41.1791 90.9459 41.1905 90.9459 41.2135C90.9688 41.2135 90.9803 41.225 90.9803 41.2479V41.2824C90.9573 41.3053 90.9344 41.3168 90.9114 41.3168C90.9114 41.3168 90.9 41.3168 90.877 41.3168ZM92.9776 40.7658V40.8003C92.9776 40.8232 92.9202 40.8347 92.8054 40.8347C92.6677 40.8347 92.5988 40.8232 92.5988 40.8003C92.5988 40.7773 92.6562 40.7544 92.771 40.7314C92.7939 40.7084 92.8284 40.697 92.8743 40.697C92.9202 40.697 92.9546 40.7199 92.9776 40.7658ZM96.5245 39.8705C96.5015 39.8705 96.4671 39.8705 96.4212 39.8705C96.3982 39.8705 96.3752 39.859 96.3523 39.8361C96.3752 39.8131 96.3867 39.8016 96.3867 39.8016C96.4097 39.8016 96.4326 39.8016 96.4556 39.8016L96.5589 39.8361L96.5245 39.8705ZM96.9377 39.8016C96.9147 39.8016 96.8918 39.8016 96.8688 39.8016C96.8459 39.7787 96.8344 39.7672 96.8344 39.7672C96.8344 39.7442 96.8459 39.7328 96.8688 39.7328C96.8918 39.7098 96.9147 39.6868 96.9377 39.6639C96.9606 39.6639 96.9721 39.6639 96.9721 39.6639C96.9951 39.6639 97.0066 39.6754 97.0066 39.6983C97.0066 39.7213 96.9951 39.7442 96.9721 39.7672C96.9721 39.7902 96.9606 39.8016 96.9377 39.8016ZM97.6953 39.4917L97.6608 39.5606C97.6379 39.5606 97.6149 39.5721 97.592 39.595C97.569 39.618 97.5461 39.6295 97.5231 39.6295C97.5001 39.6295 97.4887 39.618 97.4887 39.595C97.4887 39.5721 97.4887 39.5606 97.4887 39.5606C97.4887 39.5376 97.4887 39.5261 97.4887 39.5261C97.4887 39.5261 97.5001 39.5261 97.5231 39.5261C97.5461 39.5032 97.569 39.4917 97.592 39.4917C97.6149 39.4688 97.6379 39.4573 97.6608 39.4573C97.6838 39.4573 97.6953 39.4688 97.6953 39.4917ZM98.3603 60.7041C98.3374 60.7041 98.3144 60.6926 98.2914 60.6697C98.2914 60.6697 98.2914 60.6582 98.2914 60.6352C98.2914 60.6123 98.3029 60.5893 98.3259 60.5664L98.3947 60.6008C98.3947 60.6238 98.3947 60.6467 98.3947 60.6697C98.3947 60.6926 98.3833 60.7041 98.3603 60.7041ZM98.4981 60.3942L98.4636 60.2909H98.4981L98.5325 60.3598C98.5325 60.3827 98.5325 60.3942 98.5325 60.3942C98.5325 60.3942 98.521 60.3942 98.4981 60.3942ZM96.2942 65.0086C96.2253 64.9856 96.1679 64.9627 96.122 64.9397C96.099 64.9397 96.0761 64.9397 96.0531 64.9397C96.0302 64.9397 96.0187 64.9397 96.0187 64.9397C95.9957 64.9397 95.9728 64.9282 95.9498 64.9053C95.9269 64.8823 95.9039 64.8594 95.8809 64.8364C95.858 64.8364 95.8465 64.8479 95.8465 64.8708C95.8235 64.8708 95.8006 64.8708 95.7776 64.8708C95.7317 64.8938 95.6858 64.9053 95.6399 64.9053C95.594 64.9053 95.5595 64.9053 95.5366 64.9053C95.5136 64.9053 95.5021 64.8938 95.5021 64.8708C95.4792 64.8708 95.4677 64.8594 95.4677 64.8364C95.4448 64.8364 95.4333 64.8249 95.4333 64.802C95.4103 64.802 95.3874 64.802 95.3644 64.802C95.3414 64.802 95.307 64.802 95.2611 64.802L95.1578 64.8364C95.1119 64.8364 95.0889 64.8249 95.0889 64.802C95.066 64.802 95.043 64.7905 95.02 64.7675C94.9971 64.7446 94.9627 64.7216 94.9167 64.6987C94.8938 64.6987 94.8708 64.6757 94.8479 64.6298C94.8249 64.5839 94.802 64.5265 94.779 64.4576C94.756 64.3658 94.7216 64.2739 94.6757 64.1821C94.6298 64.1132 94.5724 64.0788 94.5035 64.0788C94.4806 64.0788 94.4691 64.0788 94.4691 64.0788C94.4461 64.0788 94.4346 64.0673 94.4346 64.0444C94.4346 64.0444 94.4232 64.0214 94.4002 63.9755C94.3543 63.9525 94.3199 63.9181 94.2969 63.8722C94.251 63.8263 94.2051 63.7804 94.1592 63.7345C94.1132 63.6885 94.0903 63.6541 94.0903 63.6311C94.0903 63.0802 94.1362 62.6555 94.228 62.357C94.2739 62.1734 94.2969 62.0012 94.2969 61.8405C94.3199 61.8175 94.3313 61.7831 94.3313 61.7372C94.3313 61.7142 94.3428 61.6913 94.3658 61.6683L94.9512 58.638C94.9741 58.5921 94.9971 58.5232 95.02 58.4314C95.02 58.3395 95.0315 58.2477 95.0545 58.1559C95.0545 58.064 95.066 57.9952 95.0889 57.9493C95.0889 57.8804 95.1004 57.8459 95.1234 57.8459C95.1922 57.5934 95.2496 57.4098 95.2955 57.295C95.3185 57.1802 95.33 57.0884 95.33 57.0195C95.33 56.9506 95.3414 56.8703 95.3644 56.7784C95.3644 56.7555 95.3644 56.7096 95.3644 56.6407C95.4103 56.4111 95.4448 56.216 95.4677 56.0553C95.4907 55.8028 95.5366 55.6765 95.6055 55.6765V55.5043C95.6055 55.4814 95.6055 55.4699 95.6055 55.4699C95.6055 55.4699 95.6169 55.4699 95.6399 55.4699C95.6399 55.4699 95.6514 55.4699 95.6743 55.4699C95.6743 55.4469 95.6743 55.4354 95.6743 55.4354C95.6743 55.4125 95.6743 55.3895 95.6743 55.3666C95.6743 55.3666 95.6858 55.3321 95.7088 55.2633C95.7088 55.1944 95.7202 55.114 95.7432 55.0222C95.7432 54.9304 95.7432 54.85 95.7432 54.7812C95.8121 54.5746 95.8465 54.4253 95.8465 54.3335C95.8465 54.2646 95.858 54.2187 95.8809 54.1958C95.8809 54.1728 95.8924 54.1384 95.9154 54.0925C95.9154 54.0695 95.9269 54.0465 95.9498 54.0236C95.9498 54.0006 95.9498 53.9547 95.9498 53.8858C95.9957 53.6792 96.0416 53.5415 96.0876 53.4726C96.0876 53.4267 96.0876 53.3923 96.0876 53.3693C96.1105 53.3463 96.122 53.3119 96.122 53.266C96.122 53.1971 96.122 53.1512 96.122 53.1283C96.122 53.1053 96.122 53.0938 96.122 53.0938C96.1449 53.0709 96.1679 53.0479 96.1909 53.0249L96.1564 52.9905C96.1564 52.9676 96.1564 52.9561 96.1564 52.9561C96.1564 52.9331 96.1679 52.9216 96.1909 52.9216C96.2597 52.6691 96.2942 52.4855 96.2942 52.3707C96.3171 52.2329 96.3401 52.1411 96.363 52.0952C96.363 52.0722 96.363 52.0493 96.363 52.0263C96.363 52.0034 96.363 51.9919 96.363 51.9919C96.386 51.9689 96.409 51.946 96.4319 51.923L96.5008 51.3032L96.4319 51.1654C96.4319 51.1884 96.4319 51.1999 96.4319 51.1999C96.4549 51.2228 96.4663 51.2343 96.4663 51.2343C96.4663 51.2343 96.4663 51.2458 96.4663 51.2687C96.4893 51.2687 96.5123 51.2687 96.5352 51.2687C96.5811 51.2687 96.6156 51.2113 96.6385 51.0965C96.6615 50.9818 96.673 50.844 96.673 50.6833C96.6959 50.4767 96.7304 50.293 96.7763 50.1323C96.8222 49.9257 96.8566 49.7765 96.8796 49.6847C96.9025 49.5699 96.9255 49.4895 96.9484 49.4436C96.9714 49.3748 96.9829 49.3059 96.9829 49.237C97.0058 49.1681 97.0288 49.0763 97.0518 48.9615C97.0747 48.8467 97.0977 48.6746 97.1206 48.445C97.1206 48.3991 97.1321 48.3302 97.1551 48.2384C97.178 48.1236 97.201 48.0203 97.2239 47.9285C97.2469 47.8137 97.2698 47.7448 97.2928 47.7218L97.2584 47.5497C97.2813 47.5497 97.3043 47.4923 97.3272 47.3775C97.3732 47.2397 97.4076 47.102 97.4305 46.9643C97.4535 46.8036 97.465 46.6658 97.465 46.551C97.4879 46.4133 97.4994 46.3444 97.4994 46.3444C97.4994 46.1837 97.5224 46.046 97.5683 45.9312C97.5912 45.8394 97.6142 45.759 97.6372 45.6901L97.6027 45.5868C97.6027 45.5639 97.6027 45.5409 97.6027 45.518C97.6257 45.472 97.6372 45.4261 97.6372 45.3802C97.6601 45.3343 97.6716 45.2999 97.6716 45.2769C97.6946 45.254 97.706 45.2425 97.706 45.2425C97.729 45.0129 97.7519 44.8292 97.7749 44.6915C97.7979 44.5997 97.8093 44.5078 97.8093 44.416C97.8323 44.3012 97.8438 44.1405 97.8438 43.9339C97.8438 43.888 97.8438 43.8536 97.8438 43.8306C97.8438 43.7847 97.8323 43.7617 97.8093 43.7617C97.8093 43.7847 97.8093 43.7962 97.8093 43.7962C97.8093 43.7962 97.7979 43.7962 97.7749 43.7962C97.7749 43.7962 97.7749 43.8077 97.7749 43.8306C97.7749 43.8306 97.7634 43.8421 97.7405 43.865C97.7405 43.865 97.7175 43.8765 97.6716 43.8995C97.6486 43.9224 97.6142 43.9569 97.5683 44.0028C97.5453 44.0257 97.5339 44.0372 97.5339 44.0372C97.5109 44.0831 97.4879 44.1176 97.465 44.1405C97.465 44.1405 97.442 44.1405 97.3961 44.1405C97.3272 44.1176 97.2813 44.1061 97.2584 44.1061C97.2354 44.0831 97.2125 44.0717 97.1895 44.0717C97.1895 44.0717 97.178 44.0717 97.1551 44.0717C97.1321 44.0717 97.0862 44.0717 97.0173 44.0717C96.9714 44.0717 96.9025 44.0028 96.8107 43.865C96.7418 43.7043 96.6959 43.5092 96.673 43.2796C96.673 43.1649 96.6844 43.0615 96.7074 42.9697C96.7533 42.8779 96.7877 42.832 96.8107 42.832V42.6254C96.8566 42.6254 96.8911 42.6024 96.914 42.5565C96.937 42.5106 96.9599 42.4417 96.9829 42.3499C97.0288 42.281 97.0747 42.2007 97.1206 42.1088C97.1895 42.017 97.2239 41.9596 97.2239 41.9366C97.2239 41.8907 97.2354 41.8563 97.2584 41.8333C97.2813 41.7874 97.3043 41.753 97.3272 41.73C97.3502 41.7071 97.3617 41.6841 97.3617 41.6612C97.3846 41.6382 97.3961 41.6038 97.3961 41.5579C97.4191 41.489 97.442 41.4545 97.465 41.4545C97.4879 41.4316 97.5224 41.4201 97.5683 41.4201C97.5683 41.3512 97.6142 41.202 97.706 40.9724C97.8208 40.7429 97.9241 40.5363 98.016 40.3526C98.0848 40.1919 98.1193 40.1116 98.1193 40.1116C98.1422 40.0197 98.1767 39.9509 98.2226 39.9049C98.2685 39.8361 98.2914 39.7672 98.2914 39.6983C98.2914 39.6295 98.3374 39.5606 98.4292 39.4917C98.521 39.3999 98.6243 39.3195 98.7391 39.2507C98.8539 39.1588 98.9572 39.09 99.049 39.044C99.1409 38.9981 99.1868 38.9752 99.1868 38.9752C99.2327 38.9293 99.3475 38.9063 99.5311 38.9063C99.577 38.8833 99.6344 38.8719 99.7033 38.8719C99.7722 38.8719 99.8181 38.8833 99.841 38.9063C99.887 38.9063 99.9214 38.9178 99.9444 38.9407C99.9673 38.9637 99.9903 38.9867 100.013 39.0096C100.059 39.0096 100.117 39.0211 100.185 39.044C100.231 39.044 100.335 39.1014 100.495 39.2162C100.656 39.331 100.805 39.4688 100.943 39.6295C101.081 39.7672 101.15 39.8705 101.15 39.9394C101.15 39.9394 101.173 39.9623 101.218 40.0082C101.264 40.0542 101.299 40.146 101.322 40.2837C101.368 40.3985 101.391 40.5592 101.391 40.7658C101.391 40.9724 101.379 41.1331 101.356 41.2479C101.356 41.3398 101.345 41.4201 101.322 41.489C101.299 41.5579 101.276 41.6497 101.253 41.7645C101.253 41.8563 101.241 41.994 101.218 42.1777C101.173 42.2925 101.138 42.4417 101.115 42.6254C101.069 42.7861 101.023 42.9468 100.977 43.1075C100.932 43.2452 100.886 43.337 100.84 43.3829C100.84 43.4518 100.84 43.5092 100.84 43.5551C100.84 43.601 100.828 43.6355 100.805 43.6584C100.805 43.6584 100.805 43.6699 100.805 43.6929C100.782 43.7158 100.759 43.7503 100.736 43.7962C100.736 43.8421 100.725 43.911 100.702 44.0028L100.736 44.1061C100.736 44.4275 100.713 44.6571 100.668 44.7948C100.645 44.9326 100.599 45.0473 100.53 45.1392C100.53 45.1621 100.53 45.1736 100.53 45.1736C100.507 45.1736 100.495 45.1851 100.495 45.208C100.495 45.208 100.495 45.231 100.495 45.2769L100.461 45.5868L100.426 45.6557H100.461C100.392 45.7705 100.346 45.8738 100.323 45.9656C100.323 46.0575 100.312 46.1722 100.289 46.31C100.289 46.4018 100.277 46.5166 100.254 46.6543L100.289 46.9298C100.243 46.9298 100.208 46.9643 100.185 47.0331C100.162 47.102 100.139 47.1709 100.117 47.2397C100.117 47.3086 100.105 47.366 100.082 47.4119C100.082 47.4349 100.071 47.4464 100.048 47.4464L99.6344 48.9271C99.6115 49.0189 99.5885 49.0993 99.5656 49.1681C99.5656 49.237 99.5656 49.3288 99.5656 49.4436C99.4967 49.6732 99.4393 49.8569 99.3934 49.9946C99.3704 50.1323 99.3475 50.2586 99.3245 50.3734C99.3016 50.5341 99.2556 50.7292 99.1868 50.9588C99.1868 51.0736 99.1753 51.1769 99.1523 51.2687C99.1294 51.3606 99.0949 51.4065 99.049 51.4065L99.0835 51.5442C99.0835 51.7049 99.0375 51.8427 98.9457 51.9574C98.8539 52.0722 98.7965 52.2329 98.7735 52.4395C98.7506 52.5084 98.7391 52.5658 98.7391 52.6117C98.7161 52.6347 98.7047 52.6576 98.7047 52.6806C98.7047 52.6806 98.7047 52.6921 98.7047 52.715C98.7047 52.738 98.6932 52.7609 98.6702 52.7839C98.6702 52.8298 98.6702 52.8872 98.6702 52.9561C98.6702 52.979 98.6702 53.002 98.6702 53.0249C98.6702 53.0249 98.6817 53.0249 98.7047 53.0249C98.7276 53.0249 98.7391 53.0135 98.7391 52.9905C98.7391 52.9676 98.7391 52.9446 98.7391 52.9216C98.7391 52.8757 98.7506 52.8298 98.7735 52.7839C98.7965 52.738 98.8309 52.715 98.8768 52.715C98.808 52.8069 98.7621 52.8987 98.7391 52.9905C98.7391 53.0823 98.7391 53.1627 98.7391 53.2316C98.7391 53.2775 98.7391 53.3119 98.7391 53.3349C98.7391 53.3578 98.7276 53.3693 98.7047 53.3693C98.6358 53.3693 98.6014 53.4037 98.6014 53.4726V53.6104L98.6358 53.5759L98.6702 53.6792C98.6702 53.7251 98.6702 53.7596 98.6702 53.7825C98.6473 53.8744 98.6243 53.9432 98.6014 53.9891C98.6014 54.0351 98.5784 54.058 98.5325 54.058C98.5095 54.058 98.4866 54.0925 98.4636 54.1613C98.4407 54.2072 98.4292 54.2646 98.4292 54.3335C98.4062 54.4024 98.3833 54.4712 98.3603 54.5401C98.3374 54.586 98.3144 54.609 98.2914 54.609L98.3603 54.9189V55.2633C98.2914 55.2633 98.2455 55.2747 98.2226 55.2977C98.1996 55.2977 98.1881 55.3207 98.1881 55.3666H98.2226C98.2455 55.3666 98.257 55.3781 98.257 55.401C98.257 55.401 98.257 55.4125 98.257 55.4354C98.234 55.6421 98.2226 55.7913 98.2226 55.8831C98.2226 55.952 98.2111 56.0094 98.1881 56.0553C98.1881 56.0782 98.1767 56.1012 98.1537 56.1242C98.1537 56.1242 98.1422 56.1242 98.1193 56.1242C98.0963 56.1242 98.0733 56.1242 98.0504 56.1242C98.0504 56.1242 98.0504 56.1127 98.0504 56.0897C98.0274 56.1127 98.016 56.1242 98.016 56.1242C98.016 56.1242 98.0045 56.1356 97.9815 56.1586H97.9126L97.9471 56.2275C97.9471 56.2963 97.9356 56.3537 97.9126 56.3996C97.9126 56.4226 97.9126 56.457 97.9126 56.503C97.8897 56.5489 97.8667 56.6177 97.8438 56.7096C97.8438 56.8014 97.8323 56.9391 97.8093 57.1228C97.8093 57.1458 97.7979 57.1802 97.7749 57.2261C97.7749 57.272 97.7634 57.3179 97.7405 57.3638L97.7749 57.4672L97.8438 57.3638L97.8782 57.3983C97.8782 57.4442 97.8667 57.4786 97.8438 57.5016C97.8438 57.5245 97.8323 57.5475 97.8093 57.5705C97.8093 57.5934 97.7979 57.6049 97.7749 57.6049C97.7749 57.559 97.7634 57.536 97.7405 57.536C97.7405 57.536 97.729 57.536 97.706 57.536C97.6831 57.559 97.6716 57.5819 97.6716 57.6049C97.6716 57.6049 97.6716 57.6164 97.6716 57.6393C97.6716 57.6623 97.6716 57.6852 97.6716 57.7082C97.6716 57.7082 97.6601 57.7197 97.6372 57.7426L97.6716 57.7771L97.6027 57.8115L97.6716 57.9148C97.6486 57.9148 97.6257 57.9148 97.6027 57.9148C97.6027 57.9148 97.5912 57.9263 97.5683 57.9493C97.5683 57.9493 97.5683 57.9607 97.5683 57.9837V58.0181H97.6372L97.5683 58.2592L97.6027 58.3625C97.6027 58.4084 97.5912 58.4543 97.5683 58.5002C97.5453 58.5232 97.5224 58.5461 97.4994 58.5691C97.4765 58.5921 97.442 58.638 97.3961 58.7068C97.3732 58.7528 97.3617 58.8446 97.3617 58.9823L97.2584 59.1545C97.3272 59.0856 97.3732 59.0397 97.3961 59.0168C97.4191 58.9708 97.4305 58.9364 97.4305 58.9135C97.4305 58.8675 97.4305 58.8331 97.4305 58.8101C97.4535 58.7872 97.4765 58.7642 97.4994 58.7413C97.5224 58.7183 97.5339 58.6954 97.5339 58.6724C97.5568 58.6494 97.5683 58.6035 97.5683 58.5347C97.6372 58.5347 97.6831 58.5232 97.706 58.5002C97.729 58.4773 97.7519 58.4428 97.7749 58.3969C97.7979 58.351 97.8208 58.3051 97.8438 58.2592C97.8667 58.2592 97.8782 58.2592 97.8782 58.2592C97.8782 58.2592 97.8782 58.2477 97.8782 58.2247C97.9241 58.11 97.9586 58.0296 97.9815 57.9837C98.0274 57.9378 98.0733 57.8919 98.1193 57.8459C98.1422 57.8 98.1767 57.7426 98.2226 57.6738C98.2685 57.6049 98.3259 57.5016 98.3947 57.3638C98.3947 57.3409 98.3947 57.3294 98.3947 57.3294C98.4177 57.3294 98.4292 57.3179 98.4292 57.295C98.4521 57.295 98.4751 57.2835 98.4981 57.2605C98.544 57.2376 98.5784 57.1917 98.6014 57.1228C98.6932 56.9391 98.785 56.7899 98.8768 56.6751C98.9687 56.5833 99.049 56.4685 99.1179 56.3308C99.5311 55.8257 99.7722 55.5043 99.841 55.3666C99.887 55.3207 99.9214 55.2862 99.9444 55.2633C99.9673 55.2174 99.9903 55.1829 100.013 55.16C100.036 55.137 100.048 55.1255 100.048 55.1255C100.071 55.1026 100.082 55.0911 100.082 55.0911L100.048 55.0567H100.082L101.563 53.4726C101.678 53.4267 101.758 53.3808 101.804 53.3349C101.85 53.289 101.884 53.243 101.907 53.1971C101.907 53.1742 101.919 53.1512 101.942 53.1283C101.965 53.1053 102.01 53.0823 102.079 53.0594C102.125 53.0135 102.16 52.9905 102.183 52.9905C102.206 52.9905 102.217 52.979 102.217 52.9561C102.24 52.9331 102.252 52.8987 102.252 52.8528C102.32 52.8298 102.435 52.7609 102.596 52.6462C102.734 52.5314 102.871 52.4281 103.009 52.3362C103.17 52.2444 103.319 52.187 103.457 52.1641L104.283 52.0607C104.375 52.0607 104.444 52.0722 104.49 52.0952C104.559 52.0952 104.593 52.1181 104.593 52.1641C104.593 52.187 104.593 52.21 104.593 52.2329C104.616 52.2329 104.639 52.2329 104.662 52.2329C104.685 52.21 104.696 52.1985 104.696 52.1985C104.696 52.1755 104.696 52.1526 104.696 52.1296C104.788 52.2214 104.869 52.2903 104.938 52.3362C104.983 52.3592 105.041 52.4051 105.11 52.474C105.133 52.4969 105.144 52.5199 105.144 52.5428C105.144 52.5658 105.144 52.5888 105.144 52.6117C105.167 52.6117 105.179 52.6117 105.179 52.6117C105.202 52.6117 105.213 52.6117 105.213 52.6117C105.213 52.6117 105.213 52.6002 105.213 52.5773C105.19 52.4855 105.167 52.4166 105.144 52.3707C105.121 52.3248 105.087 52.2903 105.041 52.2674C105.018 52.2214 105.006 52.1985 105.006 52.1985C104.983 52.1985 104.96 52.1985 104.938 52.1985C104.938 52.1755 104.938 52.1526 104.938 52.1296L105.006 52.0952C105.075 52.0952 105.133 52.1411 105.179 52.2329C105.247 52.3018 105.293 52.3936 105.316 52.5084C105.339 52.6232 105.374 52.715 105.42 52.7839C105.489 52.8528 105.523 52.9331 105.523 53.0249L105.489 53.1627C105.489 53.2086 105.5 53.2545 105.523 53.3004C105.546 53.3234 105.569 53.3578 105.592 53.4037C105.615 53.4267 105.626 53.4497 105.626 53.4726C105.672 53.5874 105.707 53.6448 105.73 53.6448C105.73 53.6448 105.73 53.6333 105.73 53.6104C105.753 53.5874 105.764 53.5644 105.764 53.5415C105.764 53.5415 105.764 53.53 105.764 53.507C105.787 53.4841 105.798 53.4726 105.798 53.4726L105.867 53.6104C105.867 53.6563 105.867 53.6907 105.867 53.7137C105.867 53.7137 105.856 53.7251 105.833 53.7481C105.833 53.7481 105.821 53.7481 105.798 53.7481C105.798 53.7481 105.798 53.7596 105.798 53.7825L105.833 53.8514L105.798 53.9203C105.798 53.9432 105.798 53.9662 105.798 53.9891C105.821 53.9891 105.833 53.9891 105.833 53.9891C105.856 54.0121 105.867 54.0351 105.867 54.058C105.89 54.081 105.902 54.1154 105.902 54.1613L105.833 54.1958C105.856 54.1958 105.867 54.2072 105.867 54.2302C105.89 54.2532 105.902 54.2991 105.902 54.3679C105.902 54.4139 105.913 54.5057 105.936 54.6434C105.936 54.7582 105.936 54.9304 105.936 55.16L105.902 55.3666L105.971 55.6765L105.936 55.7454L105.971 55.9175C105.971 56.193 105.959 56.4341 105.936 56.6407C105.913 56.7555 105.902 56.8473 105.902 56.9162L105.936 57.7771C105.936 57.8 105.948 57.823 105.971 57.8459C105.971 57.8459 105.971 57.8574 105.971 57.8804C105.971 57.8804 105.982 57.8919 106.005 57.9148L106.039 57.7426L106.108 58.2592C106.108 58.328 106.097 58.374 106.074 58.3969C106.074 58.3969 106.074 58.4084 106.074 58.4314C106.074 58.4314 106.074 58.4428 106.074 58.4658C106.074 58.4887 106.074 58.5232 106.074 58.5691C106.074 58.7528 106.085 58.9938 106.108 59.2922C106.154 59.5907 106.2 59.8547 106.246 60.0843C106.292 60.3138 106.349 60.4516 106.418 60.4975C106.556 60.4286 106.671 60.3483 106.763 60.2564C106.877 60.1646 106.958 60.0843 107.004 60.0154C107.073 59.9465 107.107 59.9121 107.107 59.9121C107.13 59.9121 107.141 59.9121 107.141 59.9121C107.141 59.8891 107.141 59.8662 107.141 59.8432C107.141 59.8203 107.141 59.7973 107.141 59.7743C107.164 59.7514 107.187 59.7399 107.21 59.7399C107.233 59.7399 107.245 59.7514 107.245 59.7743C107.268 59.7973 107.279 59.8088 107.279 59.8088C107.279 59.8317 107.279 59.8547 107.279 59.8777C107.279 59.9006 107.291 59.9121 107.314 59.9121C107.36 59.9121 107.405 59.8777 107.451 59.8088H107.348C107.325 59.8088 107.314 59.7973 107.314 59.7743C107.314 59.7514 107.314 59.7284 107.314 59.7055C107.314 59.6825 107.325 59.6596 107.348 59.6366C107.371 59.5907 107.394 59.5563 107.417 59.5333C107.44 59.4874 107.451 59.4644 107.451 59.4644V59.4989C107.474 59.4989 107.486 59.4874 107.486 59.4644C107.509 59.4415 107.532 59.43 107.555 59.43C107.578 59.407 107.589 59.3841 107.589 59.3611C107.612 59.3382 107.624 59.3267 107.624 59.3267L107.589 59.2578L107.658 59.1889V59.2922C107.727 59.2463 107.773 59.2119 107.796 59.1889C107.819 59.166 107.842 59.1545 107.865 59.1545L107.899 59.1889V58.9823C107.853 59.0282 107.819 59.0627 107.796 59.0856C107.773 59.1086 107.75 59.1201 107.727 59.1201C107.75 59.0282 107.773 58.9708 107.796 58.9479C107.819 58.9249 107.842 58.9135 107.865 58.9135C107.865 58.9364 107.865 58.9479 107.865 58.9479C107.888 58.9708 107.899 58.9823 107.899 58.9823C107.899 58.9823 107.91 58.9938 107.933 59.0168C107.933 59.0168 107.945 59.0168 107.968 59.0168C107.991 59.0168 108.014 59.0053 108.037 58.9823C108.06 58.9594 108.083 58.9249 108.106 58.879C108.106 58.8561 108.106 58.8446 108.106 58.8446C108.106 58.8446 108.094 58.8446 108.071 58.8446L108.002 58.9479L107.968 58.9135C107.968 58.8446 107.968 58.7872 107.968 58.7413C107.991 58.6954 108.014 58.6724 108.037 58.6724V58.7413C108.106 58.6724 108.152 58.6265 108.174 58.6035C108.22 58.5806 108.255 58.5691 108.278 58.5691C108.301 58.5691 108.324 58.5461 108.347 58.5002C108.37 58.4543 108.393 58.4084 108.416 58.3625C108.461 58.2936 108.496 58.2362 108.519 58.1903C108.542 58.1214 108.576 58.087 108.622 58.087C108.691 58.087 108.737 58.0755 108.76 58.0526C108.783 58.0066 108.794 57.9607 108.794 57.9148C108.817 57.8689 108.84 57.8115 108.863 57.7426H108.76C108.737 57.7426 108.714 57.7426 108.691 57.7426C108.691 57.7426 108.691 57.7312 108.691 57.7082C108.691 57.6852 108.691 57.6738 108.691 57.6738C108.714 57.6738 108.737 57.6738 108.76 57.6738C108.783 57.6738 108.794 57.6738 108.794 57.6738C108.863 57.6738 108.944 57.6279 109.035 57.536C109.127 57.4212 109.208 57.3065 109.276 57.1917C109.368 57.0539 109.437 56.9391 109.483 56.8473C109.552 56.7325 109.586 56.6751 109.586 56.6751C109.609 56.6751 109.667 56.6177 109.759 56.503C109.873 56.3652 109.988 56.216 110.103 56.0553C110.218 55.8946 110.31 55.7568 110.378 55.6421C110.47 55.5043 110.516 55.4354 110.516 55.4354C110.516 55.4125 110.528 55.3781 110.551 55.3321C110.596 55.2862 110.642 55.2403 110.688 55.1944C110.803 54.9648 110.883 54.8041 110.929 54.7123C110.998 54.6205 111.056 54.5516 111.102 54.5057C111.147 54.4598 111.193 54.3909 111.239 54.2991C111.308 54.2072 111.4 54.0695 111.515 53.8858C111.584 53.817 111.63 53.7825 111.652 53.7825H111.687L112.066 53.4726C112.089 53.4726 112.1 53.4726 112.1 53.4726C112.1 53.4726 112.1 53.4841 112.1 53.507C112.1 53.507 112.1 53.5185 112.1 53.5415C112.1 53.5874 112.077 53.6448 112.031 53.7137C112.008 53.7596 111.974 53.7825 111.928 53.7825L111.859 53.7481L111.894 53.7825C111.848 53.8744 111.813 53.9432 111.79 53.9891C111.79 54.0121 111.779 54.0351 111.756 54.058C111.756 54.081 111.744 54.1039 111.721 54.1269C111.698 54.1269 111.675 54.1498 111.652 54.1958C111.63 54.2187 111.595 54.2646 111.549 54.3335L111.687 54.3679C111.687 54.322 111.687 54.2876 111.687 54.2646C111.71 54.2187 111.756 54.1958 111.825 54.1958C111.871 54.1958 111.894 54.2072 111.894 54.2302C111.894 54.2302 111.894 54.2532 111.894 54.2991C111.894 54.3679 111.882 54.4139 111.859 54.4368C111.859 54.4598 111.848 54.4942 111.825 54.5401C111.779 54.586 111.744 54.6549 111.721 54.7467V54.6779C111.675 54.7238 111.641 54.7697 111.618 54.8156C111.618 54.8386 111.618 54.873 111.618 54.9189C111.595 54.9419 111.584 54.9648 111.584 54.9878C111.584 55.0107 111.561 55.0222 111.515 55.0222C111.492 55.0911 111.457 55.1829 111.411 55.2977C111.366 55.3895 111.297 55.4354 111.205 55.4354C111.182 55.4354 111.159 55.4354 111.136 55.4354C111.113 55.4354 111.09 55.4469 111.067 55.4699L111.102 55.5043L111.17 55.4699C111.193 55.4699 111.205 55.4814 111.205 55.5043C111.205 55.5043 111.205 55.5158 111.205 55.5388C111.205 55.5617 111.193 55.5847 111.17 55.6076C111.147 55.6076 111.124 55.6191 111.102 55.6421C111.102 55.6421 111.102 55.6535 111.102 55.6765L111.17 55.7109L111.308 55.6421C111.331 55.6421 111.343 55.6421 111.343 55.6421C111.343 55.6421 111.343 55.6535 111.343 55.6765L111.411 55.5732L111.377 55.4354L111.446 55.4699C111.446 55.4469 111.446 55.4354 111.446 55.4354C111.469 55.4125 111.48 55.401 111.48 55.401C111.48 55.3781 111.48 55.3666 111.48 55.3666C111.549 55.3895 111.584 55.4354 111.584 55.5043C111.584 55.5502 111.561 55.5961 111.515 55.6421C111.469 55.688 111.423 55.7339 111.377 55.7798C111.354 55.8028 111.331 55.8257 111.308 55.8487C111.285 55.8716 111.274 55.8946 111.274 55.9175C111.274 55.9405 111.274 55.9635 111.274 55.9864C111.274 56.0094 111.262 56.0323 111.239 56.0553C111.239 56.0782 111.239 56.0897 111.239 56.0897C111.262 56.0897 111.285 56.0897 111.308 56.0897L111.343 56.0553L111.377 56.0897L111.239 56.3652L111.308 56.503C111.285 56.5489 111.262 56.5833 111.239 56.6063C111.216 56.6292 111.205 56.6522 111.205 56.6751C111.182 56.6751 111.159 56.6866 111.136 56.7096C111.136 56.7325 111.124 56.7555 111.102 56.7784C111.079 56.7784 111.067 56.7899 111.067 56.8129C111.067 56.8358 111.067 56.8588 111.067 56.8817C111.044 56.9047 111.033 56.9277 111.033 56.9506C111.033 56.9736 111.021 56.9851 110.998 56.9851C110.975 57.008 110.952 57.031 110.929 57.0539C110.929 57.0539 110.929 57.0654 110.929 57.0884C110.929 57.0884 110.929 57.0998 110.929 57.1228C110.929 57.1228 110.918 57.1228 110.895 57.1228C110.895 57.1228 110.883 57.1228 110.86 57.1228C110.838 57.1228 110.826 57.1343 110.826 57.1572C110.826 57.1802 110.826 57.2146 110.826 57.2605L110.86 57.3294C110.86 57.3524 110.849 57.3753 110.826 57.3983C110.803 57.4212 110.78 57.4442 110.757 57.4672C110.757 57.4672 110.757 57.4786 110.757 57.5016C110.757 57.5475 110.734 57.6049 110.688 57.6738C110.665 57.7197 110.631 57.7426 110.585 57.7426C110.585 57.7197 110.585 57.7082 110.585 57.7082C110.585 57.7082 110.596 57.6967 110.619 57.6738C110.619 57.6738 110.619 57.6623 110.619 57.6393C110.619 57.6164 110.619 57.6049 110.619 57.6049C110.619 57.6049 110.608 57.6049 110.585 57.6049C110.562 57.6049 110.551 57.6164 110.551 57.6393C110.551 57.6393 110.551 57.6508 110.551 57.6738C110.551 57.6967 110.551 57.7197 110.551 57.7426C110.551 57.7426 110.551 57.7541 110.551 57.7771C110.551 57.7771 110.551 57.7886 110.551 57.8115C110.574 57.8115 110.585 57.823 110.585 57.8459C110.585 57.8689 110.574 57.9148 110.551 57.9837C110.528 58.0296 110.505 58.0755 110.482 58.1214C110.459 58.1444 110.436 58.1559 110.413 58.1559C110.367 58.1559 110.332 58.1788 110.31 58.2247C110.287 58.2477 110.275 58.2821 110.275 58.328C110.275 58.374 110.264 58.4199 110.241 58.4658C110.241 58.4887 110.195 58.5002 110.103 58.5002C110.103 58.4773 110.114 58.4658 110.137 58.4658C110.137 58.4428 110.137 58.4199 110.137 58.3969C110.16 58.374 110.172 58.3395 110.172 58.2936L110.137 58.2247C110.114 58.2936 110.091 58.351 110.068 58.3969C110.068 58.4199 110.057 58.4428 110.034 58.4658C110.034 58.4658 110.034 58.4887 110.034 58.5347C110.034 58.5576 110.034 58.5921 110.034 58.638L110.068 58.7757C110.068 58.7528 110.08 58.7413 110.103 58.7413C110.172 58.6035 110.241 58.5347 110.31 58.5347C110.355 58.5347 110.378 58.5461 110.378 58.5691C110.378 58.5691 110.378 58.5806 110.378 58.6035C110.378 58.6494 110.367 58.6954 110.344 58.7413C110.344 58.7642 110.332 58.7872 110.31 58.8101C110.31 58.8101 110.298 58.8216 110.275 58.8446C110.275 58.8675 110.275 58.8905 110.275 58.9135C110.275 58.9364 110.264 58.9594 110.241 58.9823C110.218 59.0053 110.195 59.0282 110.172 59.0512C110.149 59.1201 110.114 59.1775 110.068 59.2234C110.045 59.2693 110.034 59.3152 110.034 59.3611L110.068 59.3956C110.045 59.4185 110.023 59.43 110 59.43C110 59.43 109.988 59.43 109.965 59.43C109.942 59.43 109.919 59.4415 109.896 59.4644C109.896 59.4644 109.896 59.4759 109.896 59.4989H110L109.931 59.7055C109.931 59.7284 109.896 59.7629 109.827 59.8088C109.804 59.8088 109.781 59.8088 109.759 59.8088C109.759 59.8088 109.759 59.8203 109.759 59.8432C109.781 59.8432 109.793 59.8547 109.793 59.8777C109.793 59.9006 109.793 59.935 109.793 59.981C109.793 60.0269 109.781 60.0613 109.759 60.0843C109.759 60.0843 109.736 60.0843 109.69 60.0843C109.644 60.0843 109.609 60.0957 109.586 60.1187C109.586 60.1187 109.586 60.1417 109.586 60.1876C109.586 60.2335 109.575 60.2794 109.552 60.3253C109.552 60.3483 109.54 60.3598 109.517 60.3598L109.449 60.2909V60.3942C109.449 60.3942 109.449 60.4057 109.449 60.4286C109.449 60.4286 109.437 60.4286 109.414 60.4286C109.414 60.4286 109.391 60.4286 109.345 60.4286L109.276 60.3942L109.242 60.4631C109.242 60.486 109.242 60.4975 109.242 60.4975C109.265 60.5205 109.276 60.5319 109.276 60.5319C109.299 60.5319 109.311 60.5319 109.311 60.5319C109.357 60.5319 109.38 60.5205 109.38 60.4975C109.38 60.4745 109.38 60.4516 109.38 60.4286L109.449 60.5319C109.472 60.4631 109.517 60.3942 109.586 60.3253C109.655 60.2564 109.724 60.222 109.793 60.222C109.793 60.245 109.759 60.3024 109.69 60.3942C109.598 60.5319 109.517 60.6352 109.449 60.7041C109.403 60.773 109.357 60.8304 109.311 60.8763C109.288 60.9222 109.265 60.9566 109.242 60.9796C109.219 61.0255 109.173 61.0714 109.104 61.1173C109.058 61.1862 108.967 61.301 108.829 61.4617L108.691 61.3928L108.657 61.4617L108.76 61.5306C108.76 61.5535 108.748 61.565 108.725 61.565C108.703 61.588 108.668 61.5994 108.622 61.5994C108.599 61.6224 108.576 61.6339 108.553 61.6339L108.622 61.5306C108.599 61.5306 108.588 61.5306 108.588 61.5306C108.565 61.5535 108.553 61.565 108.553 61.565C108.553 61.565 108.542 61.5765 108.519 61.5994C108.519 61.5994 108.519 61.6109 108.519 61.6339C108.519 61.6798 108.473 61.7372 108.381 61.8061C108.312 61.8979 108.232 61.9782 108.14 62.0471C108.048 62.116 107.968 62.1504 107.899 62.1504C107.899 62.1504 107.888 62.1504 107.865 62.1504C107.842 62.1504 107.819 62.1504 107.796 62.1504C107.796 62.1734 107.796 62.2078 107.796 62.2537C107.796 62.2767 107.796 62.2882 107.796 62.2882C107.796 62.2882 107.807 62.2882 107.83 62.2882L108.002 62.2537C108.002 62.2537 107.991 62.2652 107.968 62.2882C107.945 62.3111 107.91 62.3226 107.865 62.3226C107.819 62.3685 107.773 62.4029 107.727 62.4259C107.681 62.4489 107.658 62.4718 107.658 62.4948H107.761L107.83 62.4603C107.83 62.5062 107.807 62.5407 107.761 62.5636C107.715 62.5866 107.612 62.5981 107.451 62.5981C107.337 62.5981 107.256 62.5981 107.21 62.5981C107.164 62.5981 107.13 62.5866 107.107 62.5636C107.084 62.5636 107.073 62.5522 107.073 62.5292C107.05 62.5062 107.038 62.4948 107.038 62.4948C107.015 62.4948 106.992 62.5062 106.969 62.5292C106.969 62.5522 106.969 62.5751 106.969 62.5981C106.969 62.621 106.958 62.6325 106.935 62.6325C106.935 62.6555 106.935 62.6669 106.935 62.6669L106.866 62.5636L106.797 62.6669C106.797 62.621 106.797 62.5866 106.797 62.5636C106.797 62.5636 106.797 62.5522 106.797 62.5292C106.82 62.5292 106.843 62.5177 106.866 62.4948C106.797 62.4948 106.751 62.4948 106.728 62.4948C106.705 62.4948 106.682 62.4948 106.659 62.4948C106.659 62.5177 106.659 62.5292 106.659 62.5292C106.636 62.5522 106.625 62.5636 106.625 62.5636C106.625 62.5866 106.613 62.5981 106.59 62.5981V62.6325H106.418C106.395 62.6325 106.372 62.621 106.349 62.5981C106.349 62.5981 106.349 62.5866 106.349 62.5636H106.453C106.499 62.5636 106.522 62.5522 106.522 62.5292C106.545 62.5292 106.556 62.5177 106.556 62.4948C106.556 62.4948 106.545 62.4833 106.522 62.4603C106.522 62.4603 106.51 62.4603 106.487 62.4603C106.487 62.4603 106.476 62.4603 106.453 62.4603L106.212 62.5292C106.189 62.5292 106.166 62.5177 106.143 62.4948C106.051 62.4718 105.982 62.4489 105.936 62.4259C105.89 62.4029 105.833 62.38 105.764 62.357C105.718 62.3341 105.649 62.2882 105.557 62.2193C105.42 62.1504 105.179 62.0241 104.834 61.8405C104.995 61.9782 105.121 62.0701 105.213 62.116C105.282 62.1619 105.316 62.1963 105.316 62.2193C105.293 62.2193 105.259 62.2078 105.213 62.1848C105.19 62.1619 105.167 62.1389 105.144 62.116C105.098 62.093 105.052 62.0701 105.006 62.0471C104.983 62.0241 104.949 62.0127 104.903 62.0127C104.834 62.0127 104.765 61.9553 104.696 61.8405C104.628 61.7257 104.547 61.5994 104.455 61.4617C104.318 61.2092 104.18 61.0026 104.042 60.8419C103.859 60.6582 103.721 60.4745 103.629 60.2909C103.56 60.1072 103.503 59.9006 103.457 59.671C103.434 59.5792 103.399 59.4759 103.353 59.3611L103.388 59.3267C103.388 59.2578 103.376 59.166 103.353 59.0512C103.331 58.9135 103.308 58.7872 103.285 58.6724C103.262 58.5576 103.227 58.4773 103.181 58.4314L103.216 58.2247L103.147 57.7771C103.147 57.7541 103.158 57.7426 103.181 57.7426C103.181 57.7426 103.181 57.7312 103.181 57.7082C103.204 57.6852 103.216 57.6508 103.216 57.6049C103.216 57.536 103.216 57.4557 103.216 57.3638L103.147 56.503L103.181 56.3308V55.3666C103.181 55.1829 103.17 55.0911 103.147 55.0911L103.009 55.16C102.688 55.5732 102.424 55.8602 102.217 56.0209C102.125 56.1127 102.079 56.1701 102.079 56.193C101.965 56.3996 101.873 56.5374 101.804 56.6063C101.735 56.6522 101.666 56.6751 101.597 56.6751L101.563 56.6407C101.54 56.6407 101.517 56.6522 101.494 56.6751C101.494 56.6981 101.494 56.7325 101.494 56.7784C101.471 56.8473 101.448 56.9047 101.425 56.9506C101.402 56.9965 101.356 57.0195 101.287 57.0195V56.9162C101.264 56.9391 101.253 56.9621 101.253 56.9851C101.253 57.008 101.241 57.031 101.218 57.0539C101.218 57.0539 101.207 57.0654 101.184 57.0884C101.184 57.0884 101.173 57.0998 101.15 57.1228C101.15 57.1458 101.138 57.1917 101.115 57.2605C101.092 57.3065 101.069 57.3524 101.046 57.3983C101.023 57.4442 100.989 57.4672 100.943 57.4672L100.874 57.4327C100.874 57.4557 100.863 57.4901 100.84 57.536C100.84 57.5819 100.828 57.6164 100.805 57.6393C100.805 57.6623 100.794 57.6738 100.771 57.6738L100.392 58.328C100.369 58.328 100.346 58.3395 100.323 58.3625C100.3 58.3854 100.277 58.4199 100.254 58.4658C100.231 58.5117 100.208 58.5461 100.185 58.5691C100.185 58.5921 100.162 58.6035 100.117 58.6035L100.082 58.7413C100.082 58.7642 100.059 58.8101 100.013 58.879C99.9673 58.9249 99.9214 58.9708 99.8755 59.0168C99.8755 59.0397 99.8755 59.0627 99.8755 59.0856C99.8755 59.1086 99.8525 59.1201 99.8066 59.1201C99.7837 59.143 99.7607 59.1775 99.7377 59.2234C99.7148 59.2463 99.7033 59.2808 99.7033 59.3267C99.6803 59.3726 99.6574 59.4185 99.6344 59.4644C99.6115 59.5103 99.577 59.5563 99.5311 59.6022L99.5656 59.4989C99.5426 59.4989 99.5196 59.5103 99.4967 59.5333C99.4737 59.5333 99.4623 59.5448 99.4623 59.5677C99.4623 59.5907 99.4623 59.6251 99.4623 59.671H99.4967H99.4623C99.4393 59.671 99.4163 59.671 99.3934 59.671C99.3934 59.671 99.3819 59.6825 99.3589 59.7055C99.3589 59.7055 99.3475 59.717 99.3245 59.7399L99.3934 59.8432H99.3245C99.2556 59.8432 99.2212 59.8088 99.2212 59.7399L99.2556 59.7055L99.2212 59.671C99.2212 59.671 99.2097 59.694 99.1868 59.7399C99.1638 59.7858 99.1409 59.8432 99.1179 59.9121C99.0949 59.958 99.072 60.0039 99.049 60.0498C99.0261 60.0957 99.0146 60.1302 99.0146 60.1531C99.0375 60.1531 99.049 60.1417 99.049 60.1187C99.072 60.0957 99.0949 60.0728 99.1179 60.0498C99.1179 60.0269 99.1179 60.0039 99.1179 59.981C99.1409 59.958 99.1638 59.9465 99.1868 59.9465V59.981C99.0949 60.2105 99.049 60.3598 99.049 60.4286L99.0835 60.5319H98.9113L98.9802 60.6008H98.9457C98.9228 60.6697 98.9113 60.7156 98.9113 60.7385C98.9113 60.7615 98.8998 60.773 98.8768 60.773C98.8768 60.7959 98.8654 60.8074 98.8424 60.8074C98.8195 60.8074 98.808 60.7959 98.808 60.773C98.808 60.773 98.808 60.7615 98.808 60.7385C98.808 60.7156 98.808 60.6926 98.808 60.6697C98.808 60.6697 98.7965 60.6697 98.7735 60.6697L98.7391 60.8074L98.7735 60.8763C98.7506 60.8763 98.7391 60.8763 98.7391 60.8763C98.7161 60.8992 98.7047 60.9107 98.7047 60.9107C98.7047 60.9107 98.6932 60.9222 98.6702 60.9452C98.6473 60.9681 98.6243 61.0026 98.6014 61.0485L98.6702 61.014L98.7047 61.0485C98.7047 61.0714 98.6932 61.0829 98.6702 61.0829C98.6702 61.1059 98.6702 61.1173 98.6702 61.1173C98.6473 61.1403 98.6243 61.1518 98.6014 61.1518C98.6014 61.1747 98.6014 61.1977 98.6014 61.2206C98.6014 61.2666 98.5784 61.3354 98.5325 61.4273C98.5095 61.5191 98.4636 61.5994 98.3947 61.6683C98.3488 61.7372 98.3029 61.7716 98.257 61.7716L98.2226 61.7372C98.2226 61.852 98.2111 61.9208 98.1881 61.9438C98.1881 61.9897 98.1767 62.0356 98.1537 62.0815C98.1078 62.1275 98.0733 62.1848 98.0504 62.2537C98.0504 62.2767 98.0389 62.2882 98.016 62.2882C98.016 62.3341 98.0045 62.3685 97.9815 62.3915C97.9586 62.4144 97.9356 62.4374 97.9126 62.4603C97.8897 62.4603 97.8667 62.4603 97.8438 62.4603C97.8438 62.4833 97.8438 62.5177 97.8438 62.5636C97.8438 62.5866 97.8323 62.621 97.8093 62.6669C97.8093 62.7129 97.7864 62.7588 97.7405 62.8047V62.7358C97.7405 62.7358 97.7175 62.7473 97.6716 62.7703C97.6486 62.8162 97.6257 62.8506 97.6027 62.8736C97.5798 62.9195 97.5683 62.9654 97.5683 63.0113L97.6027 63.0802C97.6027 63.172 97.5912 63.2294 97.5683 63.2524C97.5453 63.2983 97.5109 63.3557 97.465 63.4245C97.442 63.4704 97.4076 63.5164 97.3617 63.5623C97.3387 63.5623 97.3158 63.5852 97.2928 63.6311C97.2698 63.6771 97.2469 63.723 97.2239 63.7689C97.2239 63.8148 97.2239 63.8492 97.2239 63.8722C97.201 63.8722 97.178 63.8837 97.1551 63.9066C97.1551 63.9296 97.1551 63.964 97.1551 64.0099C97.1551 64.1247 97.1436 64.2051 97.1206 64.251C97.0977 64.3199 97.0747 64.3658 97.0518 64.3887C97.0288 64.4117 96.9944 64.4232 96.9484 64.4232C96.9255 64.4232 96.9025 64.4346 96.8796 64.4576C96.8796 64.4806 96.8796 64.5035 96.8796 64.5265L96.914 64.5609C96.8911 64.5609 96.8451 64.5839 96.7763 64.6298C96.7304 64.6757 96.673 64.7216 96.6041 64.7675C96.5582 64.7905 96.5123 64.8134 96.4663 64.8364C96.4434 64.8823 96.4204 64.9053 96.3975 64.9053C96.3745 64.9053 96.3516 64.9053 96.3286 64.9053C96.3056 64.9282 96.2942 64.9512 96.2942 64.9741V65.0086ZM97.3617 58.5002C97.4305 58.2477 97.4765 58.0526 97.4994 57.9148C97.5453 57.7541 97.5798 57.6393 97.6027 57.5705C97.6257 57.4786 97.6372 57.3983 97.6372 57.3294C97.6601 57.2376 97.6831 57.1228 97.706 56.9851C97.729 56.8473 97.7634 56.6292 97.8093 56.3308L97.8438 56.2963L97.7749 56.3308C97.729 56.5144 97.6946 56.6637 97.6716 56.7784C97.6716 57.031 97.6372 57.1572 97.5683 57.1572C97.5683 57.3409 97.5568 57.4786 97.5339 57.5705C97.5339 57.6623 97.5224 57.7312 97.4994 57.7771C97.4994 57.823 97.4879 57.8689 97.465 57.9148C97.442 57.9607 97.4191 58.0296 97.3961 58.1214C97.3732 58.2133 97.3387 58.3395 97.2928 58.5002H97.3617ZM97.2584 58.7068L97.3272 58.5691C97.3043 58.5691 97.2813 58.5806 97.2584 58.6035C97.2354 58.6035 97.2239 58.6265 97.2239 58.6724L97.2584 58.7068ZM97.1895 58.9823C97.2125 58.9823 97.2239 58.9823 97.2239 58.9823C97.2239 58.9594 97.2239 58.9364 97.2239 58.9135C97.201 58.9135 97.178 58.9249 97.1551 58.9479C97.1551 58.9479 97.1551 58.9594 97.1551 58.9823H97.1895ZM96.8796 57.8115V57.7426H96.8451V57.8115H96.8796ZM97.0862 59.43C97.1091 59.43 97.1206 59.407 97.1206 59.3611C97.1436 59.3152 97.1665 59.2693 97.1895 59.2234C97.2125 59.1545 97.2239 59.1086 97.2239 59.0856C97.2239 59.0856 97.2125 59.0971 97.1895 59.1201C97.1895 59.1201 97.178 59.1315 97.1551 59.1545C97.1551 59.2004 97.1436 59.2463 97.1206 59.2922C97.1206 59.3152 97.1091 59.3382 97.0862 59.3611C97.0632 59.3841 97.0518 59.407 97.0518 59.43H97.0862ZM97.7749 61.8405L97.8093 61.8061C97.8093 61.7831 97.7979 61.7716 97.7749 61.7716L97.706 61.8061L97.7749 61.8405ZM99.5656 58.3969C99.5885 58.3969 99.6 58.3969 99.6 58.3969C99.6 58.374 99.6 58.351 99.6 58.328L99.5656 58.2592C99.5426 58.2592 99.5311 58.2707 99.5311 58.2936L99.5656 58.3969ZM97.8093 61.565C97.993 61.5191 98.0848 61.4158 98.0848 61.2551C98.0848 61.2321 98.0733 61.2092 98.0504 61.1862C98.0504 61.1633 98.0504 61.1518 98.0504 61.1518L98.016 61.1862L98.0504 61.2551C98.0504 61.301 98.0389 61.324 98.016 61.324C98.016 61.3469 98.0045 61.3699 97.9815 61.3928C97.9815 61.3928 97.97 61.4043 97.9471 61.4273C97.9471 61.4273 97.9356 61.4273 97.9126 61.4273C97.9126 61.4502 97.9012 61.4617 97.8782 61.4617C97.8553 61.4847 97.8323 61.4961 97.8093 61.4961C97.8093 61.5191 97.8093 61.542 97.8093 61.565ZM98.0848 61.8061C98.1078 61.8061 98.1193 61.7831 98.1193 61.7372C98.1422 61.7142 98.1652 61.6798 98.1881 61.6339C98.1881 61.6109 98.1881 61.5994 98.1881 61.5994C98.1881 61.5994 98.1767 61.6109 98.1537 61.6339C98.1307 61.6568 98.1078 61.6798 98.0848 61.7027C98.0848 61.7257 98.0733 61.7487 98.0504 61.7716C98.0504 61.7946 98.0504 61.8061 98.0504 61.8061H98.0848ZM98.257 61.014C98.257 60.9911 98.257 60.9681 98.257 60.9452C98.257 60.9452 98.2455 60.9337 98.2226 60.9107V60.9796L98.257 61.014ZM98.3603 61.2206C98.3833 61.2206 98.3947 61.2206 98.3947 61.2206C98.4177 61.2206 98.4407 61.2092 98.4636 61.1862C98.4636 61.1633 98.4636 61.1518 98.4636 61.1518C98.4636 61.1518 98.4407 61.1518 98.3947 61.1518L98.3603 61.2206ZM98.808 60.5319L98.8424 60.4975L98.7735 60.4631C98.7735 60.4631 98.7735 60.4745 98.7735 60.4975C98.7735 60.4975 98.7621 60.4975 98.7391 60.4975C98.7391 60.5205 98.7391 60.5319 98.7391 60.5319C98.7621 60.5319 98.785 60.5319 98.808 60.5319ZM98.9457 59.8088C99.0146 59.8088 99.049 59.717 99.049 59.5333C99.0261 59.5333 99.0146 59.5448 99.0146 59.5677C99.0146 59.5677 99.0146 59.5792 99.0146 59.6022C99.0146 59.6022 99.0031 59.6251 98.9802 59.671C98.9802 59.694 98.9572 59.7284 98.9113 59.7743C98.9113 59.7973 98.9113 59.8088 98.9113 59.8088C98.9342 59.8088 98.9457 59.8088 98.9457 59.8088ZM99.3245 59.2234V59.1889C99.3245 59.1889 99.313 59.1889 99.2901 59.1889C99.2901 59.166 99.2786 59.1545 99.2556 59.1545C99.2556 59.1315 99.2556 59.1201 99.2556 59.1201C99.2327 59.1201 99.2097 59.1315 99.1868 59.1545L99.2212 59.1889V59.1545C99.2442 59.1545 99.2556 59.1545 99.2556 59.1545C99.2786 59.1545 99.2901 59.166 99.2901 59.1889L99.3245 59.2234ZM99.5311 59.2922L99.6344 59.1889C99.6344 59.166 99.6115 59.1545 99.5656 59.1545C99.5426 59.1545 99.5311 59.166 99.5311 59.1889C99.5311 59.1889 99.5311 59.2004 99.5311 59.2234V59.2922ZM98.1193 61.0485C98.1193 61.0485 98.1193 61.037 98.1193 61.014C98.1193 60.9911 98.1193 60.9681 98.1193 60.9452C98.1422 60.9222 98.1537 60.8992 98.1537 60.8763C98.1767 60.8533 98.1996 60.8419 98.2226 60.8419C98.3603 60.8419 98.4292 60.7845 98.4292 60.6697L98.3947 60.5664C98.3947 60.5205 98.3947 60.4975 98.3947 60.4975C98.3947 60.4745 98.4062 60.4631 98.4292 60.4631H98.4636C98.5095 60.4631 98.5325 60.4516 98.5325 60.4286C98.5554 60.4057 98.5669 60.3712 98.5669 60.3253L98.5325 60.222C98.5325 60.1531 98.5554 60.1072 98.6014 60.0843C98.6473 60.0384 98.7047 60.0039 98.7735 59.981C98.7965 59.981 98.8195 59.9695 98.8424 59.9465C98.8195 59.9465 98.808 59.9465 98.808 59.9465C98.785 59.9236 98.7621 59.9121 98.7391 59.9121C98.7391 59.8891 98.7391 59.8777 98.7391 59.8777C98.7391 59.8547 98.7506 59.8317 98.7735 59.8088L99.049 59.3267C99.049 59.2808 99.0605 59.2578 99.0835 59.2578C99.0835 59.2349 99.0835 59.2234 99.0835 59.2234C99.0835 59.2004 99.0835 59.1889 99.0835 59.1889C99.1064 59.166 99.1179 59.1545 99.1179 59.1545C99.1409 59.1315 99.1638 59.0971 99.1868 59.0512C99.2097 59.0053 99.2327 58.9823 99.2556 58.9823L99.3589 59.0512L99.3245 58.9135C99.3245 58.8216 99.3475 58.7642 99.3934 58.7413L99.4967 58.8101L99.4623 58.879C99.4393 58.902 99.4278 58.9249 99.4278 58.9479C99.4278 58.9479 99.4278 58.9594 99.4278 58.9823C99.4508 58.9594 99.4737 58.9364 99.4967 58.9135L99.5311 58.8446L99.4623 58.638H99.4967L99.5311 58.5691V58.4658C99.4852 58.4658 99.3934 58.6035 99.2556 58.879V58.9135C99.1638 58.9364 99.1179 58.9708 99.1179 59.0168C99.072 59.1086 99.0375 59.1889 99.0146 59.2578C98.9916 59.3496 98.9572 59.4185 98.9113 59.4644C98.8883 59.5103 98.8539 59.5333 98.808 59.5333V59.6022C98.7621 59.671 98.7276 59.7284 98.7047 59.7743C98.6128 59.8891 98.544 59.981 98.4981 60.0498C98.4751 60.1187 98.4521 60.1761 98.4292 60.222C98.4062 60.2679 98.3718 60.3368 98.3259 60.4286C98.28 60.5205 98.2111 60.6582 98.1193 60.8419C98.0963 60.8878 98.0848 60.9337 98.0848 60.9796C98.0848 61.0255 98.0963 61.0485 98.1193 61.0485ZM99.5656 58.7413C99.5885 58.7413 99.6 58.7413 99.6 58.7413C99.623 58.7183 99.6344 58.6954 99.6344 58.6724V58.5691C99.6115 58.5691 99.5885 58.5806 99.5656 58.6035C99.5656 58.6265 99.5656 58.6494 99.5656 58.6724V58.7413ZM99.7377 58.9823C99.7607 58.9594 99.7722 58.9364 99.7722 58.9135C99.7951 58.9135 99.8066 58.9135 99.8066 58.9135C99.8066 58.8905 99.8066 58.879 99.8066 58.879C99.8066 58.8561 99.8066 58.8331 99.8066 58.8101C99.7837 58.8331 99.7607 58.8446 99.7377 58.8446C99.7377 58.8446 99.7263 58.8561 99.7033 58.879C99.7033 58.902 99.7033 58.9249 99.7033 58.9479C99.7033 58.9708 99.7148 58.9823 99.7377 58.9823ZM99.8066 57.9493C99.8296 57.9493 99.841 57.9493 99.841 57.9493C99.864 57.9493 99.8755 57.9378 99.8755 57.9148C99.8755 57.9148 99.887 57.9033 99.9099 57.8804L99.8066 57.9493ZM99.8066 58.087L99.7033 57.9148V57.9493C99.7033 57.9722 99.7033 57.9952 99.7033 58.0181C99.7263 58.0411 99.7492 58.064 99.7722 58.087H99.8066ZM99.8066 58.2247L99.841 58.1903L99.8066 58.1559L99.7722 58.1903C99.7722 58.2133 99.7722 58.2247 99.7722 58.2247C99.7722 58.2247 99.7837 58.2247 99.8066 58.2247ZM99.841 58.7413L100.151 58.2592C100.036 58.3051 99.9788 58.3625 99.9788 58.4314C99.9558 58.4543 99.9329 58.4773 99.9099 58.5002C99.9099 58.5232 99.8984 58.5461 99.8755 58.5691C99.8755 58.5691 99.864 58.5806 99.841 58.6035C99.841 58.6035 99.841 58.615 99.841 58.638C99.841 58.6609 99.8296 58.6954 99.8066 58.7413H99.841ZM100.117 57.6049C100.139 57.5819 100.151 57.5705 100.151 57.5705C100.174 57.5475 100.185 57.5131 100.185 57.4672C100.185 57.4442 100.197 57.4212 100.22 57.3983C100.197 57.4212 100.174 57.4327 100.151 57.4327C100.151 57.4327 100.139 57.4442 100.117 57.4672C100.117 57.4672 100.105 57.4672 100.082 57.4672L100.117 57.6049ZM100.323 57.9837L100.392 57.9493V57.8459C100.392 57.8459 100.381 57.8574 100.358 57.8804C100.358 57.8804 100.346 57.8919 100.323 57.9148C100.323 57.9378 100.323 57.9607 100.323 57.9837ZM100.254 57.3638L100.426 57.1228H100.358L100.254 57.3638ZM108.106 62.2193H108.071L108.106 62.1504H108.174L108.106 62.2193ZM108.174 62.3915C108.152 62.3915 108.14 62.3915 108.14 62.3915C108.14 62.3685 108.14 62.3455 108.14 62.3226C108.163 62.3226 108.186 62.3111 108.209 62.2882C108.232 62.2882 108.266 62.2652 108.312 62.2193C108.312 62.2193 108.324 62.2078 108.347 62.1848V62.2537C108.347 62.2767 108.335 62.2882 108.312 62.2882C108.312 62.3111 108.301 62.3341 108.278 62.357L108.174 62.3915ZM108.45 62.2193H108.416C108.416 62.1963 108.416 62.1734 108.416 62.1504C108.438 62.1504 108.461 62.1389 108.484 62.116C108.53 62.093 108.588 62.0701 108.657 62.0471C108.657 62.0701 108.645 62.093 108.622 62.116C108.599 62.1389 108.565 62.1619 108.519 62.1848C108.496 62.2078 108.473 62.2193 108.45 62.2193ZM108.312 58.4658V58.4314L108.174 58.4658L108.312 58.2247V58.3969C108.381 58.2592 108.438 58.1903 108.484 58.1903H108.519C108.496 58.2362 108.473 58.2821 108.45 58.328C108.427 58.351 108.404 58.3854 108.381 58.4314C108.358 58.4543 108.335 58.4658 108.312 58.4658ZM108.416 58.1559L108.381 58.1214L108.45 58.0181V58.1214L108.416 58.1559ZM108.519 57.9837L108.484 57.9493L108.553 57.9148L108.519 57.9837ZM108.622 57.9837C108.622 57.9607 108.622 57.9378 108.622 57.9148C108.645 57.8919 108.68 57.8689 108.725 57.8459V57.8804C108.725 57.9033 108.725 57.9263 108.725 57.9493C108.725 57.9493 108.714 57.9493 108.691 57.9493L108.622 57.9837ZM108.967 57.4672C108.989 57.4212 109.012 57.3868 109.035 57.3638C109.058 57.3409 109.07 57.3179 109.07 57.295C109.093 57.272 109.104 57.2605 109.104 57.2605C109.127 57.2605 109.139 57.2605 109.139 57.2605C109.07 57.3983 109.012 57.4672 108.967 57.4672ZM109.242 56.9506L109.208 56.9162L109.242 56.8473C109.265 56.8473 109.276 56.8473 109.276 56.8473C109.276 56.8473 109.276 56.8588 109.276 56.8817C109.276 56.8817 109.276 56.8932 109.276 56.9162L109.242 56.9506ZM109.311 57.0539L109.276 57.0195L109.414 56.8129C109.391 56.9047 109.368 56.9736 109.345 57.0195C109.322 57.0424 109.311 57.0539 109.311 57.0539ZM109.896 60.1187L109.827 60.0843C109.85 60.0613 109.862 60.0498 109.862 60.0498C109.862 60.0269 109.862 60.0154 109.862 60.0154C109.862 60.0154 109.873 60.0039 109.896 59.981C109.896 59.981 109.919 59.9695 109.965 59.9465L110 60.0843C110 60.0843 109.988 60.0843 109.965 60.0843C109.965 60.0843 109.954 60.0957 109.931 60.1187C109.931 60.1187 109.919 60.1187 109.896 60.1187ZM109.552 56.6063L109.517 56.5374C109.517 56.5144 109.517 56.503 109.517 56.503C109.517 56.48 109.529 56.4685 109.552 56.4685L109.586 56.5374L109.552 56.6063ZM110.137 59.2578C110.137 59.2578 110.126 59.2578 110.103 59.2578C110.103 59.2349 110.103 59.2234 110.103 59.2234C110.103 59.2004 110.103 59.1889 110.103 59.1889C110.126 59.1889 110.137 59.1889 110.137 59.1889H110.172L110.137 59.2578ZM109.69 56.4341L109.655 56.3308C109.678 56.3078 109.69 56.2849 109.69 56.2619C109.69 56.2389 109.69 56.2275 109.69 56.2275C109.713 56.2045 109.724 56.193 109.724 56.193L109.896 56.1242C109.85 56.1701 109.804 56.2275 109.759 56.2963C109.736 56.3423 109.724 56.3767 109.724 56.3996C109.724 56.4226 109.713 56.4341 109.69 56.4341ZM109.965 55.952C109.942 55.952 109.931 55.952 109.931 55.952C109.908 55.952 109.896 55.952 109.896 55.952C109.896 55.952 109.896 55.9405 109.896 55.9175L110.275 55.3666C110.275 55.3436 110.287 55.3092 110.31 55.2633C110.355 55.2174 110.401 55.16 110.447 55.0911C110.493 55.0222 110.539 54.9648 110.585 54.9189C110.631 54.85 110.654 54.8041 110.654 54.7812L110.619 54.7123H110.688C110.688 54.7123 110.711 54.7008 110.757 54.6779C110.826 54.6319 110.895 54.5631 110.964 54.4712H110.998C110.952 54.586 110.929 54.6549 110.929 54.6779C110.929 54.6779 110.918 54.6893 110.895 54.7123C110.895 54.7353 110.883 54.7582 110.86 54.7812C110.86 54.7812 110.838 54.8041 110.792 54.85C110.769 54.873 110.734 54.9304 110.688 55.0222C110.642 55.0911 110.585 55.1829 110.516 55.2977C110.424 55.4125 110.344 55.4928 110.275 55.5388C110.229 55.5617 110.195 55.5961 110.172 55.6421C110.149 55.665 110.137 55.688 110.137 55.7109V55.7454C110.137 55.7913 110.114 55.8372 110.068 55.8831C110.045 55.929 110.011 55.952 109.965 55.952ZM109.931 56.0897C109.931 56.0897 109.919 56.0897 109.896 56.0897C109.896 56.0897 109.896 56.0782 109.896 56.0553C109.896 56.0553 109.896 56.0438 109.896 56.0209H109.931C109.954 56.0209 109.965 56.0209 109.965 56.0209C109.965 56.0209 109.965 56.0323 109.965 56.0553C109.965 56.0782 109.965 56.0897 109.965 56.0897C109.965 56.0897 109.954 56.0897 109.931 56.0897ZM111.033 54.4368H110.998C110.998 54.345 111.044 54.2417 111.136 54.1269C111.228 54.0121 111.331 53.8973 111.446 53.7825C111.515 53.7137 111.572 53.6448 111.618 53.5759C111.687 53.4841 111.721 53.4267 111.721 53.4037V53.3693C111.721 53.3463 111.733 53.3234 111.756 53.3004C111.802 53.2545 111.836 53.2201 111.859 53.1971C111.905 53.1512 111.939 53.1283 111.962 53.1283C111.985 53.1283 111.997 53.1397 111.997 53.1627C111.928 53.2545 111.882 53.3234 111.859 53.3693C111.813 53.4152 111.779 53.4497 111.756 53.4726C111.756 53.4956 111.756 53.5185 111.756 53.5415L111.79 53.6104H111.687C111.687 53.6333 111.675 53.6448 111.652 53.6448C111.652 53.6448 111.652 53.6563 111.652 53.6792C111.63 53.6792 111.595 53.7022 111.549 53.7481C111.526 53.7711 111.48 53.8284 111.411 53.9203C111.32 54.058 111.251 54.1728 111.205 54.2646C111.159 54.3335 111.124 54.3794 111.102 54.4024C111.079 54.4253 111.056 54.4368 111.033 54.4368ZM111.411 56.3996C111.388 56.3996 111.377 56.3767 111.377 56.3308C111.377 56.3078 111.377 56.2849 111.377 56.2619C111.4 56.2389 111.434 56.216 111.48 56.193L111.515 56.2619C111.515 56.2849 111.503 56.3193 111.48 56.3652C111.457 56.3882 111.434 56.3996 111.411 56.3996ZM111.308 55.6076L111.274 55.5388H111.343C111.366 55.5388 111.377 55.5388 111.377 55.5388C111.377 55.5388 111.377 55.5502 111.377 55.5732C111.377 55.5961 111.366 55.6076 111.343 55.6076C111.343 55.6076 111.331 55.6076 111.308 55.6076ZM111.79 54.1269C111.813 54.1039 111.825 54.081 111.825 54.058C111.848 54.0351 111.859 54.0236 111.859 54.0236C111.882 54.0236 111.905 54.0121 111.928 53.9891V54.0236L111.79 54.1269ZM112.031 53.0594C112.031 53.0364 112.031 53.0249 112.031 53.0249C112.031 53.002 112.043 52.979 112.066 52.9561L112.169 52.9216L112.135 53.0249L112.031 53.0594ZM113.796 57.8459C113.75 57.8459 113.716 57.8459 113.693 57.8459C113.693 57.8459 113.693 57.8574 113.693 57.8804L113.796 57.8459ZM112.487 55.6076H112.522L112.556 55.5732C112.579 55.5732 112.625 55.5617 112.694 55.5388C112.809 55.4928 112.946 55.4354 113.107 55.3666C113.291 55.2977 113.451 55.2288 113.589 55.16C113.75 55.0911 113.876 55.0222 113.968 54.9533L115.483 53.8858C115.506 53.8858 115.518 53.8744 115.518 53.8514C115.541 53.8284 115.552 53.8055 115.552 53.7825C115.575 53.7596 115.587 53.7481 115.587 53.7481C115.587 53.7251 115.598 53.7137 115.621 53.7137C115.667 53.7137 115.747 53.6563 115.862 53.5415C116 53.4267 116.126 53.3004 116.241 53.1627C116.379 53.0249 116.482 52.9102 116.551 52.8183C116.574 52.7954 116.585 52.7724 116.585 52.7495C116.585 52.7265 116.585 52.6921 116.585 52.6462C116.608 52.6002 116.654 52.5658 116.723 52.5428C116.769 52.4969 116.803 52.4395 116.826 52.3707C116.849 52.3018 116.907 52.1985 116.998 52.0607C117.067 51.9919 117.113 51.9115 117.136 51.8197C117.136 51.7738 117.125 51.7393 117.102 51.7164C117.102 51.6934 117.09 51.682 117.067 51.682C116.815 51.7508 116.597 51.8082 116.413 51.8541C116.115 51.923 115.931 51.9919 115.862 52.0607C115.793 52.0607 115.724 52.0837 115.655 52.1296C115.587 52.1755 115.518 52.2214 115.449 52.2674C115.38 52.3133 115.311 52.3592 115.242 52.4051C115.196 52.4281 115.139 52.4395 115.07 52.4395C115.047 52.4395 115.013 52.451 114.967 52.474C114.921 52.4969 114.875 52.5199 114.829 52.5428C114.806 52.5658 114.794 52.5888 114.794 52.6117C114.657 52.6347 114.553 52.6691 114.485 52.715C114.439 52.738 114.381 52.7839 114.312 52.8528C114.266 52.9446 114.163 53.0594 114.002 53.1971C113.75 53.5185 113.566 53.7596 113.451 53.9203C113.268 54.1269 113.176 54.2646 113.176 54.3335C113.176 54.3565 113.165 54.3794 113.142 54.4024C113.142 54.4253 113.13 54.4368 113.107 54.4368L112.522 55.4354L112.487 55.6076ZM122.198 54.8156C122.221 54.8386 122.233 54.8615 122.233 54.8845L122.164 54.9189L122.095 54.8845L122.129 54.85L122.198 54.8156ZM115.69 59.8777L115.552 59.8432L115.793 59.7743L115.862 59.8432L115.69 59.8777ZM118.135 58.3625C118.112 58.3625 118.089 58.374 118.066 58.3969C118.066 58.4199 118.054 58.4543 118.031 58.5002C118.123 58.5002 118.215 58.4887 118.307 58.4658C118.422 58.4199 118.514 58.374 118.582 58.328C118.674 58.2821 118.732 58.2592 118.755 58.2592L118.307 58.5347C118.307 58.5806 118.261 58.6265 118.169 58.6724C118.077 58.6954 117.974 58.7298 117.859 58.7757C117.79 58.7987 117.733 58.8216 117.687 58.8446C117.641 58.8446 117.618 58.8561 117.618 58.879C117.618 58.902 117.549 58.9479 117.412 59.0168C117.297 59.0856 117.159 59.166 116.998 59.2578C116.838 59.3267 116.677 59.3956 116.516 59.4644C116.379 59.5103 116.275 59.5333 116.206 59.5333C116.069 59.5333 115.954 59.5792 115.862 59.671C115.724 59.7399 115.529 59.8203 115.277 59.9121C115.024 60.0039 114.634 60.0728 114.106 60.1187H114.037L114.002 60.1531C113.98 60.1761 113.957 60.1876 113.934 60.1876C113.934 60.1876 113.922 60.1991 113.899 60.222C113.876 60.222 113.83 60.222 113.761 60.222L113.073 60.1876C113.027 60.1646 112.958 60.1417 112.866 60.1187C112.774 60.0957 112.671 60.0728 112.556 60.0498C112.35 60.0039 112.154 59.958 111.971 59.9121C111.787 59.8432 111.695 59.7858 111.695 59.7399L111.351 59.4989C111.351 59.4759 111.328 59.4415 111.282 59.3956C111.213 59.3267 111.144 59.2578 111.075 59.1889C110.984 59.1201 110.915 59.0627 110.869 59.0168C110.8 58.9479 110.766 58.902 110.766 58.879C110.444 58.351 110.226 57.8 110.111 57.2261C110.088 57.1802 110.065 57.1228 110.042 57.0539C110.019 56.9851 109.996 56.8817 109.973 56.744C109.951 56.6063 109.939 56.4685 109.939 56.3308C109.962 56.193 109.985 56.0897 110.008 56.0209C110.008 55.952 110.019 55.8946 110.042 55.8487C110.042 55.8028 110.042 55.7568 110.042 55.7109C110.065 55.688 110.088 55.6421 110.111 55.5732C110.134 55.5043 110.169 55.401 110.215 55.2633C110.215 55.2403 110.215 55.2288 110.215 55.2288C110.215 55.2059 110.226 55.1944 110.249 55.1944C110.456 54.896 110.593 54.7008 110.662 54.609C110.731 54.5172 110.788 54.4483 110.834 54.4024C110.857 54.3335 110.903 54.2532 110.972 54.1613C111.018 54.0465 111.098 53.8629 111.213 53.6104L111.351 53.4726C111.466 53.3349 111.684 53.1053 112.005 52.7839C112.327 52.4625 112.855 52.0263 113.589 51.4753C113.635 51.4294 113.693 51.3835 113.761 51.3376C113.853 51.2687 113.934 51.2228 114.002 51.1999C114.094 51.1539 114.175 51.1195 114.244 51.0965L114.278 51.0621H114.312C114.312 51.0392 114.347 51.0162 114.416 50.9932C114.508 50.9473 114.599 50.9014 114.691 50.8555C114.783 50.8325 114.863 50.8096 114.932 50.7866C115.001 50.7637 115.047 50.7407 115.07 50.7178L115.724 50.58C115.77 50.5571 115.828 50.5456 115.896 50.5456C115.988 50.5226 116.069 50.5111 116.137 50.5111L116.723 50.5456C116.723 50.5226 116.734 50.5111 116.757 50.5111C116.78 50.4882 116.826 50.4767 116.895 50.4767C117.01 50.4767 117.182 50.4308 117.412 50.339C117.458 50.339 117.492 50.3504 117.515 50.3734C117.538 50.3734 117.549 50.3849 117.549 50.4078C117.572 50.4308 117.595 50.4423 117.618 50.4423V50.4767C117.618 50.4997 117.618 50.5111 117.618 50.5111C117.641 50.5111 117.664 50.5226 117.687 50.5456C117.71 50.5456 117.733 50.5571 117.756 50.58C117.779 50.58 117.802 50.603 117.825 50.6489C117.871 50.6948 117.928 50.7292 117.997 50.7522C118.066 50.7751 118.123 50.8096 118.169 50.8555C118.238 50.9014 118.272 51.0047 118.272 51.1654C118.272 51.2802 118.261 51.372 118.238 51.4409C118.238 51.4868 118.227 51.5327 118.204 51.5786C118.158 51.6475 118.112 51.7623 118.066 51.923C118.043 51.923 118.031 51.9345 118.031 51.9574C118.031 51.9574 118.031 51.9689 118.031 51.9919C118.031 52.0607 118.031 52.1067 118.031 52.1296C118.031 52.1526 118.02 52.1755 117.997 52.1985C117.997 52.1985 117.986 52.1985 117.963 52.1985C117.871 52.4051 117.813 52.5773 117.79 52.715C117.744 52.8298 117.71 52.9102 117.687 52.9561C117.664 52.9561 117.641 52.9676 117.618 52.9905C117.618 53.0135 117.618 53.0364 117.618 53.0594C117.595 53.1053 117.572 53.1512 117.549 53.1971C117.549 53.243 117.526 53.2775 117.48 53.3004C117.412 53.3693 117.377 53.4267 117.377 53.4726C117.377 53.5644 117.343 53.6563 117.274 53.7481C117.228 53.817 117.125 53.9318 116.964 54.0925C116.872 54.1843 116.757 54.3105 116.62 54.4712C116.62 54.4942 116.585 54.5516 116.516 54.6434C116.447 54.7123 116.367 54.7812 116.275 54.85C116.16 54.9419 116.069 55.0337 116 55.1255C115.931 55.1944 115.896 55.2403 115.896 55.2633C115.896 55.2862 115.885 55.2977 115.862 55.2977C115.862 55.2977 115.851 55.2977 115.828 55.2977L115.724 55.401C115.655 55.4699 115.552 55.5388 115.414 55.6076C115.368 55.6535 115.277 55.7109 115.139 55.7798C115.024 55.8487 114.909 55.9175 114.794 55.9864C114.703 56.0553 114.657 56.1242 114.657 56.193V56.2619H114.622C114.508 56.2849 114.416 56.3078 114.347 56.3308C114.301 56.3537 114.255 56.3767 114.209 56.3996C114.186 56.3996 114.163 56.3996 114.14 56.3996C114.14 56.3996 114.14 56.4111 114.14 56.4341L114.071 56.4685C114.048 56.4685 114.014 56.4915 113.968 56.5374C113.922 56.5833 113.865 56.6407 113.796 56.7096C113.704 56.8014 113.612 56.8932 113.52 56.9851C113.429 57.0539 113.36 57.0884 113.314 57.0884C113.245 57.0884 113.176 57.1228 113.107 57.1917C113.015 57.2376 112.878 57.295 112.694 57.3638C112.51 57.4098 112.327 57.4327 112.143 57.4327L112.109 57.4672L111.971 57.4327C111.948 57.4327 111.925 57.4327 111.902 57.4327C111.902 57.4327 111.902 57.4442 111.902 57.4672C111.902 57.5131 111.936 57.5819 112.005 57.6738C112.097 57.7426 112.189 57.8115 112.281 57.8804C112.395 57.9263 112.487 57.9493 112.556 57.9493C112.832 57.9493 113.302 57.8574 113.968 57.6738L114.002 57.6049C114.025 57.6049 114.037 57.6164 114.037 57.6393C114.037 57.6393 114.037 57.6508 114.037 57.6738C114.014 57.7426 113.98 57.7886 113.934 57.8115H114.002C114.071 57.7886 114.117 57.7771 114.14 57.7771C114.186 57.7541 114.221 57.7426 114.244 57.7426C114.289 57.7426 114.347 57.7312 114.416 57.7082C114.485 57.7082 114.588 57.6967 114.726 57.6738V57.7771H114.76L115.036 57.6738V57.6393C115.058 57.6393 115.07 57.6393 115.07 57.6393C115.093 57.6393 115.104 57.6393 115.104 57.6393C115.127 57.6393 115.139 57.6279 115.139 57.6049L115.208 57.5705C115.323 57.5705 115.46 57.5245 115.621 57.4327C115.805 57.3409 115.988 57.2376 116.172 57.1228C116.379 57.008 116.574 56.9047 116.757 56.8129C116.941 56.721 117.09 56.6751 117.205 56.6751C117.228 56.6751 117.251 56.6751 117.274 56.6751C117.297 56.6522 117.32 56.6292 117.343 56.6063C117.366 56.5833 117.389 56.5603 117.412 56.5374C117.618 56.4456 117.779 56.3652 117.894 56.2963C118.008 56.2275 118.112 56.1471 118.204 56.0553L118.72 55.7454C118.766 55.7224 118.823 55.6765 118.892 55.6076C118.984 55.5388 119.087 55.4584 119.202 55.3666C119.317 55.2747 119.42 55.1944 119.512 55.1255C119.604 55.0337 119.661 54.9878 119.684 54.9878L119.581 55.0911C119.581 55.114 119.581 55.1255 119.581 55.1255C119.604 55.1255 119.627 55.1255 119.65 55.1255C119.673 55.1255 119.684 55.1255 119.684 55.1255C119.707 55.1026 119.719 55.0796 119.719 55.0567C119.719 55.0107 119.719 54.9763 119.719 54.9533C119.719 54.9304 119.73 54.9189 119.753 54.9189L119.857 54.8845L119.822 54.85C119.822 54.8271 119.834 54.8041 119.857 54.7812C119.879 54.7353 119.902 54.7008 119.925 54.6779C119.971 54.6549 120.006 54.6319 120.029 54.609C120.052 54.5631 120.063 54.5172 120.063 54.4712L120.132 54.5057C120.155 54.5057 120.178 54.4942 120.201 54.4712C120.224 54.4483 120.247 54.4253 120.27 54.4024L120.304 54.3679C120.304 54.345 120.316 54.3335 120.339 54.3335C120.362 54.3105 120.396 54.2991 120.442 54.2991C120.511 54.2761 120.568 54.2417 120.614 54.1958C120.683 54.1498 120.717 54.0925 120.717 54.0236C120.717 54.0006 120.717 53.9891 120.717 53.9891C120.74 53.9891 120.763 53.9891 120.786 53.9891C120.832 53.9891 120.878 53.9662 120.924 53.9203C120.993 53.8744 121.062 53.817 121.131 53.7481C121.177 53.7022 121.222 53.6677 121.268 53.6448C121.314 53.5989 121.349 53.5759 121.372 53.5759C121.418 53.5759 121.464 53.5415 121.509 53.4726C121.509 53.4267 121.509 53.4037 121.509 53.4037C121.532 53.3808 121.555 53.3693 121.578 53.3693C121.624 53.3693 121.67 53.3578 121.716 53.3349C121.762 53.266 121.808 53.2086 121.854 53.1627C121.923 53.1168 121.969 53.0938 121.992 53.0938C122.015 53.0938 122.026 53.1053 122.026 53.1283C122.026 53.1283 122.026 53.1397 122.026 53.1627C122.026 53.2086 121.957 53.2775 121.819 53.3693L121.578 53.6104V53.6448L121.647 53.5759C121.716 53.53 121.762 53.4956 121.785 53.4726C121.831 53.4497 121.865 53.4382 121.888 53.4382H121.923C121.923 53.4152 121.934 53.4037 121.957 53.4037C121.957 53.3808 121.98 53.3578 122.026 53.3349C122.118 53.266 122.267 53.1971 122.474 53.1283C122.451 53.1742 122.428 53.2086 122.405 53.2316H122.37V53.266L122.474 53.3693C122.29 53.3693 122.198 53.4267 122.198 53.5415V53.5759C122.198 53.5989 122.187 53.6218 122.164 53.6448C122.164 53.6448 122.141 53.6448 122.095 53.6448C122.049 53.6907 122.015 53.7251 121.992 53.7481C121.969 53.7711 121.957 53.794 121.957 53.817V53.8514H121.992L122.37 53.6448C122.393 53.6448 122.405 53.6563 122.405 53.6792C122.428 53.6792 122.439 53.6907 122.439 53.7137C122.462 53.7137 122.474 53.7251 122.474 53.7481V53.7825L122.439 53.817C122.416 53.817 122.393 53.8284 122.37 53.8514C122.37 53.8514 122.37 53.8629 122.37 53.8858C122.37 53.9088 122.37 53.9318 122.37 53.9547C122.393 53.9547 122.416 53.9547 122.439 53.9547C122.462 53.9547 122.474 53.9547 122.474 53.9547C122.474 53.9318 122.485 53.9088 122.508 53.8858V53.8514H122.543L122.611 53.8858L122.577 53.9203C122.554 53.9432 122.52 53.9662 122.474 53.9891C122.428 54.0351 122.37 54.081 122.301 54.1269C122.256 54.1728 122.233 54.2072 122.233 54.2302C122.324 54.2072 122.405 54.1843 122.474 54.1613C122.565 54.0925 122.669 54.058 122.784 54.058C122.784 54.081 122.749 54.1154 122.68 54.1613C122.611 54.2072 122.543 54.2532 122.474 54.2991C122.382 54.345 122.301 54.3909 122.233 54.4368C122.164 54.4598 122.129 54.4942 122.129 54.5401L122.164 54.5746L122.301 54.4712L122.336 54.5057C122.336 54.5286 122.324 54.5516 122.301 54.5746C122.279 54.5975 122.256 54.6319 122.233 54.6779C122.21 54.7008 122.187 54.7353 122.164 54.7812C122.118 54.8271 122.095 54.8615 122.095 54.8845V54.9189C122.095 54.9648 122.015 55.0567 121.854 55.1944L121.613 55.4354C121.544 55.4354 121.475 55.4699 121.406 55.5388C121.36 55.6076 121.291 55.7109 121.2 55.8487C121.154 55.8946 121.108 55.952 121.062 56.0209C121.085 56.0209 121.108 56.0209 121.131 56.0209C121.177 55.9979 121.211 55.9864 121.234 55.9864C121.234 55.9635 121.245 55.952 121.268 55.952C121.268 55.9749 121.245 56.0094 121.2 56.0553C121.154 56.0782 121.096 56.1012 121.027 56.1242C121.004 56.1242 120.981 56.1356 120.958 56.1586C120.936 56.1816 120.901 56.216 120.855 56.2619C120.832 56.3078 120.798 56.3537 120.752 56.3996C120.706 56.4226 120.66 56.4341 120.614 56.4341C120.522 56.503 120.442 56.5489 120.373 56.5718C120.35 56.5718 120.327 56.5833 120.304 56.6063C120.281 56.6063 120.27 56.6177 120.27 56.6407C120.27 56.7325 120.224 56.8129 120.132 56.8817C120.04 56.9277 119.948 56.9506 119.857 56.9506C119.834 56.9965 119.788 57.0424 119.719 57.0884C119.673 57.1113 119.615 57.1458 119.547 57.1917C119.478 57.2376 119.42 57.2835 119.374 57.3294C119.329 57.3524 119.306 57.3868 119.306 57.4327L119.202 57.3638C118.973 57.5475 118.789 57.6738 118.651 57.7426C118.537 57.8115 118.456 57.8574 118.41 57.8804C118.364 57.8804 118.33 57.8919 118.307 57.9148C118.307 57.9148 118.307 57.9263 118.307 57.9493C118.445 57.9493 118.628 57.8689 118.858 57.7082C118.927 57.6852 118.996 57.6508 119.065 57.6049L119.099 57.6393C119.099 57.6623 119.076 57.6852 119.03 57.7082C119.007 57.7312 118.973 57.7656 118.927 57.8115C118.904 57.8345 118.869 57.8574 118.823 57.8804C118.801 57.8804 118.789 57.8919 118.789 57.9148H118.755C118.571 58.0066 118.422 58.0755 118.307 58.1214C118.238 58.1673 118.181 58.2018 118.135 58.2247C118.089 58.2477 118.054 58.2707 118.031 58.2936C118.031 58.2936 118.02 58.3051 117.997 58.328L118.341 58.2592V58.2936C118.341 58.3166 118.33 58.328 118.307 58.328C118.307 58.328 118.295 58.328 118.272 58.328H118.238L118.135 58.3625ZM115.518 59.8777C115.472 59.9006 115.426 59.9236 115.38 59.9465C115.334 59.9465 115.3 59.9465 115.277 59.9465L115.518 59.8432H115.552L115.518 59.8777Z" fill="white"/>
</svg>
