<svg width="34" height="38" viewBox="0 0 34 38" fill="none" xmlns="http://www.w3.org/2000/svg">
<path d="M27.9709 8.70453C29.3131 9.8171 30.2049 11.1681 30.6464 12.7575C31.0702 14.2232 31.0791 15.7155 30.6729 17.2342C30.2844 18.7177 29.5868 19.9804 28.5802 21.0223L18.779 31.009C18.1785 31.5917 17.481 31.8831 16.6863 31.8831C15.8916 31.8831 15.194 31.5917 14.5936 31.009L4.84532 21.0223C3.82104 19.9804 3.10582 18.7177 2.69964 17.2342C2.29346 15.7155 2.30229 14.2232 2.72613 12.7575C3.16763 11.1681 4.05945 9.8171 5.4016 8.70453C6.46119 7.80387 7.67973 7.22993 9.0572 6.98269C10.417 6.75311 11.7768 6.85907 13.1366 7.30057C14.4964 7.74207 15.6885 8.48378 16.7128 9.52571C17.7194 8.48378 18.8982 7.74207 20.2491 7.30057C21.6001 6.85907 22.9467 6.75311 24.2888 6.98269C25.684 7.22993 26.9113 7.80387 27.9709 8.70453ZM26.6464 19.115C27.3352 18.4263 27.8164 17.5698 28.0901 16.5455C28.3639 15.5212 28.3594 14.5146 28.0769 13.5257C27.759 12.4308 27.1497 11.486 26.2491 10.6913C25.5427 10.1085 24.7259 9.74205 23.7988 9.59194C22.8716 9.44183 21.9533 9.51688 21.0438 9.8171C20.1344 10.1173 19.3441 10.6206 18.673 11.327L16.7128 13.3138L14.7525 11.327C14.0638 10.6206 13.2602 10.1217 12.3419 9.83035C11.4236 9.53896 10.5009 9.46832 9.57375 9.61843C8.6466 9.76854 7.82984 10.1526 7.12344 10.7707C6.20513 11.5301 5.59586 12.4484 5.29564 13.5257C5.01308 14.5323 5.00867 15.5433 5.2824 16.5588C5.55613 17.5742 6.03736 18.4263 6.72609 19.115L16.5008 29.1017C16.6421 29.2076 16.7657 29.2076 16.8717 29.1017L26.6464 19.115Z" fill="#222222"/>
</svg>
