<svg width="29" height="40" viewBox="0 0 29 40" fill="none" xmlns="http://www.w3.org/2000/svg">
<path d="M12.9346 7.2717C10.8443 7.2717 8.90198 7.79889 7.10767 8.85328C5.36885 9.87068 3.98149 11.258 2.9456 13.0153C1.89121 14.8097 1.36401 16.752 1.36401 18.8422C1.36401 20.9325 1.89121 22.8748 2.9456 24.6691C3.98149 26.4265 5.36885 27.8138 7.10767 28.8312C8.90198 29.8856 10.8443 30.4128 12.9346 30.4128C14.2479 30.4128 15.5243 30.1954 16.7637 29.7607C18.003 29.326 19.1314 28.7017 20.1488 27.8878L24.9768 32.688C25.2358 32.9285 25.5364 33.0441 25.8786 33.0349C26.2208 33.0256 26.5121 32.9008 26.7526 32.6603C26.9931 32.4198 27.118 32.1239 27.1272 31.7724C27.1365 31.4209 27.0301 31.125 26.8081 30.8845L21.9801 26.0565C22.794 25.0391 23.4183 23.9107 23.853 22.6713C24.2878 21.432 24.5051 20.1556 24.5051 18.8422C24.5051 16.752 23.9779 14.8097 22.9235 13.0153C21.9061 11.258 20.528 9.87068 18.7892 8.85328C16.9764 7.79889 15.0248 7.2717 12.9346 7.2717ZM12.9346 9.85218C14.5809 9.85218 16.0977 10.2591 17.4851 11.0731C18.8539 11.8685 19.9361 12.9414 20.7315 14.2917C21.5454 15.6791 21.9524 17.1913 21.9524 18.8284C21.9524 20.4654 21.5454 21.9869 20.7315 23.3928C19.9361 24.7431 18.8539 25.816 17.4851 26.6114C16.0977 27.4438 14.5809 27.8601 12.9346 27.8601C11.7507 27.8601 10.6038 27.6288 9.49392 27.1664C8.38403 26.7039 7.40826 26.0519 6.5666 25.2102C5.72493 24.3685 5.0775 23.3928 4.6243 22.2829C4.1711 21.173 3.94449 20.0261 3.94449 18.8422C3.94449 17.1959 4.35145 15.6791 5.16537 14.2917C5.96078 12.9414 7.03367 11.8685 8.38403 11.0731C9.78989 10.2591 11.3067 9.85218 12.9346 9.85218Z" fill="#222222"/>
</svg>
