<svg width="26" height="35" viewBox="0 0 26 35" fill="none" xmlns="http://www.w3.org/2000/svg">
<path d="M12.4959 7.49602C11.6335 7.49602 10.839 7.70762 10.1123 8.13083C9.3857 8.55403 8.81078 9.12895 8.38757 9.85559C7.96437 10.5822 7.75276 11.3727 7.75276 12.2271C7.75276 13.0815 7.96437 13.872 8.38757 14.5987C8.81078 15.3253 9.3857 15.9002 10.1123 16.3234C10.839 16.7466 11.6295 16.9582 12.4839 16.9582C13.3383 16.9582 14.1288 16.7466 14.8554 16.3234C15.5821 15.9002 16.157 15.3253 16.5802 14.5987C17.0034 13.872 17.215 13.0815 17.215 12.2271C17.215 11.3727 17.0034 10.5822 16.5802 9.85559C16.157 9.12895 15.5821 8.55403 14.8554 8.13083C14.1288 7.70762 13.3423 7.49602 12.4959 7.49602ZM5.86032 12.2391C5.86032 11.0254 6.15576 9.91148 6.74665 8.89739C7.33754 7.88329 8.14403 7.0808 9.16611 6.48991C10.1882 5.89902 11.2981 5.60357 12.4959 5.60357C13.6936 5.60357 14.7995 5.89902 15.8136 6.48991C16.8277 7.0808 17.6302 7.88329 18.2211 8.89739C18.812 9.91148 19.1074 11.0214 19.1074 12.2271C19.1074 13.4329 18.812 14.5428 18.2211 15.5569C17.6302 16.571 16.8277 17.3735 15.8136 17.9644C14.7995 18.5552 13.6936 18.8507 12.4959 18.8507C11.2981 18.8507 10.1882 18.5552 9.16611 17.9644C8.14403 17.3735 7.33754 16.571 6.74665 15.5569C6.15576 14.5428 5.86032 13.4369 5.86032 12.2391ZM12.4959 23.9052C10.4677 23.9052 8.51932 24.3284 6.65083 25.1748C4.84622 25.9893 3.23325 27.1471 1.81192 28.6483C1.63625 28.8399 1.41667 28.9397 1.15316 28.9477C0.889656 28.9557 0.662083 28.8719 0.470443 28.6962C0.278803 28.5205 0.182983 28.3009 0.182983 28.0374C0.182983 27.7739 0.270818 27.5464 0.446488 27.3547C2.02752 25.6779 3.83213 24.3763 5.86032 23.45C7.98433 22.4918 10.1962 22.0127 12.4959 22.0127C14.7955 22.0127 16.9994 22.4918 19.1074 23.45C21.1356 24.3763 22.9482 25.6779 24.5452 27.3547C24.7209 27.5464 24.8047 27.7739 24.7967 28.0374C24.7888 28.3009 24.689 28.5205 24.4973 28.6962C24.3057 28.8719 24.0781 28.9557 23.8146 28.9477C23.5511 28.9397 23.3315 28.8399 23.1558 28.6483C21.7345 27.1471 20.1215 25.9893 18.3169 25.1748C16.4644 24.3284 14.524 23.9052 12.4959 23.9052Z" fill="#222222"/>
</svg>
