<svg width="22" height="21" viewBox="0 0 22 21" fill="none" xmlns="http://www.w3.org/2000/svg">
<path d="M19.7228 6.84906V2.85419H14.7125L12.8909 1.39914C11.9386 0.640353 10.5 0.637981 9.54429 1.39382L0.356934 8.6669V10.6594H2.04827V18.1202C2.04827 19.386 3.18638 20.4158 4.58528 20.4158H9.74387V14.7532H12.7037V20.4158H17.7777C19.1766 20.4158 20.3147 19.386 20.3147 18.1202V10.6594H22.0061V8.66835L19.7228 6.84906ZM18.6234 18.1202C18.6234 18.5421 18.244 18.8854 17.7777 18.8854H14.3951V13.2228H8.05253V18.8854H4.58528C4.11898 18.8854 3.73961 18.5421 3.73961 18.1202V10.6594H18.6234V18.1202ZM2.34193 9.12893L10.6577 2.54589C10.9761 2.29402 11.4556 2.29478 11.7723 2.54711L16.3401 6.19572V4.38461H18.0314V7.54062L20.0248 9.12893H2.34193Z" fill="white"/>
</svg>
