<svg width="19" height="19" viewBox="0 0 19 19" fill="none" xmlns="http://www.w3.org/2000/svg">
<path d="M9.30058 5.80493C7.10503 5.80493 5.33408 7.57588 5.33408 9.77143C5.33408 11.967 7.10503 13.7379 9.30058 13.7379C11.4961 13.7379 13.2671 11.967 13.2671 9.77143C13.2671 7.57588 11.4961 5.80493 9.30058 5.80493ZM9.30058 12.3502C7.88176 12.3502 6.72184 11.1937 6.72184 9.77143C6.72184 8.34915 7.8783 7.19269 9.30058 7.19269C10.7229 7.19269 11.8793 8.34915 11.8793 9.77143C11.8793 11.1937 10.7194 12.3502 9.30058 12.3502ZM14.3545 5.64268C14.3545 6.15705 13.9402 6.56786 13.4293 6.56786C12.915 6.56786 12.5042 6.1536 12.5042 5.64268C12.5042 5.13177 12.9184 4.71751 13.4293 4.71751C13.9402 4.71751 14.3545 5.13177 14.3545 5.64268ZM16.9816 6.58166C16.9229 5.34235 16.6398 4.24457 15.7319 3.34011C14.8274 2.43566 13.7297 2.15258 12.4903 2.09044C11.2131 2.01795 7.38465 2.01795 6.10736 2.09044C4.8715 2.14913 3.77372 2.4322 2.86581 3.33666C1.9579 4.24112 1.67828 5.3389 1.61614 6.57821C1.54364 7.8555 1.54364 11.6839 1.61614 12.9612C1.67482 14.2005 1.9579 15.2983 2.86581 16.2028C3.77372 17.1072 4.86805 17.3903 6.10736 17.4524C7.38465 17.5249 11.2131 17.5249 12.4903 17.4524C13.7297 17.3937 14.8274 17.1107 15.7319 16.2028C16.6364 15.2983 16.9194 14.2005 16.9816 12.9612C17.0541 11.6839 17.0541 7.85895 16.9816 6.58166ZM15.3315 14.3317C15.0622 15.0083 14.5409 15.5296 13.8608 15.8023C12.8425 16.2062 10.426 16.113 9.30058 16.113C8.17519 16.113 5.75524 16.2028 4.74032 15.8023C4.0637 15.533 3.54243 15.0118 3.26971 14.3317C2.86581 13.3133 2.95902 10.8968 2.95902 9.77143C2.95902 8.64604 2.86926 6.2261 3.26971 5.21117C3.53898 4.53455 4.06025 4.01328 4.74032 3.74056C5.7587 3.33666 8.17519 3.42987 9.30058 3.42987C10.426 3.42987 12.8459 3.34011 13.8608 3.74056C14.5375 4.00983 15.0587 4.5311 15.3315 5.21117C15.7354 6.22955 15.6421 8.64604 15.6421 9.77143C15.6421 10.8968 15.7354 13.3168 15.3315 14.3317Z" fill="white"/>
</svg>
