<svg width="18" height="19" viewBox="0 0 18 19" fill="none" xmlns="http://www.w3.org/2000/svg">
<path d="M5.95194 15.8224C5.97548 15.5399 6.01668 15.2633 6.07554 14.9925L6.85246 11.567C6.93486 11.2374 6.98783 11.0491 7.01137 11.002C6.84657 10.6253 6.76417 10.2251 6.76417 9.80128C6.76417 9.43637 6.82892 9.10088 6.9584 8.79482C7.08789 8.48876 7.26446 8.24745 7.48812 8.07087C7.71178 7.8943 7.95898 7.80601 8.22973 7.80601C8.54756 7.80601 8.81241 7.92961 9.0243 8.17682C9.11847 8.28276 9.1891 8.4093 9.23619 8.55645C9.28327 8.70359 9.29505 8.85368 9.2715 9.00671C9.2715 9.19505 9.24796 9.39517 9.20087 9.60705C9.15379 9.81894 9.05373 10.1897 8.9007 10.7195L8.75944 11.1962L8.6535 11.6376C8.60641 11.8024 8.60053 11.9672 8.63584 12.132C8.67116 12.2968 8.73884 12.444 8.8389 12.5735C8.93896 12.703 9.0655 12.8001 9.21853 12.8648C9.37156 12.9296 9.53048 12.9619 9.69528 12.9619C10.1073 12.9619 10.4781 12.7912 10.8077 12.4499C11.1373 12.1085 11.3992 11.6465 11.5934 11.0638C11.7877 10.4811 11.8848 9.8366 11.8848 9.13031C11.8848 8.29453 11.6258 7.6265 11.1079 7.12621C10.5899 6.62592 9.88362 6.37578 8.98899 6.37578C8.5299 6.35223 8.08847 6.42581 7.66469 6.59649C7.24092 6.76718 6.86717 7.01438 6.54346 7.3381C6.21974 7.66181 5.9696 8.04144 5.79302 8.47699C5.61645 8.91253 5.53405 9.35985 5.54582 9.81894C5.52228 10.3369 5.66354 10.8019 5.9696 11.2139C6.052 11.2727 6.10497 11.3492 6.12851 11.4434C6.15206 11.5376 6.15206 11.6259 6.12851 11.7083L5.9696 12.2733C5.9696 12.3322 5.95194 12.3822 5.91663 12.4234C5.88131 12.4646 5.84011 12.4999 5.79302 12.5293C5.74594 12.5588 5.69591 12.5735 5.64294 12.5735C5.58997 12.5735 5.53994 12.5617 5.49285 12.5382C5.01022 12.338 4.63942 11.982 4.38044 11.4699C4.12147 10.9578 3.99199 10.3487 3.99199 9.64237C3.99199 8.79482 4.20976 8.01201 4.6453 7.29395C5.08085 6.57589 5.68708 6.01086 6.464 5.59886C7.27623 5.15154 8.18852 4.92788 9.20087 4.92788C10.0602 4.92788 10.8489 5.128 11.5669 5.52823C12.2497 5.91669 12.7941 6.44052 13.2002 7.09972C13.6064 7.75893 13.8094 8.47699 13.8094 9.25391C13.8094 10.2427 13.6417 11.1256 13.3062 11.9025C12.9707 12.6794 12.5028 13.2886 11.9024 13.73C11.3021 14.1715 10.6193 14.3922 9.85419 14.3922C9.52459 14.4039 9.20676 14.3392 8.9007 14.1979C8.59464 14.0567 8.34155 13.8566 8.14144 13.5976L7.68235 15.4516C7.59995 15.7459 7.48812 16.0402 7.34686 16.3345C8.18264 16.5346 9.02724 16.5699 9.88068 16.4404C10.7341 16.3109 11.5316 16.0313 12.2732 15.6017C13.0148 15.172 13.6534 14.6188 14.189 13.9419C14.7247 13.265 15.1161 12.5146 15.3633 11.6906C15.6105 10.8666 15.6958 10.0279 15.6193 9.17445C15.5428 8.32102 15.3073 7.50878 14.913 6.73775C14.5186 5.96672 14.0007 5.29574 13.3592 4.72482C12.7176 4.15391 11.9907 3.72425 11.1785 3.43584C10.3663 3.14744 9.53048 3.01796 8.67116 3.04738C7.81184 3.07681 6.98783 3.26516 6.19914 3.61242C5.41045 3.95968 4.71299 4.43936 4.10676 5.05148C3.50052 5.6636 3.03261 6.36695 2.70301 7.16152C2.3734 7.9561 2.19977 8.78305 2.18212 9.64237C2.16446 10.5017 2.30572 11.3345 2.60589 12.1409C2.90606 12.9472 3.34455 13.6682 3.92136 14.3039C4.49816 14.9395 5.17502 15.4457 5.95194 15.8224ZM8.9007 18.1885C7.38218 18.1885 5.9696 17.8059 4.66296 17.0408C3.39164 16.2992 2.38518 15.2927 1.64357 14.0214C0.878423 12.7147 0.49585 11.2992 0.49585 9.7748C0.49585 8.25039 0.878423 6.83486 1.64357 5.52823C2.38518 4.25691 3.39164 3.25044 4.66296 2.50884C5.9696 1.74369 7.38512 1.36112 8.90953 1.36112C10.4339 1.36112 11.8495 1.74369 13.1561 2.50884C14.4274 3.25044 15.4339 4.25691 16.1755 5.52823C16.9406 6.83486 17.3232 8.25039 17.3232 9.7748C17.3232 11.2992 16.9406 12.7147 16.1755 14.0214C15.4339 15.2927 14.4274 16.2992 13.1561 17.0408C11.8495 17.8059 10.431 18.1885 8.9007 18.1885Z" fill="white"/>
</svg>
