<svg width="18" height="19" viewBox="0 0 18 19" fill="none" xmlns="http://www.w3.org/2000/svg">
<path d="M15.6085 8.04667H13.1696L10.0416 1.82594C9.8531 1.47249 9.58507 1.19268 9.23751 0.986498C8.88995 0.780317 8.50999 0.677227 8.09763 0.677227H5.39373L7.53211 8.04667H4.84589L3.14932 6.35011C2.96082 6.1616 2.73696 6.02317 2.47777 5.93481C2.21857 5.84644 1.95054 5.81993 1.67367 5.85528C1.3968 5.89062 1.14644 5.98488 0.922583 6.13804C0.698731 6.2912 0.516115 6.4856 0.374735 6.72123C0.209791 6.99221 0.127319 7.28675 0.127319 7.60486C0.127319 7.92297 0.209791 8.21751 0.374735 8.48849L2.63682 12.4648H7.51444L5.30537 18.3674H8.09763C8.49821 18.3674 8.86933 18.2673 9.211 18.067C9.55267 17.8667 9.82365 17.5957 10.0239 17.2541L13.0106 12.4648H17.8175V10.2557C17.8175 9.9612 17.7616 9.67844 17.6496 9.40746C17.5377 9.13648 17.3787 8.8979 17.1725 8.69172C16.9663 8.48554 16.7277 8.32649 16.4567 8.21456C16.1858 8.10264 15.903 8.04667 15.6085 8.04667ZM7.35538 2.14405H8.09763C8.22723 2.14405 8.35094 2.17645 8.46875 2.24125C8.58657 2.30605 8.67493 2.39735 8.73384 2.51517L11.5261 8.04667H9.05195L7.35538 2.14405ZM16.3507 10.998H12.18L8.75151 16.5118C8.68082 16.6296 8.58952 16.7239 8.47759 16.7946C8.36566 16.8653 8.23901 16.9006 8.09763 16.9006H7.42607L9.63514 10.998H3.50277L1.64716 7.74624C1.62359 7.7109 1.61181 7.66671 1.61181 7.6137C1.61181 7.56068 1.62359 7.51061 1.64716 7.46348C1.67072 7.41635 1.70607 7.37806 1.75319 7.34861C1.80032 7.31915 1.84745 7.30443 1.89457 7.30443C1.9417 7.30443 1.98294 7.31326 2.01828 7.33094C2.05363 7.34861 2.08897 7.36923 2.12432 7.39279L4.24502 9.51349H15.6085C15.8205 9.51349 15.9973 9.58713 16.1386 9.7344C16.28 9.88167 16.3507 10.0555 16.3507 10.2557V10.998Z" fill="white"/>
</svg>
