<svg width="21" height="19" viewBox="0 0 21 19" fill="none" xmlns="http://www.w3.org/2000/svg">
<path d="M18.0059 5.13986C17.9706 4.98683 17.9029 4.85735 17.8029 4.7514C17.7028 4.64546 17.5939 4.57483 17.4762 4.53952C17.1584 4.44534 16.4992 4.36294 15.4986 4.29232C14.1331 4.18637 12.4792 4.1334 10.5369 4.1334C8.59461 4.1334 6.94072 4.18637 5.57523 4.29232C4.56288 4.36294 3.90367 4.44534 3.59761 4.53952C3.46813 4.57483 3.3563 4.64546 3.26213 4.7514C3.16795 4.85735 3.10321 4.98683 3.0679 5.13986C2.9855 5.48124 2.90898 6.0345 2.83835 6.79965C2.73241 7.85908 2.67944 9.01563 2.67944 10.2693C2.67944 11.523 2.73241 12.6795 2.83835 13.7389C2.90898 14.5041 2.9855 15.0515 3.0679 15.3811C3.10321 15.5341 3.16795 15.6636 3.26213 15.7695C3.3563 15.8755 3.46813 15.9461 3.59761 15.9814C3.90367 16.0756 4.56288 16.1639 5.57523 16.2463C6.94072 16.3522 8.59461 16.4052 10.5369 16.4052C12.4792 16.4052 14.1331 16.3522 15.4986 16.2463C16.4992 16.1639 17.1584 16.0756 17.4762 15.9814C17.5939 15.9461 17.7028 15.8755 17.8029 15.7695C17.9029 15.6636 17.9706 15.5341 18.0059 15.3811C18.0883 15.0515 18.1648 14.5041 18.2355 13.7389C18.3414 12.6677 18.3944 11.5082 18.3944 10.2605C18.3944 9.01269 18.3414 7.85908 18.2355 6.79965C18.1648 6.0345 18.0883 5.48124 18.0059 5.13986ZM19.9129 4.6278C20.0424 5.16929 20.1425 5.92855 20.2131 6.90559C20.2719 7.60011 20.3131 8.36525 20.3367 9.20103L20.3543 10.2605L20.3367 11.3199C20.3131 12.1557 20.2719 12.9208 20.2131 13.6153C20.1425 14.5924 20.0424 15.3516 19.9129 15.8931C19.7834 16.3993 19.548 16.8378 19.2066 17.2086C18.8652 17.5794 18.465 17.8295 18.0059 17.959C17.4998 18.1003 16.6051 18.2121 15.322 18.2945C14.4038 18.3651 13.3268 18.4122 12.0908 18.4358L10.5369 18.4534L8.96542 18.4358C7.74118 18.4122 6.66998 18.3651 5.7518 18.2945C4.45693 18.2121 3.5623 18.1003 3.0679 17.959C2.59704 17.8178 2.19386 17.5647 1.85837 17.1998C1.52289 16.8348 1.2904 16.3993 1.16091 15.8931C1.03143 15.3516 0.925484 14.5924 0.843083 13.6153C0.795997 12.9208 0.760683 12.1557 0.73714 11.3199L0.719482 10.2605L0.73714 9.20103C0.760683 8.36525 0.795997 7.60011 0.843083 6.90559C0.925484 5.92855 1.03143 5.16929 1.16091 4.6278C1.2904 4.1334 1.52583 3.7008 1.8672 3.33C2.20858 2.95919 2.60881 2.70316 3.0679 2.5619C3.76241 2.36179 5.2162 2.22053 7.42924 2.13813C8.53576 2.10282 9.57165 2.08516 10.5369 2.08516L12.0908 2.10282C13.3268 2.12636 14.4038 2.16756 15.322 2.22642C16.6051 2.30882 17.4998 2.42065 18.0059 2.5619C18.465 2.70316 18.8652 2.95919 19.2066 3.33C19.548 3.7008 19.7834 4.1334 19.9129 4.6278ZM8.57696 13.8449V6.67604L14.4568 10.2605L8.57696 13.8449Z" fill="white"/>
</svg>
