<svg width="44" height="40" viewBox="0 0 44 40" fill="none" xmlns="http://www.w3.org/2000/svg">
<path d="M12.4099 3.03789C9.85456 3.03789 7.73012 3.75219 5.91504 5.56559C4.04881 7.42762 3.02181 9.89999 3.02097 12.53C3.02097 15.1616 4.04798 17.6365 5.9142 19.4985C7.30841 20.8911 19.3005 34.2254 20.9555 36.0657C21.2741 36.3624 21.6354 36.4052 21.8274 36.4052C22.0219 36.4052 22.3874 36.3599 22.7077 36.0564C29.4968 28.729 37.6006 19.9848 37.7548 19.8297C39.6395 17.9492 40.6657 15.4743 40.664 12.8427C40.664 10.2127 39.6361 7.7395 37.7716 5.87998C35.793 3.90561 33.7642 3.02532 31.1904 3.02532C29.2814 3.02532 26.4326 4.71464 23.7548 7.43517L21.8718 9.3475L19.9595 7.46535C16.103 3.66668 13.7253 3.03789 12.4099 3.03789ZM12.4099 0.355095C15.6905 0.355095 19.1169 2.87022 21.8416 5.55218C24.4825 2.86938 28.0188 0.340843 31.1895 0.340843C34.5086 0.340843 37.23 1.54726 39.6663 3.97855C44.5725 8.87382 44.5725 16.8115 39.6663 21.711C39.5079 21.8711 24.6317 37.9268 24.6317 37.9268C23.8554 38.7023 22.8418 39.0872 21.8265 39.0872C20.8121 39.0872 19.7943 38.7023 19.0197 37.9268C19.0197 37.9268 5.4204 22.7984 4.01863 21.3966C-0.888373 16.4997 -0.888373 8.56194 4.01863 3.66667C6.37363 1.31503 9.2023 0.355095 12.4099 0.355095Z" fill="#FC7E07"/>
</svg>
