<svg width="17" height="19" viewBox="0 0 17 19" fill="none" xmlns="http://www.w3.org/2000/svg">
<path d="M14.4804 9.52545V12.662C14.4804 13.4444 14.2026 14.1135 13.647 14.6691C13.0914 15.2247 12.4223 15.5026 11.6398 15.5026H3.43363C2.65114 15.5026 1.98209 15.2247 1.42646 14.6691C0.870832 14.1135 0.593018 13.4444 0.593018 12.662V4.45575C0.593018 3.67326 0.870832 3.00421 1.42646 2.44858C1.98209 1.89295 2.65114 1.61514 3.43363 1.61514H11.6398C12.0541 1.61514 12.4388 1.69733 12.7938 1.86172C12.8925 1.90775 12.9516 1.98336 12.9714 2.08857C12.9911 2.20035 12.9615 2.2957 12.8826 2.37461L12.3993 2.8579C12.3335 2.92366 12.2579 2.95654 12.1724 2.95654C12.1527 2.95654 12.1231 2.94996 12.0837 2.93681C11.9324 2.89736 11.7845 2.87763 11.6398 2.87763H3.43363C2.99965 2.87763 2.62813 3.03215 2.31908 3.3412C2.01003 3.65025 1.85551 4.02176 1.85551 4.45575V12.662C1.85551 13.0959 2.01003 13.4675 2.31908 13.7765C2.62813 14.0855 2.99965 14.2401 3.43363 14.2401H11.6398C12.0738 14.2401 12.4453 14.0855 12.7544 13.7765C13.0634 13.4675 13.2179 13.0959 13.2179 12.662V10.1567C13.2179 10.0712 13.2475 9.99888 13.3067 9.9397L13.938 9.30846C14.0037 9.2427 14.0793 9.20982 14.1648 9.20982C14.2043 9.20982 14.2437 9.21969 14.2832 9.23941C14.4147 9.29202 14.4804 9.38736 14.4804 9.52545ZM16.7589 4.70233L8.73018 12.731C8.57237 12.8888 8.38497 12.9677 8.16798 12.9677C7.95099 12.9677 7.76358 12.8888 7.60577 12.731L3.36458 8.48981C3.20677 8.332 3.12787 8.14459 3.12787 7.9276C3.12787 7.71061 3.20677 7.52321 3.36458 7.3654L4.44954 6.28044C4.60735 6.12263 4.79475 6.04373 5.01174 6.04373C5.22873 6.04373 5.41614 6.12263 5.57395 6.28044L8.16798 8.87447L14.5495 2.49296C14.7073 2.33515 14.8947 2.25625 15.1117 2.25625C15.3287 2.25625 15.5161 2.33515 15.6739 2.49296L16.7589 3.57792C16.9167 3.73573 16.9956 3.92313 16.9956 4.14012C16.9956 4.35711 16.9167 4.54452 16.7589 4.70233Z" fill="#FC7E07"/>
</svg>
