<svg width="44" height="44" viewBox="0 0 44 44" fill="none" xmlns="http://www.w3.org/2000/svg">
<path d="M43.767 35.4623C44.0169 35.9259 43.9741 36.4935 43.6539 36.9118C43.3353 37.331 42.8029 37.5314 42.2865 37.4073L35.5535 35.8622L33.2488 42.2808C33.0702 42.7771 32.6175 43.1225 32.091 43.1652C32.0558 43.1678 32.0206 43.1686 31.9862 43.1686C31.4983 43.1686 31.0472 42.9045 30.81 42.4719L23.7986 29.6867C23.3442 29.7295 22.884 29.7538 22.4178 29.7538C21.9098 29.7538 21.4067 29.7278 20.9121 29.6775L14.05 42.4618C13.8153 42.9003 13.3592 43.1694 12.8687 43.1694C12.836 43.1694 12.8033 43.1686 12.769 43.1652C12.2416 43.1267 11.7856 42.7804 11.6061 42.2816L9.30146 35.863L2.56847 37.4073C2.05455 37.528 1.51715 37.3302 1.19857 36.9101C0.879985 36.4884 0.838066 35.9183 1.09209 35.4556L8.97701 21.0758C8.14031 19.2246 7.66998 17.1706 7.66998 15.0059C7.66998 6.86195 14.2722 0.258911 22.4187 0.258911C30.5626 0.258911 37.1657 6.86111 37.1657 15.0059C37.1657 17.1195 36.718 19.1282 35.9173 20.9458L43.767 35.4623ZM13.1127 38.5383L18.1639 29.1292C15.0837 28.2019 12.4278 26.2971 10.5582 23.772L4.88239 34.125L9.86233 32.9832C10.5246 32.8256 11.1945 33.1978 11.4251 33.8366L13.1127 38.5383ZM10.3645 15.0059C10.3645 21.6526 15.772 27.0609 22.4195 27.0609C29.0653 27.0609 34.472 21.6526 34.472 15.0059C34.472 8.36013 29.0653 2.95345 22.4195 2.95345C15.7729 2.95345 10.3645 8.36013 10.3645 15.0059ZM34.9926 32.9832L39.9977 34.1309L34.3445 23.6789C32.4515 26.2779 29.731 28.233 26.5686 29.1594L31.7313 38.5726L33.4299 33.8366C33.6604 33.1978 34.3278 32.8264 34.9926 32.9832Z" fill="#FC7E07"/>
</svg>
