<svg width="44" height="44" viewBox="0 0 44 44" fill="none" xmlns="http://www.w3.org/2000/svg">
<path d="M26.1024 43.166C33.8708 43.166 38.7032 41.8431 39.4208 38.5474C39.6028 37.7224 39.5382 36.6544 39.4552 36.0885C40.4504 35.3926 42.0475 34.0604 42.1313 31.9913C42.1648 31.1504 41.8152 30.447 41.64 29.9163C42.4029 29.1199 43.5968 27.7307 43.5465 25.9064C43.5054 24.4929 42.5639 23.3963 41.8345 22.6686C42.1103 22.0381 42.2353 20.82 42.2135 19.8659C42.1472 16.9769 39.9532 15 36.6383 15C34.2556 15 29.2472 15.0377 26.4805 15.0595C27.2946 11.7731 28.174 5.62193 26.442 2.75804C25.5977 1.35628 23.8874 0.263874 22.3616 0.263874C19.6788 0.263874 19.5279 1.41245 18.7977 3.15878C14.5739 13.257 8.29116 19.0418 3.75974 19.0418C3.2978 19.0418 2.86771 19.2799 2.62291 19.6722C2.53823 19.8064 0.564697 22.6996 0.564697 29.0478C0.564697 35.4899 3.32211 39.5124 3.43948 39.6549C3.69519 39.9651 4.07581 40.1185 4.47655 40.1445C9.99557 40.5042 11.5072 40.9217 12.3078 41.5236C13.8177 42.6605 13.9116 43.166 26.1024 43.166ZM5.18833 37.424C4.55871 36.3878 3.2475 33.186 3.2475 29.047C3.2475 24.9926 4.13617 22.7575 4.60902 21.6793C10.0928 21.1193 16.7881 14.9161 21.27 4.19166C21.732 3.09171 22.1746 2.945 22.3599 2.945C23.7013 2.945 23.7835 3.54024 24.1415 4.13717C25.3571 6.15932 24.6252 12.0808 23.3148 15.8543C23.1673 16.281 23.1857 16.7463 23.4372 17.1219C23.6896 17.4967 24.0954 17.718 24.564 17.7155C24.564 17.7155 33.2546 17.6819 36.6383 17.6819C37.1405 17.6819 39.4812 17.7499 39.5298 19.9263C39.555 20.9432 38.8725 22.0272 38.8725 22.0272C38.637 22.3349 38.5531 22.7323 38.6277 23.1113C38.704 23.491 38.9488 23.823 39.2842 24.015C39.3295 24.0419 40.8301 24.8433 40.8628 25.9819C40.9048 27.4163 39.1702 28.4676 39.1635 28.4735C38.5699 28.886 38.4274 29.7176 38.8181 30.3246C38.8331 30.3481 39.4904 30.9232 39.4502 31.8807C39.389 33.3772 36.7112 34.3363 36.7003 34.3421C36.0363 34.6322 35.7328 35.4211 36.0053 36.0926C36.0087 36.1002 37.0063 37.03 36.8009 37.9756C36.2845 40.3407 29.5473 40.4841 26.1024 40.4841C14.8087 40.4841 14.9705 40.1705 13.9217 39.3808C12.566 38.3605 9.99557 37.8222 5.18833 37.424Z" fill="#FC7E07"/>
</svg>
