<svg width="16" height="19" viewBox="0 0 16 19" fill="none" xmlns="http://www.w3.org/2000/svg">
<path d="M10.7015 15.8283C10.4226 14.228 9.95774 12.5745 9.30696 10.8678H9.28704L9.26712 10.8778C9.16087 10.9176 9.0181 10.9724 8.83881 11.0422C8.65951 11.1119 8.32416 11.2746 7.83276 11.5302C7.34136 11.7859 6.88648 12.0582 6.46813 12.347C6.04977 12.6359 5.61482 13.0161 5.16326 13.4875C4.7117 13.959 4.36971 14.4504 4.13729 14.9617L3.98788 14.8522C5.20974 15.8483 6.59762 16.3463 8.15151 16.3463C9.02806 16.3463 9.87805 16.1736 10.7015 15.8283ZM8.85873 9.78211C8.71928 9.45672 8.5433 9.08817 8.3308 8.67646C6.26559 9.29403 4.03104 9.60282 1.62716 9.60282C1.62052 9.6493 1.6172 9.71903 1.6172 9.81199C1.6172 10.6354 1.76329 11.4207 2.05548 12.1677C2.34766 12.9148 2.75938 13.5838 3.29062 14.1748C3.62265 13.5838 4.0327 13.031 4.52078 12.5164C5.00886 12.0017 5.482 11.5883 5.9402 11.2762C6.3984 10.9641 6.8317 10.6952 7.24009 10.4694C7.64849 10.2436 7.97885 10.0843 8.23119 9.99129L8.59975 9.8618C8.62631 9.85516 8.66947 9.84354 8.72924 9.82693C8.789 9.81033 8.83216 9.79539 8.85873 9.78211ZM7.79292 7.67041C6.99605 6.25597 6.1859 5.00091 5.36247 3.90522C4.44608 4.33685 3.66913 4.95443 3.03164 5.75793C2.39415 6.56144 1.96915 7.46456 1.75665 8.46728C3.7621 8.46728 5.77419 8.20166 7.79292 7.67041ZM14.6061 10.8479C13.2116 10.4495 11.8536 10.3532 10.5321 10.5591C11.1099 12.1461 11.5349 13.7034 11.8071 15.2307C12.5442 14.7326 13.1585 14.1035 13.6499 13.3431C14.1413 12.5828 14.46 11.751 14.6061 10.8479ZM12.4646 4.91126C11.236 3.82221 9.79837 3.27769 8.15151 3.27769C7.64683 3.27769 7.13218 3.34077 6.60758 3.46694C7.47749 4.59584 8.29428 5.86418 9.05794 7.27198C9.51614 7.09933 9.94778 6.89845 10.3529 6.66935C10.7579 6.44025 11.0783 6.23605 11.3141 6.05676C11.5498 5.87746 11.7673 5.68821 11.9665 5.48899C12.1657 5.28977 12.2902 5.1553 12.34 5.08558C12.3898 5.01585 12.4313 4.95775 12.4646 4.91126ZM14.6858 9.74227C14.6659 8.20166 14.1712 6.84034 13.2017 5.65833L13.1917 5.66829C13.1319 5.74797 13.0688 5.82932 13.0024 5.91233C12.936 5.99533 12.7916 6.14309 12.5691 6.35558C12.3467 6.56808 12.1109 6.76896 11.8619 6.95821C11.6129 7.14747 11.2809 7.36329 10.8658 7.60567C10.4508 7.84805 10.0142 8.06221 9.55599 8.24814C9.722 8.60009 9.86809 8.91552 9.99426 9.19442C10.0075 9.23426 10.0291 9.29237 10.059 9.36874C10.0889 9.4451 10.1138 9.49989 10.1337 9.53309C10.3728 9.49989 10.6201 9.47664 10.8758 9.46336C11.1315 9.45008 11.3755 9.44344 11.6079 9.44344C11.8403 9.44344 12.0694 9.44842 12.2952 9.45838C12.521 9.46834 12.7335 9.48163 12.9327 9.49823C13.1319 9.51483 13.3195 9.53309 13.4955 9.55301C13.6715 9.57293 13.8308 9.59451 13.9736 9.61776C14.1164 9.641 14.2376 9.66092 14.3372 9.67752C14.4368 9.69412 14.5198 9.70906 14.5862 9.72235L14.6858 9.74227ZM14.7755 5.97209C14.7755 5.97209 14.9465 6.26511 15.2884 6.85113C15.6304 7.43716 15.8014 8.42412 15.8014 9.81199C15.8014 11.1999 15.4594 12.4798 14.7755 13.6519C14.0915 14.824 13.1635 15.752 11.9914 16.4359C10.8194 17.1199 9.53938 17.4619 8.15151 17.4619C6.76363 17.4619 5.48366 17.1199 4.31161 16.4359C3.13955 15.752 2.21153 14.824 1.52755 13.6519C0.843576 12.4798 0.501587 11.1999 0.501587 9.81199C0.501587 8.42412 0.843576 7.14415 1.52755 5.97209C2.21153 4.80003 3.13955 3.87201 4.31161 3.18804C5.48366 2.50406 6.76363 2.16207 8.15151 2.16207C9.53938 2.16207 10.8194 2.50406 11.9914 3.18804C13.1635 3.87201 14.0915 4.80003 14.7755 5.97209Z" fill="white"/>
</svg>
