<svg width="21" height="19" viewBox="0 0 21 19" fill="none" xmlns="http://www.w3.org/2000/svg">
<path d="M18.4088 4.26399H13.3189V5.49914H18.4088V4.26399ZM15.8987 8.50731C15.3011 8.50731 14.8163 8.68162 14.4444 9.03025C14.0726 9.37888 13.8667 9.85202 13.8269 10.4497H17.8909C17.7714 9.15476 17.1073 8.50731 15.8987 8.50731ZM16.0581 14.3344C16.4764 14.3344 16.8815 14.2281 17.2733 14.0156C17.6651 13.8031 17.9174 13.5143 18.0303 13.1491H20.2317C19.5676 15.1877 18.1499 16.207 15.9784 16.207C14.5573 16.207 13.4268 15.7688 12.5867 14.8922C11.7467 14.0156 11.3267 12.8635 11.3267 11.4358C11.3267 10.0546 11.76 8.9074 12.6266 7.99432C13.4932 7.08125 14.6104 6.62471 15.9784 6.62471C16.8948 6.62471 17.6933 6.85049 18.374 7.30205C19.0546 7.7536 19.5626 8.34793 19.898 9.08503C20.2333 9.82214 20.401 10.6456 20.401 11.5553C20.401 11.6682 20.3944 11.8243 20.3811 12.0235H13.8269C13.8269 12.7606 14.0178 13.33 14.3996 13.7318C14.7814 14.1335 15.3343 14.3344 16.0581 14.3344ZM2.76037 13.8364H5.70878C7.07009 13.8364 7.75075 13.2819 7.75075 12.1729C7.75075 10.9776 7.09001 10.3799 5.76854 10.3799H2.76037V13.8364ZM2.76037 8.48738H5.55937C6.07733 8.48738 6.48738 8.36619 6.78953 8.12381C7.09167 7.88143 7.24275 7.50458 7.24275 6.99326C7.24275 6.03702 6.61189 5.5589 5.35019 5.5589H2.76037V8.48738ZM0.0012207 3.41732H5.91796C6.49569 3.41732 7.01033 3.4638 7.46189 3.55677C7.91344 3.64974 8.33346 3.80745 8.72193 4.02991C9.1104 4.25237 9.40923 4.57278 9.61841 4.99113C9.82758 5.40949 9.93217 5.92081 9.93217 6.5251C9.93217 7.72704 9.36108 8.60027 8.21891 9.1448C8.97593 9.3573 9.54702 9.73913 9.93217 10.2903C10.3173 10.8415 10.5099 11.5188 10.5099 12.3223C10.5099 12.8203 10.4286 13.2736 10.2659 13.682C10.1032 14.0904 9.88403 14.434 9.60845 14.7129C9.33286 14.9918 9.00582 15.2275 8.6273 15.4201C8.24879 15.6127 7.84704 15.7522 7.42204 15.8385C6.99705 15.9248 6.55213 15.968 6.08729 15.968H0.0012207V3.41732Z" fill="white"/>
</svg>
