<svg width="17" height="19" viewBox="0 0 17 19" fill="none" xmlns="http://www.w3.org/2000/svg">
<path d="M4.38148 7.1127V16.9839H1.09441V7.1127H4.38148ZM4.59066 4.06468C4.5973 4.54944 4.42963 4.95452 4.08764 5.27991C3.74565 5.60529 3.29575 5.76799 2.73794 5.76799H2.71802C2.1735 5.76799 1.73522 5.60529 1.40319 5.27991C1.07117 4.95452 0.905151 4.54944 0.905151 4.06468C0.905151 3.57328 1.07615 3.16655 1.41813 2.84448C1.76012 2.52241 2.2067 2.36138 2.75787 2.36138C3.30903 2.36138 3.75063 2.52241 4.08266 2.84448C4.41469 3.16655 4.58402 3.57328 4.59066 4.06468ZM16.205 11.3261V16.9839H12.9279V11.7046C12.9279 11.0074 12.7934 10.4612 12.5245 10.0661C12.2555 9.67097 11.8355 9.47342 11.2644 9.47342C10.8461 9.47342 10.4958 9.58797 10.2136 9.81707C9.93133 10.0462 9.72049 10.33 9.58104 10.6687C9.50799 10.8679 9.47147 11.1369 9.47147 11.4755V16.9839H6.19435C6.20764 14.3343 6.21428 12.1861 6.21428 10.5392C6.21428 8.89237 6.21096 7.90957 6.20432 7.59082L6.19435 7.1127H9.47147V8.54706H9.45155C9.58436 8.33456 9.72049 8.14863 9.85994 7.98925C9.99939 7.82988 10.187 7.65722 10.4227 7.47129C10.6585 7.28535 10.9473 7.14092 11.2893 7.03799C11.6313 6.93506 12.0115 6.8836 12.4298 6.8836C13.5654 6.8836 14.4784 7.26045 15.1691 8.01416C15.8597 8.76786 16.205 9.87185 16.205 11.3261Z" fill="white"/>
</svg>
