<svg width="14" height="19" viewBox="0 0 14 19" fill="none" xmlns="http://www.w3.org/2000/svg">
<path d="M0.484619 6.8337C0.484619 6.11652 0.60913 5.44085 0.85815 4.80667C1.10717 4.1725 1.45082 3.61967 1.8891 3.14819C2.32737 2.67671 2.83206 2.26832 3.40314 1.92301C3.97423 1.5777 4.58848 1.31872 5.2459 1.14607C5.90331 0.973412 6.57401 0.887085 7.25799 0.887085C8.30719 0.887085 9.28336 1.10788 10.1865 1.54948C11.0896 1.99108 11.8234 2.63355 12.3878 3.4769C12.9523 4.32025 13.2345 5.27317 13.2345 6.33566C13.2345 6.97316 13.1714 7.59737 13.0452 8.2083C12.9191 8.81923 12.7198 9.40692 12.4476 9.97137C12.1753 10.5358 11.8433 11.0322 11.4515 11.4605C11.0597 11.8888 10.5783 12.2308 10.0072 12.4865C9.43609 12.7421 8.80856 12.87 8.12458 12.87C7.67302 12.87 7.22478 12.7637 6.77987 12.5512C6.33495 12.3387 6.0162 12.0465 5.82363 11.6747C5.75722 11.9337 5.66425 12.3072 5.54472 12.7953C5.42519 13.2833 5.34717 13.5988 5.31064 13.7415C5.27412 13.8843 5.20605 14.1201 5.10645 14.4488C5.00684 14.7775 4.92051 15.0132 4.84747 15.156C4.77442 15.2988 4.66817 15.5063 4.52872 15.7785C4.38927 16.0508 4.23653 16.3081 4.07052 16.5505C3.90451 16.7929 3.69865 17.0801 3.45295 17.4121L3.3135 17.4619L3.22385 17.3623C3.12424 16.3197 3.07444 15.6955 3.07444 15.4897C3.07444 14.8787 3.14582 14.1931 3.28859 13.4328C3.43137 12.6724 3.65216 11.7178 3.95099 10.569C4.24981 9.4202 4.42247 8.74618 4.46895 8.54697C4.25646 8.11533 4.15021 7.5542 4.15021 6.86359C4.15021 6.31242 4.32286 5.79446 4.66817 5.3097C5.01348 4.82493 5.45176 4.58255 5.983 4.58255C6.38807 4.58255 6.7035 4.71703 6.92928 4.98597C7.15506 5.25491 7.26795 5.59524 7.26795 6.00695C7.26795 6.44523 7.12186 7.0794 6.82967 7.90947C6.53749 8.73954 6.39139 9.36044 6.39139 9.77215C6.39139 10.1905 6.54081 10.5375 6.83963 10.8131C7.13846 11.0886 7.50037 11.2264 7.92536 11.2264C8.29059 11.2264 8.62926 11.1434 8.94137 10.9774C9.25347 10.8114 9.51412 10.5856 9.72329 10.3001C9.93247 10.0145 10.1184 9.6991 10.2811 9.35379C10.4438 9.00849 10.57 8.64159 10.6596 8.25312C10.7493 7.86465 10.8157 7.4961 10.8588 7.14747C10.902 6.79884 10.9236 6.46847 10.9236 6.15637C10.9236 5.00755 10.56 4.11273 9.83286 3.47192C9.10572 2.83111 8.15778 2.5107 6.98904 2.5107C5.66093 2.5107 4.55196 2.94068 3.66213 3.80063C2.77229 4.66058 2.32737 5.75129 2.32737 7.07276C2.32737 7.36495 2.36888 7.64717 2.45188 7.91943C2.53489 8.1917 2.62454 8.40752 2.72083 8.56689C2.81711 8.72626 2.90676 8.87733 2.98977 9.02011C3.07278 9.16288 3.11428 9.26415 3.11428 9.32391C3.11428 9.50985 3.06448 9.75223 2.96487 10.0511C2.86526 10.3499 2.74241 10.4993 2.59632 10.4993C2.58303 10.4993 2.52659 10.4893 2.42698 10.4694C2.08831 10.3698 1.78783 10.1839 1.52553 9.9116C1.26322 9.63934 1.06069 9.32557 0.917915 8.9703C0.775144 8.61503 0.667234 8.25644 0.594188 7.89453C0.521142 7.53262 0.484619 7.17901 0.484619 6.8337Z" fill="white"/>
</svg>
