<svg width="18" height="19" viewBox="0 0 18 19" fill="none" xmlns="http://www.w3.org/2000/svg">
<path d="M16.6466 4.95119C16.2017 5.60196 15.6638 6.15645 15.033 6.61465C15.0396 6.70762 15.0429 6.84707 15.0429 7.033C15.0429 7.89628 14.9168 8.75789 14.6644 9.61784C14.4121 10.4778 14.0286 11.3029 13.514 12.0931C12.9993 12.8833 12.3867 13.5823 11.6762 14.1899C10.9656 14.7975 10.109 15.2822 9.10629 15.6441C8.10356 16.0061 7.03111 16.187 5.88894 16.187C4.08935 16.187 2.44249 15.7056 0.948364 14.7427C1.18078 14.7693 1.43977 14.7825 1.72531 14.7825C3.21943 14.7825 4.55087 14.3243 5.7196 13.4079C5.02235 13.3947 4.39813 13.1805 3.84697 12.7655C3.2958 12.3504 2.91729 11.8208 2.71143 11.1767C2.93057 11.2099 3.13311 11.2265 3.31904 11.2265C3.60459 11.2265 3.88681 11.19 4.16571 11.1169C3.42197 10.9642 2.80606 10.594 2.31798 10.0063C1.8299 9.41862 1.58586 8.73631 1.58586 7.95936V7.91952C2.03742 8.17186 2.52218 8.30799 3.04014 8.32791C2.60186 8.03573 2.25323 7.6539 1.99425 7.18242C1.73527 6.71094 1.60578 6.19961 1.60578 5.64845C1.60578 5.06408 1.75187 4.52287 2.04406 4.02483C2.84756 5.01428 3.82539 5.80616 4.97752 6.40049C6.12966 6.99482 7.36314 7.32519 8.67797 7.39159C8.62485 7.13925 8.59828 6.89355 8.59828 6.65449C8.59828 5.76466 8.91205 5.00597 9.53958 4.37844C10.1671 3.75091 10.9258 3.43714 11.8156 3.43714C12.7453 3.43714 13.5289 3.77581 14.1664 4.45315C14.8902 4.3137 15.5709 4.05472 16.2084 3.6762C15.9627 4.43987 15.4912 5.03088 14.7939 5.44923C15.4115 5.38283 16.0291 5.21681 16.6466 4.95119Z" fill="white"/>
</svg>
