<svg width="19" height="19" viewBox="0 0 19 19" fill="none" xmlns="http://www.w3.org/2000/svg">
<path d="M17.6036 6.04708C17.5372 7.61426 16.4349 9.77576 14.2966 12.5316C12.0853 15.3937 10.2193 16.8247 8.69863 16.8247C7.75567 16.8247 6.9588 15.9515 6.30803 14.205C6.01585 13.1425 5.57757 11.5421 4.9932 9.40389C4.51508 7.66406 3.9938 6.79415 3.42935 6.79415C3.30982 6.79415 2.88814 7.04649 2.16432 7.55117L1.39734 6.57501C1.55671 6.43556 1.9153 6.11515 2.47311 5.61379C3.03092 5.11243 3.46255 4.72893 3.76802 4.46331C4.80394 3.54692 5.60413 3.06215 6.16858 3.00903C6.79943 2.94927 7.30743 3.13354 7.69259 3.56186C8.07774 3.99017 8.34668 4.66585 8.49941 5.58889C8.7916 7.49473 9.01074 8.73319 9.15683 9.30428C9.52206 10.9578 9.92049 11.7845 10.3521 11.7845C10.6908 11.7845 11.2021 11.25 11.8861 10.1808C12.5568 9.1117 12.9187 8.29491 12.9718 7.73047C13.0582 6.80743 12.6962 6.34591 11.8861 6.34591C11.5076 6.34591 11.1058 6.43224 10.6808 6.60489C11.4777 3.99515 13.0017 2.72681 15.2529 2.79985C16.9196 2.85298 17.7032 3.93539 17.6036 6.04708Z" fill="white"/>
</svg>
