<svg width="70" height="69" viewBox="0 0 70 69" fill="none" xmlns="http://www.w3.org/2000/svg">
<path d="M26.778 18.9568V4.5957H36.3626L62.0585 20.1524V50.0341L38.7786 60.2282V27.3845L26.778 18.9568Z" fill="#CB97E7"/>
<path d="M57.3468 47.9792L51.9411 54.4646L43.2387 55.1589L38.7786 38.5312L57.3468 47.9792Z" fill="#E5CAF3"/>
<path d="M10.0376 25.5254L31.4898 32.9617L26.7779 50.0342L12.6698 57.2138L10.0376 25.5254Z" fill="#D9B1EE"/>
<path d="M65.5771 15.9649V53.0262L35.0082 68.5829L31.4897 51.7007L35.0082 31.5216L34.2682 25.5257L43.2386 27.3338V55.1593L57.3467 47.9796V20.1527V15.4058L65.5771 15.9649Z" fill="#D9B1EE"/>
<path d="M35.0083 31.5215V68.5828L26.7779 64.3948V36.5681L12.6698 29.3872V57.214L4.43945 53.0261V15.9648L23.8391 21.6492L35.0083 31.5215Z" fill="#CB97E7"/>
<path d="M43.2387 27.3336L35.0083 31.5215L4.43945 15.9648L12.6685 11.7769L43.2387 27.3336Z" fill="#E5CAF3"/>
<path d="M65.5772 15.9649L57.3468 20.1527L26.778 4.59602L35.0083 0.408203L65.5772 15.9649Z" fill="#E5CAF3"/>
</svg>
