<svg width="69" height="69" viewBox="0 0 69 69" fill="none" xmlns="http://www.w3.org/2000/svg">
<path d="M56.8223 42.1607L53.0711 59.139L40.6416 52.8133V37.7441L56.8223 42.1607Z" fill="#3EC3A4"/>
<path d="M65.5005 37.7441V52.8133L53.071 59.139V44.0697L56.202 39.4657L65.5005 37.7441Z" fill="#6FD7A3"/>
<path d="M65.5006 37.7442L53.0711 44.0698L40.6416 37.7442L53.0711 31.4185L65.5006 37.7442Z" fill="#9BE69D"/>
<path d="M19.7085 42.1607L15.9573 59.139L3.52783 52.8133V37.7441L19.7085 42.1607Z" fill="#3EC3A4"/>
<path d="M28.3868 37.7441V52.8133L15.9573 59.139V44.0697L19.0883 39.4657L28.3868 37.7441Z" fill="#6FD7A3"/>
<path d="M28.3868 37.7442L15.9573 44.0698L3.52783 37.7442L15.9573 31.4185L28.3868 37.7442Z" fill="#9BE69D"/>
<path d="M38.2658 51.6042L34.5147 68.5825L22.0852 62.2567V47.1875L38.2658 51.6042Z" fill="#3EC3A4"/>
<path d="M46.9441 47.1875V62.2567L34.5146 68.5825V53.5132L37.6456 48.9092L46.9441 47.1875Z" fill="#6FD7A3"/>
<path d="M46.9442 47.1879L34.5147 53.5136L22.0852 47.1879L34.5147 40.8623L46.9442 47.1879Z" fill="#9BE69D"/>
<path d="M38.2658 11.1505L34.5147 28.1287L22.0852 21.8031V6.73389L38.2658 11.1505Z" fill="#3EC3A4"/>
<path d="M46.9441 6.73389V21.8031L34.5146 28.1287V13.0596L37.6456 8.45556L46.9441 6.73389Z" fill="#6FD7A3"/>
<path d="M46.9442 6.73393L34.5147 13.0596L22.0852 6.73393L34.5147 0.408203L46.9442 6.73393Z" fill="#9BE69D"/>
<path d="M56.8223 20.5938L53.0711 37.5721L40.6416 31.2464V16.1772L56.8223 20.5938Z" fill="#3EC3A4"/>
<path d="M65.5005 16.1772V31.2464L53.071 37.5721V22.5028L56.202 17.8989L65.5005 16.1772Z" fill="#6FD7A3"/>
<path d="M65.5006 16.1773L53.0711 22.5029L40.6416 16.1773L53.0711 9.85156L65.5006 16.1773Z" fill="#9BE69D"/>
<path d="M19.7085 20.5938L15.9573 37.5721L3.52783 31.2464V16.1772L19.7085 20.5938Z" fill="#3EC3A4"/>
<path d="M28.3868 16.1772V31.2464L15.9573 37.5721V22.5028L19.0883 17.8989L28.3868 16.1772Z" fill="#6FD7A3"/>
<path d="M28.3868 16.1773L15.9573 22.5029L3.52783 16.1773L15.9573 9.85156L28.3868 16.1773Z" fill="#9BE69D"/>
<path d="M38.2658 30.0377L34.5147 47.0159L22.0852 40.6902V25.6211L38.2658 30.0377Z" fill="#3EC3A4"/>
<path d="M46.9441 25.6211V40.6902L34.5146 47.0159V31.9467L37.6456 27.3426L46.9441 25.6211Z" fill="#6FD7A3"/>
<path d="M46.9442 25.6206L34.5147 31.9462L22.0852 25.6206L34.5147 19.2949L46.9442 25.6206Z" fill="#9BE69D"/>
</svg>
