<svg width="70" height="69" viewBox="0 0 70 69" fill="none" xmlns="http://www.w3.org/2000/svg">
<path d="M26.7856 34.4956L35.0161 68.5829L64.5365 51.5393L26.7856 34.4956Z" fill="#806CD4"/>
<path d="M5.49585 51.5393L35.0163 68.5829V34.4956L5.49585 51.5393Z" fill="#8D8DDF"/>
<path d="M5.49585 17.4517V51.539L35.0163 34.4953V26.265L5.49585 17.4517Z" fill="#A6CEF4"/>
<path d="M35.0163 0.408203L5.49585 17.4519L35.0163 34.4955V0.408203Z" fill="#B3EFFF"/>
<path d="M64.5368 17.4517H49.7766L64.5368 51.539V17.4517Z" fill="#6858AD"/>
<path d="M35.0161 0.408203L49.7763 25.9737L64.5365 17.4519L35.0161 0.408203Z" fill="#806CD4"/>
<path d="M35.0161 19.8276L64.5365 51.5389L60.4214 19.8276H35.0161Z" fill="#806CD4"/>
<path d="M60.4214 19.8279L35.0161 0.408203V34.4955L60.4214 19.8279Z" fill="#8D8DDF"/>
<path d="M35.0163 0.408203L5.49585 51.5392H64.5367L35.0163 0.408203Z" fill="#9AADEA"/>
<path d="M20.2559 25.9736L35.0162 51.5391L49.7764 25.9736H20.2559Z" fill="#A6CEF4"/>
</svg>
