<svg width="21" height="22" viewBox="0 0 21 22" fill="none" xmlns="http://www.w3.org/2000/svg">
<path d="M10.9164 19.4473C9.38275 19.4473 7.96344 19.0639 6.65849 18.297C5.39389 17.5436 4.39163 16.5347 3.65171 15.2701C2.88488 13.9651 2.50146 12.5492 2.50146 11.0222C2.50146 9.4953 2.88488 8.07936 3.65171 6.7744C4.39163 5.50981 5.39389 4.50082 6.65849 3.74745C7.96344 2.98062 9.37938 2.5972 10.9063 2.5972C12.4332 2.5972 13.8492 2.98062 15.1541 3.74745C16.4322 4.50082 17.4412 5.50981 18.1811 6.7744C18.9479 8.07936 19.3313 9.4953 19.3313 11.0222C19.3313 12.5492 18.9479 13.9651 18.1811 15.2701C17.4412 16.5347 16.4322 17.5436 15.1541 18.297C13.8492 19.0639 12.4366 19.4473 10.9164 19.4473ZM10.0689 14.3822L16.0219 8.42914L14.8313 7.23854L10.0689 12.001L7.68765 9.61974L6.49705 10.8103L10.0689 14.3822Z" fill="#6AB73D"/>
</svg>
