<svg width="76" height="70" viewBox="0 0 76 70" fill="none" xmlns="http://www.w3.org/2000/svg">
<path d="M25.4153 4.31675H12.7765C11.0769 4.31675 9.45859 4.63317 7.92168 5.26601C6.38477 5.89886 5.01964 6.81196 3.82627 8.00533C2.63291 9.19869 1.71981 10.5638 1.08696 12.1007C0.454117 13.6376 0.137695 15.2559 0.137695 16.9556V29.5944C0.137695 30.4261 0.300427 31.2307 0.62589 32.0082C0.951352 32.7857 1.40338 33.4637 1.98198 34.0424C2.56059 34.621 3.23863 35.073 4.01613 35.3984C4.79362 35.7239 5.59824 35.8866 6.42998 35.8866H25.0898C24.7282 38.0926 23.9959 40.1629 22.893 42.0976C21.79 44.0323 20.3797 45.7228 18.662 47.1694C16.9442 48.6159 15.0367 49.7278 12.9392 50.5053C10.8418 51.2828 8.67205 51.6716 6.42998 51.6716C5.56208 51.6716 4.82074 51.979 4.20598 52.5937C3.59122 53.2085 3.28384 53.9498 3.28384 54.8177C3.28384 55.6856 3.59122 56.427 4.20598 57.0417C4.82074 57.6565 5.56208 57.9639 6.42998 57.9639C9.79309 57.9639 13.0206 57.322 16.1125 56.0382C19.2044 54.7544 21.9347 52.9282 24.3033 50.5596C26.672 48.1909 28.4982 45.4607 29.7819 42.3688C31.0657 39.2769 31.7076 36.0675 31.7076 32.7405V10.609C31.7076 9.77729 31.5449 8.97267 31.2194 8.19518C30.8939 7.41768 30.4419 6.73964 29.8633 6.16103C29.2847 5.58244 28.6067 5.1304 27.8292 4.80494C27.0517 4.47948 26.247 4.31675 25.4153 4.31675ZM69.5698 4.31675H56.9852C55.2856 4.31675 53.6673 4.63317 52.1304 5.26601C50.5935 5.89886 49.2283 6.81196 48.035 8.00533C46.8416 9.19869 45.9285 10.5638 45.2957 12.1007C44.6628 13.6376 44.3464 15.2559 44.3464 16.9556V29.5944C44.3464 30.4261 44.5001 31.2307 44.8075 32.0082C45.1148 32.7857 45.5669 33.4637 46.1636 34.0424C46.7602 34.621 47.4473 35.073 48.2248 35.3984C49.0023 35.7239 49.8069 35.8866 50.6387 35.8866H69.2985C68.9369 38.0926 68.1956 40.1629 67.0745 42.0976C65.9535 44.0323 64.5432 45.7228 62.8435 47.1694C61.1439 48.6159 59.2454 49.7278 57.1479 50.5053C55.0505 51.2828 52.8808 51.6716 50.6387 51.6716C49.7708 51.6716 49.0294 51.979 48.4147 52.5937C47.7999 53.2085 47.4925 53.9498 47.4925 54.8177C47.4925 55.6856 47.7999 56.427 48.4147 57.0417C49.0294 57.6565 49.7708 57.9639 50.6387 57.9639C54.0018 57.9639 57.2293 57.322 60.3212 56.0382C63.4131 54.7544 66.1434 52.9282 68.512 50.5596C70.8807 48.1909 72.7069 45.4607 73.9906 42.3688C75.2744 39.2769 75.9163 36.0675 75.9163 32.7405V10.609C75.9163 9.77729 75.7536 8.97267 75.4281 8.19518C75.1026 7.41768 74.6416 6.73964 74.0449 6.16103C73.4482 5.58244 72.7611 5.1304 71.9836 4.80494C71.2061 4.47948 70.4015 4.31675 69.5698 4.31675Z" fill="#FF8000"/>
</svg>
